<svg width="24" height="24" viewBox="0 0 24 24" fill="none" xmlns="http://www.w3.org/2000/svg">
<path d="M9.94944 18.2926L7.12141 21.1206C5.94896 22.2931 4.05028 22.2931 2.87882 21.1209C1.70713 19.9492 1.70713 18.0503 2.87859 16.8789L8.53564 11.2218C9.7071 10.0503 11.606 10.0503 12.7774 11.2218C13.1679 11.6123 13.8011 11.6123 14.1917 11.2218C14.5822 10.8313 14.5822 10.1981 14.1917 9.80758C12.2391 7.85503 9.07395 7.85503 7.12141 9.80758L1.46441 15.4646C-0.488136 17.4171 -0.488136 20.5823 1.46441 22.5348C3.41672 24.4884 6.58211 24.4884 8.53568 22.5348L11.3637 19.7068C11.7542 19.3163 11.7542 18.6831 11.3637 18.2926C10.9732 17.902 10.34 17.9021 9.94944 18.2926Z" fill="#494B5A"/>
<path d="M22.5349 1.46438C20.5823 -0.488166 17.4161 -0.488166 15.4636 1.46438L12.0706 4.8574C11.6801 5.24791 11.6801 5.88111 12.0706 6.27162C12.4611 6.66214 13.0943 6.66214 13.4848 6.27162L16.8778 2.8786C18.0493 1.7071 19.9491 1.7071 21.1206 2.8786C22.2921 4.05006 22.2921 5.94893 21.1206 7.12039L14.8986 13.3425C13.7271 14.514 11.8283 14.514 10.6568 13.3425C10.2663 12.952 9.63311 12.952 9.2426 13.3425C8.85208 13.733 8.85208 14.3662 9.2426 14.7567C11.1951 16.7092 14.3603 16.7092 16.3128 14.7567L22.5349 8.53467C24.4874 6.58213 24.4874 3.41692 22.5349 1.46438Z" fill="#494B5A"/>
</svg>
