<svg width="26" height="24" viewBox="0 0 26 24" fill="none" xmlns="http://www.w3.org/2000/svg">
<path d="M5 20.25V3.75M5 20.25H0.999999M5 20.25V23H7.66667M5 3.75V1L7.66667 1M5 3.75H0.999999M5 9.25H0.999999M5 14.75H0.999999M25 20.25H21M25 9.25H21M25 14.75H21M25 3.75L21 3.75M7.66667 1L21 1V23H7.66667M7.66667 1V23M18.3333 1V23M15.6667 20.25H10.3333M14.3333 5.08333V5.16667C14.3333 5.90305 13.7364 6.5 13 6.5V6.5C12.2636 6.5 11.6667 5.90305 11.6667 5.16667V5.08333C11.6667 4.34695 12.2636 3.75 13 3.75V3.75C13.7364 3.75 14.3333 4.34695 14.3333 5.08333Z" stroke="#F7BD29" stroke-width="1.6" stroke-miterlimit="10" stroke-linecap="round" stroke-linejoin="round"/>
</svg>
