<svg width="26" height="29" viewBox="0 0 26 29" fill="none" xmlns="http://www.w3.org/2000/svg">
<path d="M22 23.5H4M22 23.5V28M22 23.5H25V20.5M4 23.5H1V20.5M4 23.5V28M10 23.5V28M16 23.5V28M22 1V5.5M10 1V5.5M16 1V5.5M4 1V5.5M1 20.5V5.5H25V20.5M1 20.5H25M1 8.5H25M22 11.5V17.5M5.5 13V13C6.32843 13 7 13.6716 7 14.5V14.5C7 15.3284 6.32843 16 5.5 16V16C4.67157 16 4 15.3284 4 14.5V14.5C4 13.6716 4.67157 13 5.5 13Z" stroke="#494B5A" stroke-width="1.6" stroke-miterlimit="10" stroke-linecap="round" stroke-linejoin="round"/>
</svg>
