<svg width="104" height="100" viewBox="0 0 104 100" fill="none" xmlns="http://www.w3.org/2000/svg">
<path fill-rule="evenodd" clip-rule="evenodd" d="M98.6542 99.7573C98.6542 99.6238 98.3262 99.5146 97.9252 99.5146C97.5243 99.5146 97.1963 99.4053 97.1963 99.2719C97.1963 99.1384 96.9776 99.0291 96.7103 99.0291C96.443 99.0291 96.2243 98.9199 96.2243 98.7864C96.2243 98.6529 95.7869 98.5437 95.2523 98.5437C94.7178 98.5437 94.2804 98.4345 94.2804 98.301C94.2804 98.1624 93.5514 98.0583 92.5794 98.0583C91.6075 98.0583 90.8785 97.9541 90.8785 97.8155C90.8785 97.6806 90.2304 97.5728 89.4206 97.5728C88.6107 97.5728 87.9626 97.4651 87.9626 97.3301C87.9626 97.1952 87.3146 97.0874 86.5047 97.0874C85.6948 97.0874 85.0467 96.9796 85.0467 96.8447C85.0467 96.7061 84.3178 96.6019 83.3458 96.6019C82.3738 96.6019 81.6449 96.4978 81.6449 96.3592C81.6449 96.2121 80.592 96.1165 78.972 96.1165C77.3519 96.1165 76.2991 96.0209 76.2991 95.8738C76.2991 95.7177 73.8692 95.6311 69.4953 95.6311C65.1215 95.6311 62.6916 95.7177 62.6916 95.8738C62.6916 96.0073 62.1449 96.1165 61.4766 96.1165C60.8084 96.1165 60.2617 96.0073 60.2617 95.8738C60.2617 95.7403 60.043 95.6311 59.7757 95.6311C59.5084 95.6311 59.2897 95.5218 59.2897 95.3884C59.2897 95.2549 59.071 95.1456 58.8037 95.1456C58.4798 95.1456 58.3178 94.9837 58.3178 94.6602C58.3178 94.3932 58.2084 94.1748 58.0748 94.1748C57.9411 94.1748 57.8318 93.9563 57.8318 93.6893C57.8318 93.4223 57.7224 93.2039 57.5888 93.2039C57.4551 93.2039 57.3458 92.767 57.3458 92.233C57.3458 91.699 57.4551 91.2621 57.5888 91.2621C57.7224 91.2621 57.8318 91.0437 57.8318 90.7767C57.8318 90.5097 57.9411 90.2913 58.0748 90.2913C58.2084 90.2913 58.3178 90.0728 58.3178 89.8058C58.3178 89.4823 58.4798 89.3204 58.8037 89.3204C59.071 89.3204 59.2897 89.2112 59.2897 89.0777C59.2897 88.9442 59.5084 88.835 59.7757 88.835C60.043 88.835 60.2617 88.7257 60.2617 88.5922C60.2617 88.4347 63.4206 88.3495 69.2523 88.3495C75.0841 88.3495 78.243 88.4347 78.243 88.5922C78.243 88.7257 78.571 88.835 78.972 88.835C79.3729 88.835 79.7009 88.7755 79.7009 88.7027C79.7009 88.4073 78.4823 87.3786 78.1324 87.3786C77.9259 87.3786 77.757 87.2694 77.757 87.1359C77.757 87.0024 77.5624 86.8932 77.3247 86.8932C77.0868 86.8932 76.7347 86.6748 76.5421 86.4078C76.3494 86.1408 76.0213 85.9223 75.8131 85.9223C75.6048 85.9223 75.2768 85.7039 75.0841 85.4369C74.8914 85.1699 74.5634 84.9515 74.3551 84.9515C74.1469 84.9515 73.8189 84.733 73.6262 84.466C73.4335 84.199 73.1054 83.9806 72.8972 83.9806C72.689 83.9806 72.3609 83.7621 72.1682 83.4952C71.9755 83.2282 71.6475 83.0097 71.4392 83.0097C71.231 83.0097 70.903 82.7913 70.7103 82.5243C70.5176 82.2573 70.2092 82.0388 70.025 82.0388C69.8411 82.0388 69.3838 81.7112 69.0093 81.3107C68.6349 80.9102 68.1776 80.5825 67.9936 80.5825C67.8095 80.5825 67.5011 80.3641 67.3084 80.0971C67.1157 79.8301 66.8074 79.6117 66.6232 79.6117C66.4392 79.6117 65.9819 79.284 65.6075 78.8835C65.233 78.483 64.7956 78.1553 64.6355 78.1553C64.4754 78.1553 64.038 77.8277 63.6635 77.4272C63.2891 77.0267 62.8517 76.699 62.6916 76.699C62.5315 76.699 62.0941 76.3714 61.7196 75.9709C61.3452 75.5704 60.9078 75.2427 60.7477 75.2427C60.5875 75.2427 60.1501 74.9151 59.7757 74.5146C59.4013 74.1141 58.9661 73.7864 58.8086 73.7864C58.6514 73.7864 58.1025 73.3495 57.5888 72.8155C57.0751 72.2816 56.5284 71.8447 56.3738 71.8447C56.2193 71.8447 55.6726 71.4078 55.1589 70.8738C54.6452 70.3398 54.1011 69.9029 53.9495 69.9029C53.7979 69.9029 53.03 69.2476 52.243 68.4466C51.4559 67.6456 50.6912 66.9903 50.5438 66.9903C50.3963 66.9903 49.5208 66.2257 48.5981 65.2913C47.6755 64.3568 46.8056 63.5922 46.6651 63.5922C46.3325 63.5922 30.1308 47.4112 30.1308 47.0789C30.1308 46.9398 29.1467 45.8515 27.9439 44.6602C26.7411 43.4689 25.757 42.375 25.757 42.2289C25.757 42.0828 25.1009 41.3201 24.2991 40.534C23.4972 39.7478 22.8411 38.9823 22.8411 38.8325C22.8411 38.683 22.2944 38.0289 21.6262 37.3786C20.9579 36.7284 20.4112 36.0716 20.4112 35.9192C20.4112 35.7665 19.9738 35.2218 19.4393 34.7087C18.9047 34.1956 18.4673 33.6495 18.4673 33.4951C18.4673 33.3408 18.0299 32.7947 17.4953 32.2815C16.9608 31.7684 16.5234 31.2223 16.5234 31.068C16.5234 30.9136 16.086 30.3675 15.5514 29.8544C15.0168 29.3413 14.5794 28.793 14.5794 28.6359C14.5794 28.4786 14.2514 28.0439 13.8505 27.6699C13.4495 27.2959 13.1215 26.8612 13.1215 26.7039C13.1215 26.5468 12.6841 25.9985 12.1495 25.4854C11.615 24.9723 11.1776 24.4044 11.1776 24.223C11.1776 24.0417 10.9589 23.7362 10.6916 23.5437C10.4243 23.3512 10.2056 23.0456 10.2056 22.8643C10.2056 22.683 9.76823 22.115 9.23365 21.6019C8.69907 21.0888 8.26169 20.5209 8.26169 20.3395C8.26169 20.1582 8.043 19.8527 7.77571 19.6602C7.50842 19.4677 7.28973 19.116 7.28973 18.8784C7.28973 18.641 7.18038 18.4466 7.04674 18.4466C6.91309 18.4466 6.80375 18.2522 6.80375 18.0148C6.80375 17.7772 6.58505 17.4255 6.31776 17.233C6.05047 17.0405 5.83178 16.6888 5.83178 16.4512C5.83178 16.2138 5.72244 16.0194 5.58879 16.0194C5.45515 16.0194 5.3458 15.825 5.3458 15.5876C5.3458 15.35 5.12711 14.9983 4.85982 14.8058C4.59253 14.6133 4.37384 14.2617 4.37384 14.024C4.37384 13.7867 4.26449 13.5922 4.13085 13.5922C3.9972 13.5922 3.88786 13.3738 3.88786 13.1068C3.88786 12.8398 3.77851 12.6214 3.64487 12.6214C3.51122 12.6214 3.40188 12.4029 3.40188 12.1359C3.40188 11.8689 3.29253 11.6505 3.15889 11.6505C3.02524 11.6505 2.9159 11.432 2.9159 11.165C2.9159 10.8981 2.80655 10.6796 2.6729 10.6796C2.53926 10.6796 2.42991 10.4612 2.42991 10.1942C2.42991 9.92718 2.32057 9.70873 2.18692 9.70873C2.05328 9.70873 1.94393 9.49029 1.94393 9.2233C1.94393 8.95631 1.83459 8.73786 1.70094 8.73786C1.5673 8.73786 1.45795 8.41019 1.45795 8.0097C1.45795 7.60922 1.34861 7.28155 1.21496 7.28155C1.08132 7.28155 0.971971 7.0631 0.971971 6.79611C0.971971 6.52912 0.862625 6.31068 0.72898 6.31068C0.595335 6.31068 0.48599 5.983 0.48599 5.58252C0.48599 5.18204 0.376644 4.85436 0.242999 4.85436C0.109354 4.85436 8.35609e-06 4.41747 8.40277e-06 3.88349C8.44945e-06 3.34951 0.109354 2.91261 0.242999 2.91261C0.376644 2.91261 0.48599 2.6347 0.48599 2.29489C0.48599 1.4995 1.50121 0.485436 2.29749 0.485436C2.63767 0.485436 2.9159 0.376206 2.9159 0.242714C2.9159 0.109215 3.24393 -7.3458e-06 3.64487 -7.31075e-06C4.0458 -7.2757e-06 4.37384 0.109215 4.37384 0.242714C4.37384 0.376206 4.65206 0.485436 4.99225 0.485436C5.78853 0.485436 6.80375 1.4995 6.80375 2.29489C6.80375 2.6347 6.91309 2.91261 7.04674 2.91261C7.18038 2.91261 7.28973 3.13107 7.28973 3.39806C7.28973 3.66505 7.39907 3.88349 7.53272 3.88349C7.66636 3.88349 7.77571 4.21116 7.77571 4.61165C7.77571 5.01213 7.88505 5.3398 8.0187 5.3398C8.15234 5.3398 8.26169 5.55825 8.26169 5.82524C8.26169 6.09223 8.37104 6.31068 8.50468 6.31068C8.63833 6.31068 8.74767 6.52912 8.74767 6.79611C8.74767 7.0631 8.85702 7.28155 8.99066 7.28155C9.12431 7.28155 9.23365 7.49999 9.23365 7.76698C9.23365 8.03397 9.343 8.25243 9.47664 8.25243C9.61029 8.25243 9.71963 8.47087 9.71963 8.73786C9.71963 9.00485 9.82898 9.2233 9.96262 9.2233C10.0963 9.2233 10.2056 9.41773 10.2056 9.65511C10.2056 9.89273 10.4243 10.2444 10.6916 10.4369C10.9589 10.6294 11.1776 10.981 11.1776 11.2187C11.1776 11.4561 11.2869 11.6505 11.4206 11.6505C11.5542 11.6505 11.6636 11.8449 11.6636 12.0823C11.6636 12.3199 11.8822 12.6716 12.1495 12.8641C12.4168 13.0566 12.6355 13.3842 12.6355 13.5922C12.6355 13.8002 12.8542 14.1279 13.1215 14.3204C13.3888 14.5129 13.6075 14.8405 13.6075 15.0485C13.6075 15.2565 13.8262 15.5842 14.0935 15.7767C14.3608 15.9692 14.5794 16.2772 14.5794 16.4612C14.5794 16.6449 14.9075 17.1017 15.3084 17.4757C15.7094 17.8498 16.0374 18.2866 16.0374 18.4466C16.0374 18.6066 16.3654 19.0434 16.7664 19.4175C17.1673 19.7915 17.4953 20.2284 17.4953 20.3883C17.4953 20.5483 17.8234 20.9852 18.2243 21.3592C18.6252 21.7332 18.9533 22.1701 18.9533 22.3301C18.9533 22.49 19.2813 22.9269 19.6822 23.301C20.0832 23.675 20.4112 24.1097 20.4112 24.267C20.4112 24.424 20.8486 24.9723 21.3832 25.4854C21.9178 25.9985 22.3551 26.5447 22.3551 26.699C22.3551 26.8534 22.7925 27.3995 23.3271 27.9126C23.8617 28.4257 24.2991 28.9704 24.2991 29.1231C24.2991 29.2755 24.8458 29.9323 25.514 30.5825C26.1822 31.2328 26.729 31.8881 26.729 32.0388C26.729 32.1896 27.2757 32.8449 27.9439 33.4951C28.6122 34.1454 29.1589 34.7995 29.1589 34.949C29.1589 35.0988 29.815 35.8643 30.6168 36.6505C31.4187 37.4367 32.0748 38.1993 32.0748 38.3454C32.0748 38.4915 33.0589 39.5854 34.2617 40.7767C35.4645 41.968 36.4486 43.0563 36.4486 43.1956C36.4486 43.5279 50.2201 57.2816 50.5527 57.2816C50.6934 57.2816 51.5633 58.0461 52.486 58.9806C53.4086 59.9151 54.2841 60.6796 54.4316 60.6796C54.5791 60.6796 55.3438 61.335 56.1308 62.1359C56.9179 62.9369 57.6857 63.5922 57.8374 63.5922C57.989 63.5922 58.533 64.0291 59.0467 64.5631C59.5604 65.0971 60.1071 65.534 60.2617 65.534C60.4162 65.534 60.963 65.9709 61.4766 66.5049C61.9903 67.0388 62.5392 67.4757 62.6964 67.4757C62.8539 67.4757 63.2891 67.8034 63.6636 68.2039C64.038 68.6044 64.4732 68.932 64.6307 68.932C64.7879 68.932 65.3368 69.3689 65.8505 69.9029C66.3641 70.4369 66.9131 70.8738 67.0703 70.8738C67.2277 70.8738 67.6629 71.2015 68.0374 71.6019C68.4118 72.0024 68.8691 72.3301 69.0531 72.3301C69.2373 72.3301 69.5456 72.5485 69.7383 72.8155C69.931 73.0825 70.2394 73.301 70.4236 73.301C70.6075 73.301 71.0648 73.6286 71.4392 74.0291C71.8137 74.4296 72.271 74.7573 72.455 74.7573C72.6391 74.7573 72.9475 74.9757 73.1402 75.2427C73.3329 75.5097 73.6609 75.7282 73.8692 75.7282C74.0774 75.7282 74.4054 75.9466 74.5981 76.2136C74.7908 76.4806 75.1189 76.699 75.3271 76.699C75.5353 76.699 75.8634 76.9175 76.0561 77.1845C76.2488 77.4515 76.5768 77.6699 76.785 77.6699C76.9933 77.6699 77.3213 77.8884 77.514 78.1553C77.7067 78.4223 78.0347 78.6408 78.243 78.6408C78.4512 78.6408 78.7793 78.8592 78.972 79.1262C79.1647 79.3932 79.4927 79.6117 79.7009 79.6117C79.9092 79.6117 80.2372 79.8301 80.4299 80.0971C80.6226 80.3641 80.9506 80.5825 81.1589 80.5825C81.3671 80.5825 81.6952 80.801 81.8878 81.068C82.0805 81.335 82.4326 81.5534 82.6705 81.5534C82.9082 81.5534 83.1028 81.6626 83.1028 81.7961C83.1028 81.9296 83.3215 82.0388 83.5888 82.0388C83.9127 82.0388 84.0748 81.8769 84.0748 81.5534C84.0748 81.2864 83.9654 81.068 83.8318 81.068C83.6981 81.068 83.5888 80.8495 83.5888 80.5825C83.5888 80.3155 83.4794 80.0971 83.3458 80.0971C83.2121 80.0971 83.1028 79.8786 83.1028 79.6117C83.1028 79.3447 82.9935 79.1262 82.8598 79.1262C82.7262 79.1262 82.6168 78.9078 82.6168 78.6408C82.6168 78.3738 82.5075 78.1553 82.3738 78.1553C82.2402 78.1553 82.1308 77.8277 82.1308 77.4272C82.1308 77.0267 82.0215 76.699 81.8878 76.699C81.7542 76.699 81.6449 76.3714 81.6449 75.9709C81.6449 75.5704 81.5355 75.2427 81.4019 75.2427C81.2682 75.2427 81.1589 74.9151 81.1589 74.5146C81.1589 74.1141 81.0495 73.7864 80.9159 73.7864C80.7822 73.7864 80.6729 73.4587 80.6729 73.0583C80.6729 72.6578 80.5635 72.3301 80.4299 72.3301C80.2963 72.3301 80.1869 72.0024 80.1869 71.6019C80.1869 71.2015 80.0776 70.8738 79.9439 70.8738C79.8103 70.8738 79.7009 70.3277 79.7009 69.6602C79.7009 68.9927 79.5916 68.4466 79.4579 68.4466C79.3243 68.4466 79.215 67.9005 79.215 67.233C79.215 66.5655 79.1056 66.0194 78.972 66.0194C78.8279 66.0194 78.729 65.1294 78.729 63.835C78.729 62.5405 78.8279 61.6505 78.972 61.6505C79.1056 61.6505 79.215 61.4789 79.215 61.2692C79.215 60.7786 79.8001 60.1942 80.2912 60.1942C80.5011 60.1942 80.6729 60.085 80.6729 59.9515C80.6729 59.8165 81.3209 59.7087 82.1308 59.7087C82.9407 59.7087 83.5888 59.8165 83.5888 59.9515C83.5888 60.085 83.7577 60.1942 83.9642 60.1942C84.6674 60.1942 85.5327 61.3262 85.5327 62.2464C85.5327 62.7197 85.6421 63.1068 85.7757 63.1068C85.9108 63.1068 86.0187 63.7541 86.0187 64.5631C86.0187 65.3721 86.1266 66.0194 86.2617 66.0194C86.3953 66.0194 86.5047 66.4563 86.5047 66.9903C86.5047 67.5243 86.614 67.9612 86.7477 67.9612C86.8813 67.9612 86.9906 68.3981 86.9906 68.932C86.9906 69.466 87.1 69.9029 87.2336 69.9029C87.3673 69.9029 87.4766 70.2306 87.4766 70.6311C87.4766 71.0316 87.586 71.3592 87.7196 71.3592C87.8533 71.3592 87.9626 71.6869 87.9626 72.0874C87.9626 72.4879 88.072 72.8155 88.2056 72.8155C88.3393 72.8155 88.4486 73.1432 88.4486 73.5437C88.4486 73.9442 88.5579 74.2719 88.6916 74.2719C88.8252 74.2719 88.9346 74.4903 88.9346 74.7573C88.9346 75.0243 89.0439 75.2427 89.1776 75.2427C89.3112 75.2427 89.4206 75.4612 89.4206 75.7282C89.4206 75.9952 89.5299 76.2136 89.6635 76.2136C89.7972 76.2136 89.9065 76.432 89.9065 76.699C89.9065 76.966 90.0159 77.1845 90.1495 77.1845C90.2832 77.1845 90.3925 77.4029 90.3925 77.6699C90.3925 77.9369 90.5019 78.1553 90.6355 78.1553C90.7692 78.1553 90.8785 78.3738 90.8785 78.6408C90.8785 78.9078 90.9878 79.1262 91.1215 79.1262C91.2551 79.1262 91.3645 79.3447 91.3645 79.6117C91.3645 79.8786 91.4738 80.0971 91.6075 80.0971C91.7411 80.0971 91.8505 80.3155 91.8505 80.5825C91.8505 80.8495 91.9598 81.068 92.0935 81.068C92.2271 81.068 92.3364 81.2425 92.3364 81.4561C92.3364 81.6694 92.6645 82.1502 93.0654 82.5243C93.4664 82.8983 93.7944 83.3551 93.7944 83.5389C93.7944 83.7228 94.0131 84.0308 94.2804 84.2233C94.5477 84.4158 94.7664 84.7199 94.7664 84.8995C94.7664 85.0789 95.3131 85.7575 95.9813 86.4078C96.6495 87.058 97.1963 87.7085 97.1963 87.8537C97.1963 88.2578 99.8091 90.7767 100.228 90.7767C100.432 90.7767 100.598 90.8859 100.598 91.0194C100.598 91.1529 100.766 91.2621 100.971 91.2621C101.454 91.2621 103.028 92.834 103.028 93.3173C103.028 93.5219 103.137 93.6893 103.271 93.6893C103.405 93.6893 103.514 94.0078 103.514 94.3973C103.514 94.7867 103.651 95.1689 103.818 95.2469C104.061 95.36 104.061 95.4168 103.818 95.5299C103.651 95.6078 103.514 96.099 103.514 96.6221C103.514 97.1449 103.405 97.5728 103.271 97.5728C103.137 97.5728 103.028 97.7415 103.028 97.9478C103.028 98.5376 101.899 99.5146 101.217 99.5146C100.876 99.5146 100.598 99.6238 100.598 99.7573C100.598 99.8908 100.161 100 99.6262 100C99.0916 100 98.6542 99.8908 98.6542 99.7573Z" fill="#F0F1F2"/>
</svg>
