<svg width="33" height="33" viewBox="0 0 33 33" fill="none" xmlns="http://www.w3.org/2000/svg">
<path d="M31.7956 22.9635H29.8285V19.056C29.8285 18.3909 29.2894 17.8516 28.6241 17.8516H17.7044V13.2482H24.6496C25.3149 13.2482 25.854 12.7089 25.854 12.0438V2.48905C25.854 1.82391 25.3149 1.28467 24.6496 1.28467H8.35036C7.68507 1.28467 7.14599 1.82391 7.14599 2.48905V12.0438C7.14599 12.7089 7.68507 13.2482 8.35036 13.2482H15.2956V17.8516H4.37591C3.71061 17.8516 3.17153 18.3909 3.17153 19.056V22.9635H1.20438C0.53908 22.9635 0 23.5027 0 24.1679V30.5109C0 31.1761 0.53908 31.7153 1.20438 31.7153H7.54745C8.21274 31.7153 8.75183 31.1761 8.75183 30.5109V24.1679C8.75183 23.5027 8.21274 22.9635 7.54745 22.9635H5.58029V20.2604H15.2956V22.9635H13.3285C12.6632 22.9635 12.1241 23.5027 12.1241 24.1679V30.5109C12.1241 31.1761 12.6632 31.7153 13.3285 31.7153H19.6715C20.3368 31.7153 20.8759 31.1761 20.8759 30.5109V24.1679C20.8759 23.5027 20.3368 22.9635 19.6715 22.9635H17.7044V20.2604H27.4197V22.9635H25.4526C24.7873 22.9635 24.2482 23.5027 24.2482 24.1679V30.5109C24.2482 31.1761 24.7873 31.7153 25.4526 31.7153H31.7956C32.4609 31.7153 33 31.1761 33 30.5109V24.1679C33 23.5027 32.4609 22.9635 31.7956 22.9635Z" fill="#F7BD29"/>
</svg>
