<svg width="34" height="14" viewBox="0 0 34 14" fill="none" xmlns="http://www.w3.org/2000/svg">
<ellipse cx="6.47039" cy="10.2758" rx="2.73504" ry="2.7233" stroke="#F7BD29" stroke-width="1.2" stroke-miterlimit="10" stroke-linecap="round" stroke-linejoin="round"/>
<ellipse cx="26.1628" cy="10.2758" rx="2.73504" ry="2.7233" stroke="#F7BD29" stroke-width="1.2" stroke-miterlimit="10" stroke-linecap="round" stroke-linejoin="round"/>
<path d="M8.65812 4.28486C8.65812 4.28486 12.2137 1.28922 18.5043 1.01689M8.65812 4.28486C8.65812 4.28486 6.19658 4.28486 4.55556 4.82952C3.99947 5.01409 3.41198 5.2612 2.87822 5.50727C1.6946 6.05293 1 7.26846 1 8.57179V8.63503C1 9.56656 1.70608 10.3464 2.63302 10.4387L3.73504 10.5485M8.65812 4.28486H26.7094L27.8034 2.87974M18.5043 1.01689C22.549 0.841789 25.9153 2.01775 27.8034 2.87974M18.5043 1.01689V10.6594M27.8034 2.87974C28.8518 3.35837 29.4444 3.7402 29.4444 3.7402L33 4.28486V8.36982V8.36982C33 9.18277 32.4792 9.90431 31.7077 10.1604L30.5385 10.5485H29.1709M18.5043 10.6594H9.20513M18.5043 10.6594H22.8803M16.3162 6.19117H15.2222M32.453 6.4635H31.359" stroke="#F7BD29" stroke-width="1.2" stroke-miterlimit="10" stroke-linecap="round" stroke-linejoin="round"/>
</svg>
