<svg width="26" height="12" viewBox="0 0 26 12" fill="none" xmlns="http://www.w3.org/2000/svg">
<path d="M9.07883 1.41377C11.0156 1.75271 12.4287 3.43455 12.4287 5.4008V6.5992C12.4287 8.56545 11.0156 10.2473 9.07882 10.5862L6.91032 10.9657C3.82551 11.5056 1.00014 9.13169 1.00014 6V6C1.00014 2.86831 3.82551 0.49444 6.91032 1.03428L9.07883 1.41377Z" stroke="#F7BD29" stroke-linecap="round" stroke-linejoin="round"/>
<path d="M12.428 7.60078H15.4756L16.6184 6.80078L17.7613 7.60078L18.9042 6.80078L20.047 7.60078L21.1899 6.80078L22.3327 7.60078H23.4756" stroke="#F7BD29" stroke-linecap="round" stroke-linejoin="round"/>
<path d="M12.428 4.40039L23.4756 4.40039" stroke="#F7BD29" stroke-linecap="round"/>
<path d="M23.4762 4.40039L25 6.00039L23.4762 7.60039" stroke="#F7BD29" stroke-linecap="round" stroke-linejoin="round"/>
<path d="M2.52441 8L2.52441 4" stroke="#F7BD29" stroke-linecap="round" stroke-linejoin="round"/>
<path d="M2.52404 4.00117C2.52404 4.00117 2.52404 3.20117 3.28595 3.20117C4.04785 3.20117 4.04785 4.00117 4.04785 4.00117L4.04785 8.00117C4.04785 8.00117 4.04785 8.80117 3.28595 8.80117C2.52404 8.80117 2.52404 8.00117 2.52404 8.00117" stroke="#F7BD29" stroke-linecap="round" stroke-linejoin="round"/>
</svg>
