<svg width="32" height="32" viewBox="0 0 32 32" fill="none" xmlns="http://www.w3.org/2000/svg">
<path d="M31.2826 25.3105L26.3407 20.3568C25.3564 19.3742 23.7263 19.4041 22.7077 20.4254L20.2179 22.9202C20.0606 22.8333 19.8978 22.7426 19.7266 22.6463C18.1544 21.7731 16.0025 20.5764 13.7381 18.3052C11.4669 16.0292 10.2718 13.8691 9.39796 12.2923C9.30575 12.1252 9.21741 11.9641 9.13016 11.8112L10.8011 10.1389L11.6227 9.3145C12.6429 8.29172 12.671 6.65841 11.689 5.67295L6.74705 0.718746C5.76502 -0.265332 4.1342 -0.235477 3.11401 0.7873L1.72122 2.19127L1.75928 2.22914C1.29225 2.8264 0.901994 3.51526 0.611575 4.25811C0.343864 4.96521 0.177188 5.63996 0.100975 6.3161C-0.551571 11.7381 1.92053 16.6934 8.62949 23.4177C17.9033 32.7119 25.3768 32.0097 25.6992 31.9755C26.4014 31.8913 27.0743 31.7232 27.7582 31.457C28.493 31.1693 29.1798 30.7787 29.7754 30.3117L29.8058 30.3387L31.2168 28.9539C32.2349 27.9313 32.2642 26.2975 31.2826 25.3105Z" fill="#494B5A"/>
</svg>
