<svg width="20" height="24" viewBox="0 0 20 24" fill="none" xmlns="http://www.w3.org/2000/svg">
<path d="M9.99986 11.7376C12.6682 11.7376 14.8316 9.11006 14.8316 5.86882C14.8316 2.62752 14.1213 0 9.99986 0C5.87837 0 5.16797 2.62752 5.16797 5.86882C5.16797 9.11006 7.33133 11.7376 9.99986 11.7376Z" fill="white"/>
<path d="M0.873998 20.6983C0.873174 20.5007 0.87235 20.6426 0.873998 20.6983V20.6983Z" fill="white"/>
<path d="M19.126 20.8527C19.1286 20.7986 19.1269 20.4773 19.126 20.8527V20.8527Z" fill="white"/>
<path d="M19.1159 20.4613C19.0264 14.815 18.289 13.2061 12.646 12.1877C12.646 12.1877 11.8517 13.1999 10.0003 13.1999C8.14883 13.1999 7.35437 12.1877 7.35437 12.1877C1.77299 13.195 0.990732 14.78 0.887875 20.2779C0.879441 20.7268 0.875532 20.7504 0.874023 20.6983C0.874366 20.7959 0.874778 20.9766 0.874778 21.2915C0.874778 21.2915 2.21823 23.9998 10.0003 23.9998C17.7822 23.9998 19.1258 21.2915 19.1258 21.2915C19.1258 21.0892 19.1259 20.9484 19.1261 20.8527C19.1246 20.885 19.1216 20.8225 19.1159 20.4613Z" fill="white"/>
</svg>
