<svg width="32" height="24" viewBox="0 0 32 24" fill="none" xmlns="http://www.w3.org/2000/svg">
<path d="M3.07137 7.39775C3.47616 7.67042 4.69637 8.48023 6.73204 9.82677C8.76778 11.1733 10.3273 12.2101 11.4106 12.9372C11.5297 13.0169 11.7825 13.1902 12.1694 13.4573C12.5563 13.7245 12.8778 13.9404 13.1336 14.1052C13.3896 14.2698 13.6991 14.4545 14.0623 14.659C14.4255 14.8633 14.7678 15.017 15.0892 15.1187C15.4107 15.2213 15.7083 15.2721 15.982 15.2721H16H16.018C16.2918 15.2721 16.5895 15.2212 16.911 15.1187C17.2323 15.017 17.5749 14.8631 17.9377 14.659C18.3007 14.4543 18.6102 14.2698 18.8662 14.1052C19.1222 13.9404 19.4435 13.7245 19.8305 13.4573C20.2173 13.19 20.4705 13.0169 20.5895 12.9372C21.6845 12.2101 24.4705 10.3634 28.9465 7.3974C29.8155 6.8181 30.5416 6.11909 31.1248 5.30086C31.7085 4.48299 32 3.62499 32 2.72736C32 1.97725 31.7171 1.33514 31.1516 0.801096C30.5861 0.266933 29.9164 0 29.1428 0H2.85702C1.94042 0 1.23503 0.295411 0.740979 0.886233C0.246993 1.47717 0 2.21582 0 3.10211C0 3.81801 0.327489 4.5938 0.982155 5.42898C1.63676 6.26423 2.33339 6.92055 3.07137 7.39775Z" fill="#494B5A"/>
<path d="M30.214 9.22143C26.3097 11.7439 23.345 13.7044 21.3215 15.1023C20.6429 15.5793 20.0925 15.9518 19.6697 16.2186C19.247 16.4857 18.6848 16.7584 17.9822 17.0367C17.28 17.3154 16.6255 17.4543 16.0182 17.4543H16H15.9821C15.375 17.4543 14.7201 17.3154 14.0179 17.0367C13.3156 16.7584 12.753 16.4857 12.3304 16.2186C11.9079 15.9518 11.3572 15.5793 10.6787 15.1023C9.07149 13.9773 6.11321 12.0168 1.80375 9.22143C1.12501 8.7899 0.52382 8.29526 0 7.73853V21.2723C0 22.0228 0.279642 22.6645 0.839237 23.1987C1.39871 23.7329 2.07145 24 2.85721 24H29.143C29.9286 24 30.6013 23.7329 31.1608 23.1987C31.7205 22.6644 32 22.0229 32 21.2723V7.73853C31.488 8.28373 30.893 8.77837 30.214 9.22143Z" fill="#494B5A"/>
</svg>
