<svg width="33" height="33" viewBox="0 0 33 33" fill="none" xmlns="http://www.w3.org/2000/svg">
<g clip-path="url(#clip0)">
<path d="M28.1863 3.73572H27.2214V27.4416C27.2214 29.0164 25.9394 30.2983 24.3646 30.2983H14.5879H6.81348V31.1771C6.81348 32.1834 7.63021 33.0001 8.63647 33.0001H18.4097H28.1829C29.1891 33.0001 30.0058 32.1834 30.0058 31.1771V5.55871C30.0059 4.55245 29.1926 3.73572 28.1863 3.73572Z" fill="#F7BD29"/>
<path d="M14.5879 29.2644H24.3611C25.3673 29.2644 26.184 28.4477 26.184 27.4415V3.73559V1.82299C26.184 0.816729 25.3673 0 24.3611 0H14.5879H11.3382V0.60307C11.345 0.6651 11.3485 0.730576 11.3485 0.796053V4.76942V5.78947C11.3485 7.20583 10.1975 8.35683 8.78115 8.35683H7.7611H3.78772C3.73603 8.35683 3.68089 8.35338 3.6292 8.34994H2.99512V27.4415C2.99512 28.4477 3.81185 29.2644 4.81811 29.2644H6.81686H14.5879ZM14.9566 23.0683H8.58472C8.10916 23.0683 7.72319 22.6823 7.72319 22.2068C7.72319 21.7312 8.10916 21.3452 8.58472 21.3452H14.96C15.4356 21.3452 15.8216 21.7312 15.8216 22.2068C15.8216 22.6823 15.4322 23.0683 14.9566 23.0683ZM21.3319 18.6711H8.58472C8.10916 18.6711 7.72319 18.2851 7.72319 17.8096C7.72319 17.334 8.10916 16.948 8.58472 16.948H21.3319C21.8075 16.948 22.1934 17.334 22.1934 17.8096C22.1934 18.2851 21.8075 18.6711 21.3319 18.6711ZM8.58472 12.2785H21.3319C21.8075 12.2785 22.1934 12.6645 22.1934 13.14C22.1934 13.6156 21.8075 14.0016 21.3319 14.0016H8.58472C8.10916 14.0016 7.72319 13.6156 7.72319 13.14C7.72319 12.6645 8.10916 12.2785 8.58472 12.2785Z" fill="#F7BD29"/>
<path d="M3.78695 7.3221H8.78036C8.7838 7.3221 8.7907 7.3221 8.79414 7.3221C9.6281 7.31521 10.3035 6.63977 10.3104 5.80581C10.3104 5.80236 10.3104 5.79547 10.3104 5.79202V0.795156C10.3104 0.333377 9.93136 0.0266724 9.53854 0.0266724C9.349 0.0266724 9.15946 0.0955947 9.00094 0.254116L3.24246 6.01258C2.76 6.49503 3.10117 7.3221 3.78695 7.3221Z" fill="#F7BD29"/>
</g>
<defs>
<clipPath id="clip0">
<rect width="33" height="33" fill="white"/>
</clipPath>
</defs>
</svg>
