<svg width="33" height="33" viewBox="0 0 33 33" fill="none" xmlns="http://www.w3.org/2000/svg">
<path d="M16.5003 16.1392C20.1693 16.1392 23.144 12.5263 23.144 8.06963C23.144 3.61284 22.1673 0 16.5003 0C10.8332 0 9.85645 3.61284 9.85645 8.06963C9.85645 12.5263 12.8311 16.1392 16.5003 16.1392Z" fill="#F7BD29"/>
<path d="M3.9515 28.4602C3.95037 28.1885 3.94924 28.3837 3.9515 28.4602V28.4602Z" fill="#F7BD29"/>
<path d="M29.0479 28.6723C29.0514 28.598 29.0491 28.1563 29.0479 28.6723V28.6723Z" fill="#F7BD29"/>
<path d="M29.0337 28.1343C28.9107 20.3706 27.8967 18.1584 20.1377 16.758C20.1377 16.758 19.0455 18.1498 16.4998 18.1498C13.954 18.1498 12.8616 16.758 12.8616 16.758C5.18726 18.1431 4.11165 20.3225 3.97022 27.8821C3.95862 28.4993 3.95325 28.5318 3.95117 28.4601C3.95164 28.5944 3.95221 28.8427 3.95221 29.2758C3.95221 29.2758 5.79945 32.9997 16.4998 32.9997C27.1999 32.9997 29.0473 29.2758 29.0473 29.2758C29.0473 28.9976 29.0475 28.8041 29.0478 28.6725C29.0457 28.7168 29.0415 28.6309 29.0337 28.1343Z" fill="#F7BD29"/>
</svg>
