<svg width="104" height="100" viewBox="0 0 104 100" fill="none" xmlns="http://www.w3.org/2000/svg">
<path fill-rule="evenodd" clip-rule="evenodd" d="M5.3458 99.7573C5.3458 99.6238 5.67384 99.5146 6.07477 99.5146C6.47571 99.5146 6.80374 99.4053 6.80374 99.2719C6.80374 99.1384 7.02244 99.0291 7.28973 99.0291C7.55701 99.0291 7.7757 98.9199 7.7757 98.7864C7.7757 98.6529 8.21309 98.5437 8.74767 98.5437C9.28225 98.5437 9.71963 98.4345 9.71963 98.301C9.71963 98.1624 10.4486 98.0583 11.4206 98.0583C12.3925 98.0583 13.1215 97.9541 13.1215 97.8155C13.1215 97.6806 13.7696 97.5728 14.5794 97.5728C15.3893 97.5728 16.0374 97.4651 16.0374 97.3301C16.0374 97.1952 16.6854 97.0874 17.4953 97.0874C18.3052 97.0874 18.9533 96.9796 18.9533 96.8447C18.9533 96.7061 19.6822 96.6019 20.6542 96.6019C21.6262 96.6019 22.3551 96.4978 22.3551 96.3592C22.3551 96.2121 23.408 96.1165 25.028 96.1165C26.6481 96.1165 27.7009 96.0209 27.7009 95.8738C27.7009 95.7177 30.1308 95.6311 34.5047 95.6311C38.8785 95.6311 41.3084 95.7177 41.3084 95.8738C41.3084 96.0073 41.8551 96.1165 42.5234 96.1165C43.1916 96.1165 43.7383 96.0073 43.7383 95.8738C43.7383 95.7403 43.957 95.6311 44.2243 95.6311C44.4916 95.6311 44.7103 95.5218 44.7103 95.3884C44.7103 95.2549 44.929 95.1456 45.1963 95.1456C45.5202 95.1456 45.6822 94.9837 45.6822 94.6602C45.6822 94.3932 45.7916 94.1748 45.9252 94.1748C46.0589 94.1748 46.1682 93.9563 46.1682 93.6893C46.1682 93.4223 46.2776 93.2039 46.4112 93.2039C46.5449 93.2039 46.6542 92.767 46.6542 92.233C46.6542 91.699 46.5449 91.2621 46.4112 91.2621C46.2776 91.2621 46.1682 91.0437 46.1682 90.7767C46.1682 90.5097 46.0589 90.2913 45.9252 90.2913C45.7916 90.2913 45.6822 90.0728 45.6822 89.8058C45.6822 89.4823 45.5202 89.3204 45.1963 89.3204C44.929 89.3204 44.7103 89.2112 44.7103 89.0777C44.7103 88.9442 44.4916 88.835 44.2243 88.835C43.957 88.835 43.7383 88.7257 43.7383 88.5922C43.7383 88.4347 40.5794 88.3495 34.7477 88.3495C28.9159 88.3495 25.757 88.4347 25.757 88.5922C25.757 88.7257 25.429 88.835 25.028 88.835C24.6271 88.835 24.2991 88.7755 24.2991 88.7027C24.2991 88.4073 25.5177 87.3786 25.8676 87.3786C26.0741 87.3786 26.243 87.2694 26.243 87.1359C26.243 87.0024 26.4376 86.8932 26.6753 86.8932C26.9132 86.8932 27.2653 86.6748 27.4579 86.4078C27.6506 86.1408 27.9787 85.9223 28.1869 85.9223C28.3952 85.9223 28.7232 85.7039 28.9159 85.4369C29.1086 85.1699 29.4366 84.9515 29.6449 84.9515C29.8531 84.9515 30.1811 84.733 30.3738 84.466C30.5665 84.199 30.8946 83.9806 31.1028 83.9806C31.311 83.9806 31.6391 83.7621 31.8318 83.4952C32.0245 83.2282 32.3525 83.0097 32.5608 83.0097C32.769 83.0097 33.097 82.7913 33.2897 82.5243C33.4824 82.2573 33.7908 82.0388 33.975 82.0388C34.1589 82.0388 34.6162 81.7112 34.9907 81.3107C35.3651 80.9102 35.8224 80.5825 36.0064 80.5825C36.1905 80.5825 36.4989 80.3641 36.6916 80.0971C36.8843 79.8301 37.1926 79.6117 37.3768 79.6117C37.5608 79.6117 38.0181 79.284 38.3925 78.8835C38.767 78.483 39.2044 78.1553 39.3645 78.1553C39.5246 78.1553 39.962 77.8277 40.3365 77.4272C40.7109 77.0267 41.1483 76.699 41.3084 76.699C41.4685 76.699 41.9059 76.3714 42.2804 75.9709C42.6548 75.5704 43.0922 75.2427 43.2523 75.2427C43.4125 75.2427 43.8499 74.9151 44.2243 74.5146C44.5987 74.1141 45.0339 73.7864 45.1914 73.7864C45.3486 73.7864 45.8975 73.3495 46.4112 72.8155C46.9249 72.2816 47.4716 71.8447 47.6262 71.8447C47.7807 71.8447 48.3274 71.4078 48.8411 70.8738C49.3548 70.3398 49.8989 69.9029 50.0505 69.9029C50.2021 69.9029 50.97 69.2476 51.757 68.4466C52.5441 67.6456 53.3088 66.9903 53.4562 66.9903C53.6037 66.9903 54.4792 66.2257 55.4019 65.2913C56.3245 64.3568 57.1944 63.5922 57.3349 63.5922C57.6675 63.5922 73.8692 47.4112 73.8692 47.0789C73.8692 46.9398 74.8533 45.8515 76.0561 44.6602C77.2589 43.4689 78.243 42.375 78.243 42.2289C78.243 42.0828 78.8991 41.3201 79.7009 40.534C80.5028 39.7478 81.1589 38.9823 81.1589 38.8325C81.1589 38.683 81.7056 38.0289 82.3738 37.3786C83.0421 36.7284 83.5888 36.0716 83.5888 35.9192C83.5888 35.7665 84.0262 35.2218 84.5607 34.7087C85.0953 34.1956 85.5327 33.6495 85.5327 33.4951C85.5327 33.3408 85.9701 32.7947 86.5047 32.2815C87.0392 31.7684 87.4766 31.2223 87.4766 31.068C87.4766 30.9136 87.914 30.3675 88.4486 29.8544C88.9832 29.3413 89.4206 28.793 89.4206 28.6359C89.4206 28.4786 89.7486 28.0439 90.1495 27.6699C90.5505 27.2959 90.8785 26.8612 90.8785 26.7039C90.8785 26.5468 91.3159 25.9985 91.8505 25.4854C92.385 24.9723 92.8224 24.4044 92.8224 24.223C92.8224 24.0417 93.0411 23.7362 93.3084 23.5437C93.5757 23.3512 93.7944 23.0456 93.7944 22.8643C93.7944 22.683 94.2318 22.115 94.7663 21.6019C95.3009 21.0888 95.7383 20.5209 95.7383 20.3395C95.7383 20.1582 95.957 19.8527 96.2243 19.6602C96.4916 19.4677 96.7103 19.116 96.7103 18.8784C96.7103 18.641 96.8196 18.4466 96.9533 18.4466C97.0869 18.4466 97.1963 18.2522 97.1963 18.0148C97.1963 17.7772 97.4149 17.4255 97.6822 17.233C97.9495 17.0405 98.1682 16.6888 98.1682 16.4512C98.1682 16.2138 98.2776 16.0194 98.4112 16.0194C98.5449 16.0194 98.6542 15.825 98.6542 15.5876C98.6542 15.35 98.8729 14.9983 99.1402 14.8058C99.4075 14.6133 99.6262 14.2617 99.6262 14.024C99.6262 13.7867 99.7355 13.5922 99.8692 13.5922C100.003 13.5922 100.112 13.3738 100.112 13.1068C100.112 12.8398 100.221 12.6214 100.355 12.6214C100.489 12.6214 100.598 12.4029 100.598 12.1359C100.598 11.8689 100.707 11.6505 100.841 11.6505C100.975 11.6505 101.084 11.432 101.084 11.165C101.084 10.8981 101.193 10.6796 101.327 10.6796C101.461 10.6796 101.57 10.4612 101.57 10.1942C101.57 9.92718 101.679 9.70873 101.813 9.70873C101.947 9.70873 102.056 9.49029 102.056 9.2233C102.056 8.95631 102.165 8.73786 102.299 8.73786C102.433 8.73786 102.542 8.41019 102.542 8.0097C102.542 7.60922 102.651 7.28155 102.785 7.28155C102.919 7.28155 103.028 7.0631 103.028 6.79611C103.028 6.52912 103.137 6.31068 103.271 6.31068C103.405 6.31068 103.514 5.983 103.514 5.58252C103.514 5.18204 103.623 4.85436 103.757 4.85436C103.891 4.85436 104 4.41747 104 3.88349C104 3.34951 103.891 2.91261 103.757 2.91261C103.623 2.91261 103.514 2.6347 103.514 2.29489C103.514 1.4995 102.499 0.485436 101.703 0.485436C101.362 0.485436 101.084 0.376206 101.084 0.242714C101.084 0.109215 100.756 -7.3458e-06 100.355 -7.31075e-06C99.9542 -7.2757e-06 99.6262 0.109215 99.6262 0.242714C99.6262 0.376206 99.3479 0.485436 99.0077 0.485436C98.2115 0.485436 97.1963 1.4995 97.1963 2.29489C97.1963 2.6347 97.0869 2.91261 96.9533 2.91261C96.8196 2.91261 96.7103 3.13107 96.7103 3.39806C96.7103 3.66505 96.6009 3.88349 96.4673 3.88349C96.3336 3.88349 96.2243 4.21116 96.2243 4.61165C96.2243 5.01213 96.1149 5.3398 95.9813 5.3398C95.8477 5.3398 95.7383 5.55825 95.7383 5.82524C95.7383 6.09223 95.629 6.31068 95.4953 6.31068C95.3617 6.31068 95.2523 6.52912 95.2523 6.79611C95.2523 7.0631 95.143 7.28155 95.0093 7.28155C94.8757 7.28155 94.7663 7.49999 94.7663 7.76698C94.7663 8.03397 94.657 8.25243 94.5234 8.25243C94.3897 8.25243 94.2804 8.47087 94.2804 8.73786C94.2804 9.00485 94.171 9.2233 94.0374 9.2233C93.9037 9.2233 93.7944 9.41773 93.7944 9.65511C93.7944 9.89273 93.5757 10.2444 93.3084 10.4369C93.0411 10.6294 92.8224 10.981 92.8224 11.2187C92.8224 11.4561 92.7131 11.6505 92.5794 11.6505C92.4458 11.6505 92.3364 11.8449 92.3364 12.0823C92.3364 12.3199 92.1178 12.6716 91.8505 12.8641C91.5832 13.0566 91.3645 13.3842 91.3645 13.5922C91.3645 13.8002 91.1458 14.1279 90.8785 14.3204C90.6112 14.5129 90.3925 14.8405 90.3925 15.0485C90.3925 15.2565 90.1738 15.5842 89.9065 15.7767C89.6392 15.9692 89.4206 16.2772 89.4206 16.4612C89.4206 16.6449 89.0925 17.1017 88.6916 17.4757C88.2906 17.8498 87.9626 18.2866 87.9626 18.4466C87.9626 18.6066 87.6346 19.0434 87.2336 19.4175C86.8327 19.7915 86.5047 20.2284 86.5047 20.3883C86.5047 20.5483 86.1766 20.9852 85.7757 21.3592C85.3748 21.7332 85.0467 22.1701 85.0467 22.3301C85.0467 22.49 84.7187 22.9269 84.3178 23.301C83.9168 23.675 83.5888 24.1097 83.5888 24.267C83.5888 24.424 83.1514 24.9723 82.6168 25.4854C82.0822 25.9985 81.6449 26.5447 81.6449 26.699C81.6449 26.8534 81.2075 27.3995 80.6729 27.9126C80.1383 28.4257 79.7009 28.9704 79.7009 29.1231C79.7009 29.2755 79.1542 29.9323 78.486 30.5825C77.8178 31.2328 77.271 31.8881 77.271 32.0388C77.271 32.1896 76.7243 32.8449 76.0561 33.4951C75.3878 34.1454 74.8411 34.7995 74.8411 34.949C74.8411 35.0988 74.185 35.8643 73.3832 36.6505C72.5813 37.4367 71.9252 38.1993 71.9252 38.3454C71.9252 38.4915 70.9411 39.5854 69.7383 40.7767C68.5355 41.968 67.5514 43.0563 67.5514 43.1956C67.5514 43.5279 53.7799 57.2816 53.4473 57.2816C53.3066 57.2816 52.4367 58.0461 51.514 58.9806C50.5914 59.9151 49.7159 60.6796 49.5684 60.6796C49.4209 60.6796 48.6562 61.335 47.8692 62.1359C47.0821 62.9369 46.3143 63.5922 46.1626 63.5922C46.011 63.5922 45.467 64.0291 44.9533 64.5631C44.4396 65.0971 43.8929 65.534 43.7383 65.534C43.5838 65.534 43.037 65.9709 42.5234 66.5049C42.0097 67.0388 41.4608 67.4757 41.3036 67.4757C41.1461 67.4757 40.7109 67.8034 40.3364 68.2039C39.962 68.6044 39.5268 68.932 39.3693 68.932C39.2121 68.932 38.6632 69.3689 38.1495 69.9029C37.6359 70.4369 37.0869 70.8738 36.9297 70.8738C36.7723 70.8738 36.3371 71.2015 35.9626 71.6019C35.5882 72.0024 35.1309 72.3301 34.9469 72.3301C34.7627 72.3301 34.4544 72.5485 34.2617 72.8155C34.069 73.0825 33.7606 73.301 33.5764 73.301C33.3925 73.301 32.9352 73.6286 32.5608 74.0291C32.1863 74.4296 31.729 74.7573 31.545 74.7573C31.3609 74.7573 31.0525 74.9757 30.8598 75.2427C30.6671 75.5097 30.3391 75.7282 30.1308 75.7282C29.9226 75.7282 29.5946 75.9466 29.4019 76.2136C29.2092 76.4806 28.8811 76.699 28.6729 76.699C28.4647 76.699 28.1366 76.9175 27.9439 77.1845C27.7512 77.4515 27.4232 77.6699 27.215 77.6699C27.0067 77.6699 26.6787 77.8884 26.486 78.1553C26.2933 78.4223 25.9653 78.6408 25.757 78.6408C25.5488 78.6408 25.2207 78.8592 25.028 79.1262C24.8353 79.3932 24.5073 79.6117 24.2991 79.6117C24.0908 79.6117 23.7628 79.8301 23.5701 80.0971C23.3774 80.3641 23.0494 80.5825 22.8411 80.5825C22.6329 80.5825 22.3048 80.801 22.1122 81.068C21.9195 81.335 21.5674 81.5534 21.3295 81.5534C21.0918 81.5534 20.8972 81.6626 20.8972 81.7961C20.8972 81.9296 20.6785 82.0388 20.4112 82.0388C20.0873 82.0388 19.9252 81.8769 19.9252 81.5534C19.9252 81.2864 20.0346 81.068 20.1682 81.068C20.3019 81.068 20.4112 80.8495 20.4112 80.5825C20.4112 80.3155 20.5206 80.0971 20.6542 80.0971C20.7879 80.0971 20.8972 79.8786 20.8972 79.6117C20.8972 79.3447 21.0065 79.1262 21.1402 79.1262C21.2738 79.1262 21.3832 78.9078 21.3832 78.6408C21.3832 78.3738 21.4925 78.1553 21.6262 78.1553C21.7598 78.1553 21.8692 77.8277 21.8692 77.4272C21.8692 77.0267 21.9785 76.699 22.1122 76.699C22.2458 76.699 22.3551 76.3714 22.3551 75.9709C22.3551 75.5704 22.4645 75.2427 22.5981 75.2427C22.7318 75.2427 22.8411 74.9151 22.8411 74.5146C22.8411 74.1141 22.9505 73.7864 23.0841 73.7864C23.2178 73.7864 23.3271 73.4587 23.3271 73.0583C23.3271 72.6578 23.4365 72.3301 23.5701 72.3301C23.7037 72.3301 23.8131 72.0024 23.8131 71.6019C23.8131 71.2015 23.9224 70.8738 24.0561 70.8738C24.1897 70.8738 24.2991 70.3277 24.2991 69.6602C24.2991 68.9927 24.4084 68.4466 24.5421 68.4466C24.6757 68.4466 24.785 67.9005 24.785 67.233C24.785 66.5655 24.8944 66.0194 25.028 66.0194C25.1721 66.0194 25.271 65.1294 25.271 63.835C25.271 62.5405 25.1721 61.6505 25.028 61.6505C24.8944 61.6505 24.785 61.4789 24.785 61.2692C24.785 60.7786 24.1999 60.1942 23.7088 60.1942C23.4989 60.1942 23.3271 60.085 23.3271 59.9515C23.3271 59.8165 22.6791 59.7087 21.8692 59.7087C21.0593 59.7087 20.4112 59.8165 20.4112 59.9515C20.4112 60.085 20.2423 60.1942 20.0358 60.1942C19.3326 60.1942 18.4673 61.3262 18.4673 62.2464C18.4673 62.7197 18.3579 63.1068 18.2243 63.1068C18.0892 63.1068 17.9813 63.7541 17.9813 64.5631C17.9813 65.3721 17.8734 66.0194 17.7383 66.0194C17.6047 66.0194 17.4953 66.4563 17.4953 66.9903C17.4953 67.5243 17.386 67.9612 17.2523 67.9612C17.1187 67.9612 17.0094 68.3981 17.0094 68.932C17.0094 69.466 16.9 69.9029 16.7664 69.9029C16.6327 69.9029 16.5234 70.2306 16.5234 70.6311C16.5234 71.0316 16.414 71.3592 16.2804 71.3592C16.1467 71.3592 16.0374 71.6869 16.0374 72.0874C16.0374 72.4879 15.928 72.8155 15.7944 72.8155C15.6607 72.8155 15.5514 73.1432 15.5514 73.5437C15.5514 73.9442 15.4421 74.2719 15.3084 74.2719C15.1748 74.2719 15.0654 74.4903 15.0654 74.7573C15.0654 75.0243 14.9561 75.2427 14.8224 75.2427C14.6888 75.2427 14.5794 75.4612 14.5794 75.7282C14.5794 75.9952 14.4701 76.2136 14.3365 76.2136C14.2028 76.2136 14.0935 76.432 14.0935 76.699C14.0935 76.966 13.9841 77.1845 13.8505 77.1845C13.7168 77.1845 13.6075 77.4029 13.6075 77.6699C13.6075 77.9369 13.4981 78.1553 13.3645 78.1553C13.2308 78.1553 13.1215 78.3738 13.1215 78.6408C13.1215 78.9078 13.0122 79.1262 12.8785 79.1262C12.7449 79.1262 12.6355 79.3447 12.6355 79.6117C12.6355 79.8786 12.5262 80.0971 12.3925 80.0971C12.2589 80.0971 12.1495 80.3155 12.1495 80.5825C12.1495 80.8495 12.0402 81.068 11.9065 81.068C11.7729 81.068 11.6636 81.2425 11.6636 81.4561C11.6636 81.6694 11.3355 82.1502 10.9346 82.5243C10.5336 82.8983 10.2056 83.3551 10.2056 83.5389C10.2056 83.7228 9.98692 84.0308 9.71963 84.2233C9.45234 84.4158 9.23365 84.7199 9.23365 84.8995C9.23365 85.0789 8.68692 85.7575 8.0187 86.4078C7.35047 87.058 6.80374 87.7085 6.80374 87.8537C6.80374 88.2578 4.19086 90.7767 3.7717 90.7767C3.56831 90.7767 3.40187 90.8859 3.40187 91.0194C3.40187 91.1529 3.23421 91.2621 3.02936 91.2621C2.54557 91.2621 0.971969 92.834 0.971969 93.3173C0.971969 93.5219 0.862625 93.6893 0.728973 93.6893C0.595329 93.6893 0.485984 94.0078 0.485984 94.3973C0.485984 94.7867 0.349182 95.1689 0.182251 95.2469C-0.0607456 95.36 -0.0607456 95.4168 0.182251 95.5299C0.349426 95.6078 0.485984 96.099 0.485985 96.6221C0.485985 97.1449 0.595329 97.5728 0.728973 97.5728C0.862625 97.5728 0.971969 97.7415 0.971969 97.9478C0.971969 98.5376 2.10139 99.5146 2.78347 99.5146C3.12366 99.5146 3.40187 99.6238 3.40187 99.7573C3.40187 99.8908 3.83926 100 4.37383 100C4.90842 100 5.3458 99.8908 5.3458 99.7573Z" fill="#F0F1F2"/>
</svg>
