<svg width="33" height="27" viewBox="0 0 33 27" fill="none" xmlns="http://www.w3.org/2000/svg">
<path d="M5.04779 0.894409C5.0469 0.894409 5.0459 0.894409 5.04501 0.894409C4.7329 0.894409 4.43934 1.01608 4.21767 1.23719C3.99356 1.46074 3.87012 1.75841 3.87012 2.0753V19.7826C3.87012 20.4319 4.40045 20.9615 5.05246 20.9631C7.80113 20.9697 12.4063 21.5426 15.5832 24.8672V6.33598C15.5832 6.11587 15.5269 5.90909 15.4208 5.73798C12.8134 1.53886 7.80269 0.900854 5.04779 0.894409Z" fill="#F7BD29"/>
<path d="M29.1299 19.7826V2.07518C29.1299 1.75829 29.0065 1.46062 28.7824 1.23707C28.5607 1.01595 28.2669 0.894287 27.9551 0.894287C27.9541 0.894287 27.9531 0.894287 27.9523 0.894287C25.1975 0.900843 20.1868 1.53884 17.5792 5.73797C17.4731 5.90908 17.417 6.11586 17.417 6.33597V24.867C20.5939 21.5425 25.199 20.9696 27.9477 20.963C28.5996 20.9614 29.1299 20.4318 29.1299 19.7826Z" fill="#F7BD29"/>
<path d="M31.8185 4.97791H30.9622V19.7825C30.9622 21.4404 29.6115 22.7923 27.951 22.7964C25.6195 22.802 21.7753 23.2579 19.0527 25.8346C23.7614 24.6817 28.7252 25.4312 31.5541 26.0759C31.9074 26.1563 32.2724 26.0732 32.5554 25.8476C32.8374 25.6226 32.9991 25.2863 32.9991 24.9253V6.15858C32.9992 5.50757 32.4695 4.97791 31.8185 4.97791Z" fill="#F7BD29"/>
<path d="M2.0369 19.7825V4.97791H1.18067C0.52978 4.97791 0 5.50757 0 6.15858V24.925C0 25.2861 0.161778 25.6223 0.443779 25.8473C0.726558 26.0728 1.09123 26.1562 1.445 26.0755C4.2739 25.4307 9.23781 24.6814 13.9463 25.8343C11.2238 23.2576 7.37958 22.8019 5.04813 22.7963C3.38779 22.7923 2.0369 21.4404 2.0369 19.7825Z" fill="#F7BD29"/>
</svg>
