<svg width="33" height="34" viewBox="0 0 33 34" fill="none" xmlns="http://www.w3.org/2000/svg">
<g clip-path="url(#clip0)">
<path d="M31.8119 28.3355L28.0275 20.22C25.9379 23.2626 22.6752 25.4292 18.8984 26.0862L22.0664 32.8796C22.4715 33.7489 23.7249 33.6909 24.0511 32.7932L25.6749 28.3328L26.0095 28.1767L30.47 29.8005C31.3651 30.1289 32.2164 29.2013 31.8119 28.3355Z" fill="#F7BD29"/>
<path d="M16.5001 0.5C9.9783 0.5 4.67188 5.8061 4.67188 12.3282C4.67188 18.8503 9.97837 24.1564 16.5001 24.1564C23.0218 24.1564 28.3282 18.8503 28.3282 12.3282C28.3282 5.8061 23.0219 0.5 16.5001 0.5ZM22.2553 11.4591L20.158 13.5037L20.6536 16.3914C20.8051 17.2731 19.8762 17.9355 19.0931 17.5248L16.5001 16.1618L13.9071 17.5248C13.1196 17.9383 12.1959 17.2681 12.3466 16.3914L12.8423 13.5036L10.7449 11.459C10.1075 10.8376 10.4612 9.75276 11.3408 9.62495L14.2397 9.20388L15.5362 6.57722C15.9285 5.77955 17.0714 5.77884 17.4642 6.57722L18.7607 9.20388L21.6597 9.62495C22.5391 9.7527 22.8928 10.8376 22.2553 11.4591Z" fill="#F7BD29"/>
<path d="M4.9731 20.22L1.18867 28.3355C0.782293 29.2054 1.64132 30.1279 2.53065 29.8003L6.99106 28.1765L7.3257 28.3326L8.94947 32.793C9.27502 33.6889 10.5283 33.7506 10.9342 32.8795L14.1022 26.0861C10.3254 25.4292 7.0628 23.2627 4.9731 20.22Z" fill="#F7BD29"/>
</g>
<defs>
<clipPath id="clip0">
<rect y="0.5" width="33" height="33" fill="white"/>
</clipPath>
</defs>
</svg>
