<svg width="33" height="34" viewBox="0 0 33 34" fill="none" xmlns="http://www.w3.org/2000/svg">
<g clip-path="url(#clip0)">
<path d="M30.8478 6.92684H28.4457C28.7626 6.42539 28.9717 5.86252 29.0313 5.26723C29.2218 3.36477 28.2198 1.65934 26.5141 0.90324C24.9462 0.208242 23.1842 0.492351 21.9155 1.6431L18.8823 4.39202C18.2916 3.74594 17.4424 3.33989 16.5 3.33989C15.5559 3.33989 14.7054 3.74723 14.1145 4.39531L11.0775 1.64277C9.80667 0.492029 8.04543 0.209015 6.47825 0.903626C4.77295 1.65979 3.77083 3.3658 3.96187 5.2682C4.02162 5.86304 4.23057 6.42565 4.54736 6.92684H2.15215C0.96351 6.92684 0 7.89041 0 9.07899V12.3073C0 12.9015 0.481787 13.3834 1.07611 13.3834H31.924C32.5182 13.3834 33.0001 12.9016 33.0001 12.3073V9.07899C33 7.89041 32.0365 6.92684 30.8478 6.92684ZM13.2717 6.56815V6.92684H8.20939C6.87186 6.92684 5.81921 5.67993 6.15328 4.28735C6.30042 3.67408 6.74309 3.1513 7.31562 2.88666C8.10182 2.52327 8.97271 2.63993 9.63303 3.2376L13.2726 6.53644C13.2724 6.54708 13.2717 6.55752 13.2717 6.56815ZM26.8959 4.98151C26.8157 6.09997 25.8054 6.92696 24.6841 6.92696H19.7283V6.56828C19.7283 6.55559 19.7275 6.54302 19.7274 6.53032C20.5518 5.78292 22.3405 4.1618 23.3106 3.28246C23.8619 2.78276 24.6333 2.5495 25.3464 2.7622C26.3698 3.06745 26.9707 3.93769 26.8959 4.98151Z" fill="#F7BD29"/>
<path d="M2.15234 15.5363V31.3189C2.15234 32.5075 3.11585 33.471 4.3045 33.471H14.348V15.5363H2.15234Z" fill="#F7BD29"/>
<path d="M18.6523 15.5363V33.471H28.6958C29.8845 33.471 30.848 32.5075 30.848 31.3189V15.5363H18.6523Z" fill="#F7BD29"/>
</g>
<defs>
<clipPath id="clip0">
<rect y="0.5" width="33" height="33" fill="white"/>
</clipPath>
</defs>
</svg>
