<svg width="18" height="19" viewBox="0 0 18 19" fill="none" xmlns="http://www.w3.org/2000/svg">
<path fill-rule="evenodd" clip-rule="evenodd" d="M9.00022 1.99695C4.58182 1.99695 1 5.57877 1 9.99717C1 14.4156 4.58182 17.9974 9.00022 17.9974C13.4186 17.9974 17.0004 14.4156 17.0004 9.99717C17.0004 5.57877 13.4186 1.99695 9.00022 1.99695ZM0 9.99717C0 5.02648 4.02954 0.996948 9.00022 0.996948C13.9709 0.996948 18.0004 5.02648 18.0004 9.99717C18.0004 14.9678 13.9709 18.9974 9.00022 18.9974C4.02954 18.9974 0 14.9678 0 9.99717ZM8.9996 4.54835C5.98956 4.54835 3.54945 6.98846 3.54945 9.9985C3.54945 13.0085 5.98956 15.4487 8.9996 15.4487C12.0096 15.4487 14.4498 13.0085 14.4498 9.9985C14.4498 6.98846 12.0096 4.54835 8.9996 4.54835ZM2.54945 9.9985C2.54945 6.43618 5.43728 3.54835 8.9996 3.54835C12.5619 3.54835 15.4498 6.43618 15.4498 9.9985C15.4498 13.5608 12.5619 16.4487 8.9996 16.4487C5.43728 16.4487 2.54945 13.5608 2.54945 9.9985ZM9.00016 6.94725C9.74576 6.94725 10.3502 7.55168 10.3502 8.29727V11.6974C10.3502 12.443 9.74576 13.0474 9.00016 13.0474C8.25457 13.0474 7.65014 12.443 7.65014 11.6974V8.29727C7.65014 7.55168 8.25457 6.94725 9.00016 6.94725ZM9.35018 8.29727C9.35018 8.10396 9.19347 7.94725 9.00016 7.94725C8.80685 7.94725 8.65014 8.10396 8.65014 8.29727V11.6974C8.65014 11.8907 8.80685 12.0474 9.00016 12.0474C9.19347 12.0474 9.35018 11.8907 9.35018 11.6974V8.29727Z" fill="#F7BD29"/>
</svg>
