<svg width="24" height="24" viewBox="0 0 24 24" fill="none" xmlns="http://www.w3.org/2000/svg">
<path d="M3.67094 2.83228C3.6703 2.83228 3.66957 2.83228 3.66892 2.83228C3.44193 2.83228 3.22843 2.92076 3.06722 3.08157C2.90423 3.24416 2.81445 3.46064 2.81445 3.69111V16.5691C2.81445 17.0414 3.20015 17.4265 3.67434 17.4277C5.67337 17.4325 9.02256 17.8491 11.333 20.267V6.78978C11.333 6.6297 11.2921 6.47932 11.215 6.35487C9.31864 3.30096 5.67451 2.83696 3.67094 2.83228Z" fill="#F7BD29"/>
<path d="M21.1845 16.5691V3.69101C21.1845 3.46055 21.0947 3.24406 20.9317 3.08148C20.7705 2.92067 20.5569 2.83218 20.3301 2.83218C20.3294 2.83218 20.3287 2.83218 20.328 2.83218C18.3245 2.83695 14.6804 3.30095 12.784 6.35486C12.7068 6.47931 12.666 6.62969 12.666 6.78977V20.2669C14.9765 17.849 18.3257 17.4324 20.3247 17.4276C20.7988 17.4264 21.1845 17.0413 21.1845 16.5691Z" fill="#F7BD29"/>
<path d="M23.1416 5.80209H22.5189V16.5691C22.5189 17.7748 21.5365 18.758 20.3289 18.761C18.6333 18.765 15.8375 19.0966 13.8574 20.9706C17.2819 20.1322 20.892 20.6772 22.9493 21.1461C23.2062 21.2046 23.4717 21.1441 23.6775 20.9801C23.8826 20.8164 24.0003 20.5718 24.0003 20.3093V6.66076C24.0003 6.18731 23.615 5.80209 23.1416 5.80209Z" fill="#F7BD29"/>
<path d="M1.48138 16.5691V5.80209H0.85867C0.385294 5.80209 0 6.18731 0 6.66076V20.3091C0 20.5717 0.117657 20.8162 0.322749 20.9798C0.528406 21.1438 0.793619 21.2045 1.05091 21.1458C3.10829 20.6769 6.71841 20.1319 10.1427 20.9704C8.16278 19.0964 5.36697 18.765 3.67137 18.7609C2.46385 18.758 1.48138 17.7748 1.48138 16.5691Z" fill="#F7BD29"/>
</svg>
