<svg width="24" height="24" viewBox="0 0 24 24" fill="none" xmlns="http://www.w3.org/2000/svg">
<g clip-path="url(#clip0)">
<path d="M20.4989 2.71689H19.7972V19.9575C19.7972 21.1029 18.8649 22.0352 17.7195 22.0352H10.6092H4.95508V22.6743C4.95508 23.4061 5.54906 24.0001 6.28089 24.0001H13.3887H20.4964C21.2283 24.0001 21.8222 23.4061 21.8222 22.6743V4.0427C21.8222 3.31087 21.2308 2.71689 20.4989 2.71689Z" fill="#F7BD29"/>
<path d="M10.6088 21.2832H17.7166C18.4484 21.2832 19.0424 20.6892 19.0424 19.9574V2.71679V1.32581C19.0424 0.593985 18.4484 0 17.7166 0H10.6088H8.2454V0.438596C8.25039 0.483709 8.25292 0.531328 8.25292 0.578947V3.46867V4.21053C8.25292 5.2406 7.41583 6.07769 6.38575 6.07769H5.6439H2.75418C2.71658 6.07769 2.67648 6.07519 2.63889 6.07268H2.17773V19.9574C2.17773 20.6892 2.77172 21.2832 3.50355 21.2832H4.95718H10.6088ZM10.877 16.7769H6.2429C5.89703 16.7769 5.61633 16.4962 5.61633 16.1504C5.61633 15.8045 5.89703 15.5238 6.2429 15.5238H10.8795C11.2254 15.5238 11.5061 15.8045 11.5061 16.1504C11.5061 16.4962 11.2228 16.7769 10.877 16.7769ZM15.5136 13.579H6.2429C5.89703 13.579 5.61633 13.2982 5.61633 12.9524C5.61633 12.6065 5.89703 12.3258 6.2429 12.3258H15.5136C15.8594 12.3258 16.1401 12.6065 16.1401 12.9524C16.1401 13.2982 15.8594 13.579 15.5136 13.579ZM6.2429 8.92982H15.5136C15.8594 8.92982 16.1401 9.21053 16.1401 9.55639C16.1401 9.90226 15.8594 10.183 15.5136 10.183H6.2429C5.89703 10.183 5.61633 9.90226 5.61633 9.55639C5.61633 9.21053 5.89703 8.92982 6.2429 8.92982Z" fill="#F7BD29"/>
<path d="M2.75361 5.32575H6.38518C6.38768 5.32575 6.3927 5.32575 6.3952 5.32575C7.00172 5.32074 7.49294 4.82951 7.49796 4.223C7.49796 4.22049 7.49796 4.21548 7.49796 4.21297V0.578886C7.49796 0.243047 7.22227 0.019989 6.93658 0.019989C6.79874 0.019989 6.66089 0.0701143 6.5456 0.185403L2.35762 4.37337C2.00674 4.72425 2.25486 5.32575 2.75361 5.32575Z" fill="#F7BD29"/>
</g>
<defs>
<clipPath id="clip0">
<rect width="24" height="24" fill="white"/>
</clipPath>
</defs>
</svg>
