<svg width="22" height="22" viewBox="0 0 22 22" fill="none" xmlns="http://www.w3.org/2000/svg">
<g clip-path="url(#clip0)">
<path d="M20.5652 4.28505H18.9638C19.1751 3.95075 19.3145 3.57551 19.3542 3.17865C19.4812 1.91034 18.8132 0.773386 17.6761 0.269319C16.6308 -0.194013 15.4562 -0.00460663 14.6103 0.762558L12.5882 2.59517C12.1944 2.16446 11.6283 1.89375 11 1.89375C10.3706 1.89375 9.80358 2.16532 9.40968 2.59737L7.385 0.762343C6.53778 -0.00482144 5.36362 -0.193497 4.31883 0.269577C3.18196 0.773686 2.51389 1.91103 2.64125 3.17929C2.68108 3.57585 2.82038 3.95092 3.03157 4.28505H1.43477C0.64234 4.28505 0 4.92743 0 5.71982V7.872C0 8.26817 0.321191 8.5894 0.717406 8.5894H21.2826C21.6788 8.5894 22 8.26821 22 7.872V5.71982C22 4.92743 21.3577 4.28505 20.5652 4.28505ZM8.84782 4.04593V4.28505H5.47293C4.58124 4.28505 3.87948 3.45378 4.10218 2.52539C4.20028 2.11655 4.49539 1.76803 4.87708 1.5916C5.40121 1.34934 5.98181 1.42711 6.42202 1.82556L8.84843 4.02479C8.8483 4.03188 8.84782 4.03884 8.84782 4.04593ZM17.9306 2.98817C17.8771 3.7338 17.2036 4.28514 16.4561 4.28514H13.1522V4.04601C13.1522 4.03755 13.1517 4.02917 13.1516 4.02071C13.7012 3.52244 14.8937 2.44169 15.5404 1.85547C15.9079 1.52233 16.4222 1.36683 16.8976 1.50862C17.5798 1.71212 17.9805 2.29229 17.9306 2.98817Z" fill="#F7BD29"/>
<path d="M1.43555 10.0242V20.546C1.43555 21.3384 2.07789 21.9807 2.87032 21.9807H9.56596V10.0242H1.43555Z" fill="#F7BD29"/>
<path d="M12.4355 10.0242V21.9807H19.1312C19.9236 21.9807 20.566 21.3384 20.566 20.546V10.0242H12.4355Z" fill="#F7BD29"/>
</g>
<defs>
<clipPath id="clip0">
<rect width="22" height="22" fill="white"/>
</clipPath>
</defs>
</svg>
