<svg width="24" height="24" viewBox="0 0 24 24" fill="none" xmlns="http://www.w3.org/2000/svg">
<path d="M23.1358 20.2439L20.3835 14.3417C18.8637 16.5545 16.4909 18.1302 13.7441 18.608L16.0481 23.5487C16.3427 24.1809 17.2543 24.1387 17.4916 23.4859L18.6725 20.2419L18.9159 20.1284L22.1598 21.3094C22.8108 21.5482 23.43 20.8736 23.1358 20.2439Z" fill="#F7BD29"/>
<path d="M11.9988 0C7.2557 0 3.39648 3.85898 3.39648 8.60231C3.39648 13.3456 7.25575 17.2046 11.9988 17.2046C16.7419 17.2046 20.6011 13.3456 20.6011 8.60231C20.6011 3.85898 16.7419 0 11.9988 0ZM16.1845 7.97025L14.6591 9.45722L15.0196 11.5574C15.1298 12.1986 14.4542 12.6803 13.8847 12.3817L11.9988 11.3904L10.113 12.3817C9.54025 12.6824 8.86853 12.195 8.97812 11.5574L9.33859 9.45717L7.81323 7.9702C7.34964 7.51823 7.60694 6.72928 8.24659 6.63633L10.3549 6.33009L11.2978 4.4198C11.5832 3.83967 12.4143 3.83916 12.7 4.4198L13.6429 6.33009L15.7512 6.63633C16.3908 6.72923 16.648 7.51823 16.1845 7.97025Z" fill="#F7BD29"/>
<path d="M3.6168 14.3417L0.864487 20.2439C0.56894 20.8765 1.19369 21.5475 1.84047 21.3092L5.08441 20.1283L5.32778 20.2418L6.50871 23.4858C6.74547 24.1373 7.65696 24.1822 7.95213 23.5487L10.2561 18.608C7.50939 18.1302 5.13658 16.5546 3.6168 14.3417Z" fill="#F7BD29"/>
</svg>
