<svg width="24" height="24" viewBox="0 0 24 24" fill="none" xmlns="http://www.w3.org/2000/svg">
<path d="M23.1241 16.7007H21.6934V13.8589C21.6934 13.3752 21.3014 12.983 20.8175 12.983H12.8759V9.63503H17.927C18.4109 9.63503 18.8029 9.24285 18.8029 8.75911V1.81021C18.8029 1.32647 18.4109 0.934296 17.927 0.934296H6.07299C5.58914 0.934296 5.19708 1.32647 5.19708 1.81021V8.75911C5.19708 9.24285 5.58914 9.63503 6.07299 9.63503H11.1241V12.983H3.18248C2.69863 12.983 2.30657 13.3752 2.30657 13.8589V16.7007H0.875912C0.392058 16.7007 0 17.0929 0 17.5766V22.1898C0 22.6735 0.392058 23.0657 0.875912 23.0657H5.48905C5.97291 23.0657 6.36496 22.6735 6.36496 22.1898V17.5766C6.36496 17.0929 5.97291 16.7007 5.48905 16.7007H4.05839V14.7348H11.1241V16.7007H9.69343C9.20958 16.7007 8.81752 17.0929 8.81752 17.5766V22.1898C8.81752 22.6735 9.20958 23.0657 9.69343 23.0657H14.3066C14.7904 23.0657 15.1825 22.6735 15.1825 22.1898V17.5766C15.1825 17.0929 14.7904 16.7007 14.3066 16.7007H12.8759V14.7348H19.9416V16.7007H18.5109C18.0271 16.7007 17.635 17.0929 17.635 17.5766V22.1898C17.635 22.6735 18.0271 23.0657 18.5109 23.0657H23.1241C23.6079 23.0657 24 22.6735 24 22.1898V17.5766C24 17.0929 23.6079 16.7007 23.1241 16.7007Z" fill="#F7BD29"/>
</svg>
