<svg width="24" height="24" viewBox="0 0 24 24" fill="none" xmlns="http://www.w3.org/2000/svg">
<path d="M11.9999 11.7376C14.6682 11.7376 16.8316 9.11006 16.8316 5.86882C16.8316 2.62752 16.1213 0 11.9999 0C7.87837 0 7.16797 2.62752 7.16797 5.86882C7.16797 9.11006 9.33133 11.7376 11.9999 11.7376Z" fill="#F7BD29"/>
<path d="M21.127 20.8526C21.1295 20.7985 21.1278 20.4773 21.127 20.8526V20.8526Z" fill="#F7BD29"/>
<path d="M21.1149 20.4613C21.0254 14.815 20.288 13.2061 14.645 12.1877C14.645 12.1877 13.8507 13.1999 11.9993 13.1999C10.1479 13.1999 9.35339 12.1877 9.35339 12.1877C3.77202 13.195 2.98976 14.78 2.8869 20.2779C2.87846 20.7268 2.87456 20.7504 2.87305 20.6983C2.87339 20.7959 2.8738 20.9765 2.8738 21.2915C2.8738 21.2915 4.21725 23.9998 11.9993 23.9998C19.7812 23.9998 21.1248 21.2915 21.1248 21.2915C21.1248 21.0891 21.1249 20.9484 21.1251 20.8527C21.1236 20.8849 21.1206 20.8225 21.1149 20.4613Z" fill="#F7BD29"/>
</svg>
