<svg width="100" height="43" viewBox="0 0 100 43" fill="none" xmlns="http://www.w3.org/2000/svg">
<g clip-path="url(#clip0)">
<path d="M64.7621 13.2557H67.9649L61.1197 23.2464H65.425V25.8988H56.1816L64.7621 13.2557Z" fill="#494B5A"/>
<path d="M82.7641 15.9101L79.998 15.9081V13.2557H88.276V15.9081L85.5517 15.9101V25.8975L82.7645 25.8995V15.9101H82.7641Z" fill="#494B5A"/>
<path d="M98.9735 13.2557H90.085V15.9081H98.9735V13.2557Z" fill="#1D2F5F"/>
<path d="M98.9735 18.2164H90.085V20.8688H98.9735V18.2164Z" fill="#494B5A"/>
<path d="M98.9735 23.2461H90.085V25.8985H98.9735V23.2461Z" fill="#494B5A"/>
<path d="M52.0451 13.2805C52.0381 13.2805 51.8765 13.5266 51.8694 13.5266L50.2779 15.8752C50.2849 15.8752 50.2916 15.8732 50.2986 15.8732C52.3666 15.8732 53.8303 17.4294 53.8303 19.4982C53.8303 21.6553 52.3662 23.2824 50.2986 23.2824C48.6438 23.2824 47.3934 22.2304 46.9531 20.7085L44.8887 23.6708C46.0924 25.1676 47.985 26.1121 50.2989 26.1121C54.3615 26.1121 57.1459 23.2118 57.143 19.4985C57.1395 15.2665 53.4856 13.2805 52.0451 13.2805Z" fill="#494B5A"/>
<path d="M74.9666 13.2557V21.2485C74.9666 22.5749 74.07 23.2821 72.6973 23.2821C71.3246 23.2821 70.428 22.5749 70.428 21.2485V16.8237L67.2354 21.4543C67.3379 24.1909 69.4667 26.1113 72.7155 26.1113C76.0097 26.1113 78.169 24.0955 78.169 21.2485V13.2557H74.9666Z" fill="#494B5A"/>
<path d="M19.7214 38.1114C8.84708 38.1114 0 29.5628 0 19.0554C0 8.54792 8.84708 0 19.7214 0C30.5957 0 39.4421 8.54826 39.4421 19.0554C39.4421 19.6481 39.4389 20.2378 39.4333 20.8227L44.8105 13.0108L48.8594 13.0224L39.818 26.1455L36.0091 26.1482C36.0091 25.0347 36.0232 24.0176 36.0379 22.8325C36.0537 21.5998 36.0696 20.3352 36.0696 19.0557C36.0696 10.3452 28.7357 3.25873 19.721 3.25873C10.7064 3.25873 3.37251 10.3448 3.37251 19.0554C3.37251 27.7659 10.7067 34.8527 19.7214 34.8527C23.3595 34.8527 26.8033 33.7225 29.679 31.5848L31.7347 34.1679C28.2646 36.7477 24.11 38.1114 19.7214 38.1114Z" fill="#F7BD29"/>
<path d="M17.2115 21.4776C16.9002 20.9473 16.7172 20.7172 16.7172 20.7172V20.6818C18.0168 20.0453 18.6752 18.5777 18.6752 17.2337C18.6752 15.3947 17.7421 14.104 16.2598 13.5557C15.6923 13.3435 15.0518 13.2552 13.7161 13.2552H9.15918V13.2556L10.6078 15.9063H12.589V15.9077H13.4413C13.9718 15.9077 14.3562 15.9606 14.6492 16.0845C15.2532 16.3144 15.4179 16.7917 15.4179 17.4286C15.4179 18.4365 14.7774 18.9848 13.7526 18.9848H12.362V18.9837H9.15918V25.8987H12.362V21.6368H13.8626L16.1867 25.8984H19.7552L17.2115 21.4776Z" fill="#494B5A"/>
<path d="M30.4598 13.2547H21.5713V15.9071H30.4598V13.2547Z" fill="#494B5A"/>
<path d="M30.4598 18.2154H21.5713V20.8678H30.4598V18.2154Z" fill="#494B5A"/>
<path d="M30.4598 23.2451H21.5713V25.8975H30.4598V23.2451Z" fill="#494B5A"/>
<path d="M73.1548 22.4355L72.2725 22.9277L76.9137 30.6951L77.796 30.2028L73.1548 22.4355Z" fill="#494B5A"/>
<path d="M78.3746 26.989L74.8096 29.93L75.1697 34.5259L96.6278 43.0002L100.001 35.5994L78.3746 26.989ZM78.9519 31.6226C78.6775 32.2673 77.9428 32.6068 77.251 32.4079C76.5596 32.2093 76.1362 31.5367 76.2715 30.852L76.4848 30.3492C76.887 29.7704 77.6772 29.5799 78.3135 29.9082C78.9498 30.2365 79.2256 30.9769 78.9515 31.6216L78.9519 31.6226ZM82.7867 35.5118L82.3159 33.3985L81.8761 33.2274L81.1836 34.8878L80.1418 34.4821L81.9442 30.1608L82.9859 30.5665L82.2204 32.4017L82.6789 32.5803L84.5951 31.1932L85.6804 31.6158L83.3942 33.2722L83.9996 35.9843L82.7867 35.5118ZM88.8754 33.83L87.1008 33.1388L86.7249 34.0398L88.144 34.5925L87.8119 35.3879L86.3929 34.8352L85.9931 35.7936L87.833 36.5102L87.4863 37.3419L84.6046 36.2196L86.4069 31.8983L89.2229 32.9948L88.8754 33.83ZM90.4867 38.5105L89.445 38.1048L89.9628 36.8633L89.7661 33.2067L90.864 33.6341L90.9635 35.6031L90.9417 36.2288L91.358 35.7779L92.8438 34.4054L93.8669 34.8036L91.0067 37.2628L90.4867 38.5105ZM96.6126 37.0778C96.1798 36.7166 95.827 36.4844 95.5576 36.3832C95.2428 36.2607 95.0397 36.3041 94.9533 36.5194C94.9055 36.6338 94.9269 36.7648 95.0158 36.9081C95.1033 37.0544 95.2248 37.2065 95.3766 37.364C95.5256 37.5202 95.6725 37.6892 95.8123 37.8665C95.9521 38.0437 96.0484 38.2562 96.099 38.4999C96.145 38.7457 96.1162 38.9973 96.0083 39.2563C95.8401 39.66 95.5678 39.922 95.1869 40.0432C94.8064 40.1648 94.383 40.1366 93.9245 39.958C93.6565 39.8535 93.4046 39.7099 93.1709 39.5313C92.9373 39.3527 92.776 39.1745 92.6847 39.002L93.0128 38.2154C93.4906 38.6432 93.8957 38.9236 94.2281 39.0567C94.5682 39.1891 94.7899 39.1355 94.8918 38.8914C94.9406 38.7739 94.9206 38.6398 94.8342 38.4904C94.7435 38.3431 94.6251 38.192 94.4765 38.0359C94.3279 37.8797 94.1859 37.7161 94.0458 37.5388C93.9059 37.3616 93.8072 37.1552 93.7559 36.9217C93.7018 36.6867 93.7278 36.4413 93.8321 36.1911C93.9945 35.8024 94.2653 35.5437 94.6423 35.4137C95.0193 35.2836 95.43 35.3071 95.8822 35.4833C96.3625 35.6703 96.7128 35.9433 96.9369 36.3004L96.6126 37.0778Z" fill="#494B5A"/>
</g>
<defs>
<clipPath id="clip0">
<rect width="100" height="43" fill="white"/>
</clipPath>
</defs>
</svg>
