<svg width="183" height="73" viewBox="0 0 183 73" fill="none" xmlns="http://www.w3.org/2000/svg">
<g clip-path="url(#clip0)">
<path d="M119.685 25.3905H125.604L112.954 44.5271H120.911V49.6076H103.828L119.685 25.3905Z" fill="#494B5A"/>
<path d="M152.954 30.4749L147.842 30.471V25.3905H163.14V30.471L158.105 30.4749V49.6051L152.954 49.609V30.4749Z" fill="#494B5A"/>
<path d="M182.911 25.3905H166.484V30.471H182.911V25.3905Z" fill="#494B5A"/>
<path d="M182.911 34.8921H166.484V39.9726H182.911V34.8921Z" fill="#494B5A"/>
<path d="M182.911 44.5278H166.484V49.6084H182.911V44.5278Z" fill="#494B5A"/>
<path d="M96.1841 25.4376C96.1711 25.4376 95.8724 25.9091 95.8594 25.9091L92.9168 30.4076C92.9304 30.4076 92.9421 30.4037 92.9551 30.4037C96.7769 30.4037 99.4825 33.3845 99.4825 37.3472C99.4825 41.479 96.7769 44.5957 92.9551 44.5957C89.8968 44.5957 87.5859 42.5799 86.7724 39.6648L82.957 45.339C85.1816 48.206 88.6787 50.015 92.9564 50.015C100.465 50.015 105.61 44.4598 105.606 37.3472C105.599 29.2417 98.8462 25.4376 96.1841 25.4376Z" fill="#494B5A"/>
<path d="M138.543 25.3905V40.7003C138.543 43.2403 136.886 44.5954 134.35 44.5954C131.814 44.5954 130.156 43.2403 130.156 40.7003V32.2248L124.256 41.0964C124.445 46.3382 128.38 50.0174 134.385 50.0174C140.473 50.0174 144.464 46.1561 144.464 40.703V25.3905H138.543Z" fill="#494B5A"/>
<path d="M36.4469 73C16.3502 73 0 56.6257 0 36.4993C0 16.373 16.3502 0 36.4469 0C56.5436 0 72.8925 16.3737 72.8925 36.4993C72.8925 37.6347 72.8871 38.7631 72.8763 39.8846L82.8145 24.9214L90.2965 24.9428L73.5872 50.0801L66.5481 50.0853C66.5481 47.9525 66.5741 46.0043 66.6013 43.7342C66.6306 41.3731 66.6598 38.9508 66.6598 36.4993C66.6598 19.8149 53.1062 6.24254 36.4469 6.24254C19.7876 6.24254 6.23335 19.8149 6.23335 36.4993C6.23335 53.1838 19.7876 66.7581 36.4475 66.7581C43.1711 66.7581 49.535 64.5934 54.8502 60.4993L58.6493 65.4472C52.2354 70.3879 44.5574 73 36.4469 73Z" fill="#F7BD29"/>
<path d="M31.8072 41.1386C31.2319 40.1222 30.8937 39.682 30.8937 39.682V39.617C33.2961 38.3977 34.5122 35.5853 34.5122 33.0122C34.5122 29.4897 32.7877 27.0174 30.0483 25.9672C29.0003 25.5608 27.8159 25.3911 25.3473 25.3911H16.9258L19.6035 30.4677H23.2643V30.471H24.8402C25.8206 30.471 26.5284 30.5724 27.0718 30.8091C28.188 31.25 28.4925 32.1643 28.4925 33.3835C28.4925 35.3142 27.3088 36.3643 25.4148 36.3643H22.8449H16.9258V49.6063H22.8449V41.4436H25.618L29.9132 49.6063H36.5082L31.8072 41.1386Z" fill="#494B5A"/>
<path d="M56.2921 25.3894H39.8652V30.4699H56.2921V25.3894Z" fill="#494B5A"/>
<path d="M56.2921 34.8907H39.8652V39.9713H56.2921V34.8907Z" fill="#494B5A"/>
<path d="M56.2921 44.5265H39.8652V49.607H56.2921V44.5265Z" fill="#494B5A"/>
<path d="M145.069 57.2231H148.008V61.866H149.217L151.703 57.2231H154.859L151.619 62.976V63.0105L155.044 69.253H151.753L149.217 64.3761H148.007V69.253H145.068L145.069 57.2231Z" fill="#494B5A"/>
<path d="M159.863 57.2231H167.389V59.7462H162.804V61.9311H166.466V64.4541H162.804V66.7248H167.624V69.2479H159.865L159.863 57.2231Z" fill="#494B5A"/>
<path d="M176.097 64.3201L172.131 57.2231H175.474L176.834 60.1162C177.224 60.9407 177.556 61.8485 177.556 61.8485H177.591C177.591 61.8485 177.925 60.9381 178.312 60.1162L179.656 57.2231H183L179.039 64.3221V69.2498H176.1L176.097 64.3201Z" fill="#494B5A"/>
</g>
<defs>
<clipPath id="clip0">
<rect width="183" height="73" fill="white"/>
</clipPath>
</defs>
</svg>
