<svg width="102" height="41" viewBox="0 0 102 41" fill="none" xmlns="http://www.w3.org/2000/svg">
<path d="M66.7096 14.1523H70.0084L62.9577 24.8186H67.3925V27.6504H57.8711L66.7096 14.1523Z" fill="#494B5A"/>
<path d="M85.2536 16.9863L82.4043 16.9841V14.1523H90.9312V16.9841L88.1246 16.9863V27.649L85.2536 27.6511V16.9863Z" fill="#494B5A"/>
<path d="M101.949 14.1523H92.793V16.9841H101.949V14.1523Z" fill="#494B5A"/>
<path d="M101.949 19.4482H92.793V22.28H101.949V19.4482Z" fill="#494B5A"/>
<path d="M101.949 24.8188H92.793V27.6506H101.949V24.8188Z" fill="#494B5A"/>
<path d="M53.6107 14.1782C53.6035 14.1782 53.437 14.441 53.4298 14.441L51.7896 16.9484C51.7972 16.9484 51.8037 16.9462 51.8109 16.9462C53.9411 16.9462 55.4492 18.6076 55.4492 20.8164C55.4492 23.1193 53.9411 24.8565 51.8109 24.8565C50.1064 24.8565 48.8183 23.7329 48.3649 22.1081L46.2383 25.2708C47.4782 26.8688 49.4274 27.8771 51.8117 27.8771C55.9968 27.8771 58.8645 24.7807 58.862 20.8164C58.8584 16.2985 55.0945 14.1782 53.6107 14.1782Z" fill="#494B5A"/>
<path d="M77.2212 14.1523V22.6857C77.2212 24.1014 76.2976 24.8567 74.884 24.8567C73.4704 24.8567 72.5465 24.1014 72.5465 22.6857V17.9616L69.2578 22.9064C69.3635 25.8281 71.5563 27.8788 74.9036 27.8788C78.2968 27.8788 80.5211 25.7266 80.5211 22.6871V14.1523H77.2212Z" fill="#494B5A"/>
<path d="M20.3146 40.6884C9.1132 40.6884 0 31.5618 0 20.3439C0 9.12592 9.1132 0 20.3146 0C31.516 0 40.6285 9.12628 40.6285 20.3439C40.6285 20.9767 40.6255 21.6056 40.6195 22.2307L46.1588 13.8906L50.3291 13.9025L41.0157 27.9135L37.0923 27.9163C37.0923 26.7275 37.1068 25.6417 37.122 24.3764C37.1383 23.0604 37.1545 21.7103 37.1545 20.3439C37.1545 11.0443 29.6001 3.47944 20.3146 3.47944C11.0291 3.47944 3.47432 11.0443 3.47432 20.3439C3.47432 29.6434 11.0291 37.2094 20.315 37.2094C24.0625 37.2094 27.6096 36.0028 30.5722 33.7209L32.6897 36.4787C29.1148 39.2325 24.8352 40.6884 20.3146 40.6884Z" fill="#494B5A"/>
<path d="M17.7281 22.9296C17.4075 22.3631 17.2189 22.1177 17.2189 22.1177V22.0815C18.558 21.4019 19.2359 19.8343 19.2359 18.4002C19.2359 16.4368 18.2746 15.0588 16.7477 14.4735C16.1636 14.2469 15.5035 14.1523 14.1275 14.1523H9.43359L10.9261 16.9819H12.9665V16.9837H13.8449C14.3914 16.9837 14.7858 17.0403 15.0888 17.1722C15.7109 17.4179 15.8806 17.9275 15.8806 18.6071C15.8806 19.6832 15.2209 20.2686 14.1652 20.2686H12.7327H9.43359V27.6493H12.7327V23.0996H14.2784L16.6725 27.6493H20.3484L17.7281 22.9296Z" fill="#494B5A"/>
<path d="M31.3766 14.1514H22.2207V16.9831H31.3766V14.1514Z" fill="#494B5A"/>
<path d="M31.3766 19.4473H22.2207V22.279H31.3766V19.4473Z" fill="#494B5A"/>
<path d="M31.3766 24.8179H22.2207V27.6496H31.3766V24.8179Z" fill="#494B5A"/>
<path d="M80.8578 31.895H82.4958V34.4829H83.17L84.5554 31.895H86.3146L84.5087 35.1015V35.1208L86.4174 38.6002H84.5833L83.1697 35.8819H82.4954V38.6002H80.8574L80.8578 31.895Z" fill="#494B5A"/>
<path d="M89.1035 31.895H93.2984V33.3013H90.7426V34.5191H92.7837V35.9254H90.7426V37.191H93.4294V38.5973H89.1046L89.1035 31.895Z" fill="#494B5A"/>
<path d="M98.1523 35.8507L95.9414 31.895H97.8049L98.5631 33.5075C98.7802 33.9671 98.9651 34.4731 98.9651 34.4731H98.9847C98.9847 34.4731 99.1711 33.9656 99.3868 33.5075L100.136 31.895H101.999L99.7917 35.8518V38.5984H98.1537L98.1523 35.8507Z" fill="#494B5A"/>
</svg>
