<svg width="48" height="30" viewBox="0 0 48 30" fill="none" xmlns="http://www.w3.org/2000/svg">
<path d="M14.8449 29.5707C23.0106 29.5707 29.6303 22.9511 29.6303 14.7853C29.6303 6.61962 23.0106 0 14.8449 0C6.67919 0 0.0595703 6.61962 0.0595703 14.7853C0.0595703 22.9511 6.67919 29.5707 14.8449 29.5707Z" fill="#EE0005"/>
<path d="M33.215 29.5707C41.3807 29.5707 48.0004 22.9511 48.0004 14.7853C48.0004 6.61962 41.3807 0 33.215 0C25.0493 0 18.4297 6.61962 18.4297 14.7853C18.4297 22.9511 25.0493 29.5707 33.215 29.5707Z" fill="#F9A000"/>
<path d="M18.4297 14.7851C18.4297 19.4798 20.6181 23.6629 24.0301 26.3713C27.442 23.6628 29.6305 19.4798 29.6305 14.7851C29.6305 10.0905 27.4421 5.90731 24.0301 3.19897C20.6182 5.90753 18.4297 10.0906 18.4297 14.7851Z" fill="#FF6300"/>
</svg>
