<svg width="32" height="32" viewBox="0 0 32 32" fill="none" xmlns="http://www.w3.org/2000/svg">
<g clip-path="url(#clip0)">
<path d="M10.8065 19.7626C10.8072 19.6977 10.7878 19.6776 10.7242 19.6803C10.6432 19.6843 10.5616 19.6856 10.4799 19.6803C10.4136 19.6756 10.3949 19.6977 10.3949 19.7653C10.3976 20.2124 10.3962 20.6582 10.3962 21.104C10.3962 21.1354 10.3962 21.1669 10.3962 21.1997C10.3808 21.189 10.3748 21.1789 10.3701 21.1669C10.1446 20.6937 9.91901 20.2204 9.69613 19.7472C9.67337 19.6977 9.64659 19.679 9.59305 19.6803C9.46654 19.6843 9.33937 19.6816 9.2122 19.6816C9.15798 19.6816 9.10377 19.6816 9.04688 19.6816C9.04688 20.3523 9.04688 21.0102 9.04688 21.6796C9.14861 21.6796 9.24634 21.6796 9.34406 21.6796C9.4545 21.6796 9.4545 21.6789 9.4545 21.5725C9.4545 21.0779 9.4545 20.5799 9.4545 20.0638C9.4719 20.0959 9.47993 20.1107 9.48729 20.1247C9.72022 20.6227 9.95315 21.1207 10.1834 21.6207C10.2041 21.6662 10.2276 21.6809 10.2751 21.6809C10.4284 21.6789 10.5823 21.6789 10.7356 21.6809C10.7865 21.6809 10.8065 21.6662 10.8059 21.6113C10.8039 21.44 10.8052 21.27 10.8052 21.0999C10.8052 20.6542 10.8039 20.2084 10.8065 19.7626Z" fill="#6B6C73"/>
<path d="M6.25529 19.6815C6.08461 19.6841 5.9146 19.6881 5.74459 19.6801C5.65959 19.6754 5.62947 19.7102 5.60671 19.7832C5.47418 20.2209 5.33563 20.6567 5.19507 21.1051C5.1857 21.0844 5.18235 21.0777 5.18035 21.071C5.05317 20.6292 4.92466 20.1888 4.79883 19.7477C4.7841 19.6962 4.76335 19.6774 4.70914 19.6788C4.60874 19.6828 4.50767 19.6801 4.40727 19.6801C4.30018 19.6801 4.19309 19.6801 4.08398 19.6801C4.08398 20.3494 4.08398 21.0087 4.08398 21.6774C4.19175 21.6774 4.29482 21.6741 4.39723 21.6787C4.46483 21.6821 4.48759 21.6607 4.48692 21.5904C4.48491 21.0998 4.48625 20.6071 4.48625 20.1152C4.48625 20.0971 4.48625 20.075 4.48625 20.0556C4.57059 20.2872 4.64354 20.5195 4.71516 20.7517C4.80485 21.0402 4.89454 21.326 4.98223 21.6152C4.99695 21.662 5.02038 21.6821 5.06924 21.6794C5.15023 21.6754 5.23189 21.6807 5.31354 21.6754C5.33429 21.6747 5.36642 21.652 5.37311 21.6332C5.50163 21.2336 5.62746 20.8361 5.75329 20.4371C5.7968 20.2999 5.84031 20.1647 5.88381 20.0288C5.88783 20.0295 5.89251 20.0308 5.89653 20.0315C5.89653 20.577 5.89653 21.1232 5.89653 21.6787C6.02103 21.6787 6.14017 21.6767 6.25931 21.6794C6.31085 21.6814 6.32691 21.662 6.32624 21.6125C6.32557 20.9913 6.32557 20.3709 6.32624 19.7497C6.32691 19.6975 6.30884 19.6801 6.25529 19.6815Z" fill="#6B6C73"/>
<path d="M8.53893 20.1835C8.4546 19.966 8.31136 19.8013 8.0878 19.7163C7.8763 19.6367 7.6601 19.622 7.43922 19.6661C7.19291 19.715 7.00282 19.8435 6.87699 20.061C6.77391 20.2404 6.72839 20.4339 6.70898 20.6393C6.72706 20.7812 6.73375 20.9252 6.76454 21.0644C6.8221 21.3241 6.97002 21.5202 7.21701 21.6326C7.44458 21.7357 7.68286 21.7565 7.92516 21.7016C8.18352 21.642 8.38766 21.5035 8.50011 21.2571C8.66008 20.9071 8.67949 20.5463 8.53893 20.1835ZM8.17147 20.6641C8.17214 20.8174 8.1621 20.9713 8.09851 21.1139C8.00481 21.3241 7.87362 21.4091 7.65876 21.4044C7.44525 21.399 7.30603 21.2906 7.23976 21.0938C7.1474 20.8181 7.14673 20.5369 7.24311 20.2639C7.3154 20.0577 7.47804 19.9566 7.69089 19.9593C7.88433 19.962 8.0443 20.0718 8.10989 20.2719C8.15072 20.3977 8.16478 20.5323 8.19021 20.6628C8.18352 20.6628 8.1775 20.6641 8.17147 20.6641Z" fill="#6B6C73"/>
<path d="M3.59564 10.355C3.50595 11.0243 3.41559 11.6909 3.3259 12.3576C3.31787 12.3569 3.31051 12.3563 3.30314 12.3563C3.27436 12.1508 3.24625 11.9453 3.21546 11.7391C3.15054 11.3021 3.08227 10.865 3.02002 10.4266C3.01132 10.3643 2.99191 10.3496 2.93234 10.3496C2.54814 10.3523 2.16528 10.3509 1.78109 10.3509C1.75565 10.3509 1.73022 10.3536 1.70411 10.355C1.60438 11.027 1.50599 11.6923 1.40827 12.3583C1.40091 12.3583 1.39421 12.3583 1.38685 12.3583C1.29716 11.6903 1.2068 11.0223 1.11644 10.353C0.740279 10.353 0.374825 10.353 0 10.353C0.00200799 10.3804 0.00066933 10.3991 0.00468531 10.4179C0.133197 11.0082 0.262377 11.5992 0.390219 12.1903C0.481918 12.6153 0.573616 13.041 0.662637 13.4667C0.675354 13.5263 0.695434 13.5517 0.764375 13.551C1.11443 13.547 1.46449 13.549 1.81388 13.549C1.89019 13.549 1.96649 13.549 2.04882 13.549C2.14788 12.8589 2.24694 12.1735 2.34466 11.4881C2.3527 11.4881 2.36006 11.4881 2.36809 11.4881C2.46648 12.1742 2.56487 12.8603 2.66393 13.549C2.70008 13.549 2.72618 13.549 2.75229 13.549C3.12912 13.549 3.50528 13.549 3.88211 13.549C4.02937 13.549 4.02937 13.549 4.06149 13.4031C4.1726 12.8917 4.28438 12.3804 4.39549 11.869C4.4825 11.4667 4.56885 11.0651 4.65519 10.6655C4.67661 10.5638 4.69669 10.4607 4.71811 10.355C4.33927 10.355 3.97114 10.355 3.59564 10.355Z" fill="#6B6C73"/>
<path d="M6.68487 12.7204C6.68487 12.5973 6.68487 12.4788 6.68487 12.353C7.06103 12.353 7.43117 12.353 7.80265 12.353C7.80265 12.0752 7.80265 11.8055 7.80265 11.527C7.42849 11.527 7.05835 11.527 6.68353 11.527C6.68353 11.4079 6.68353 11.2968 6.68353 11.1756C7.08981 11.1756 7.49141 11.1756 7.89569 11.1756C7.89702 11.1455 7.8997 11.1247 7.8997 11.1033C7.8997 10.8771 7.89769 10.6522 7.90104 10.4266C7.90171 10.3617 7.87828 10.3477 7.8167 10.3477C7.06639 10.3497 6.31607 10.349 5.56508 10.349C5.4707 10.349 5.4707 10.349 5.4707 10.4434C5.4707 11.4433 5.4707 12.4427 5.47137 13.4426C5.47137 13.4761 5.47405 13.5089 5.47673 13.5437C6.30335 13.5437 7.11726 13.5437 7.9325 13.5437C7.9325 13.2673 7.9325 12.9962 7.9325 12.7204C7.51283 12.7204 7.10119 12.7204 6.68487 12.7204Z" fill="#6B6C73"/>
<path d="M25.6574 10.3537C25.6574 10.9976 25.6574 11.6375 25.6574 12.276C25.6534 12.2767 25.646 12.278 25.6393 12.2787C25.63 12.2566 25.6199 12.2365 25.6119 12.2151C25.4024 11.6147 25.1922 11.015 24.9841 10.4139C24.9667 10.3664 24.9459 10.3477 24.8924 10.3477C24.4392 10.3503 23.9868 10.351 23.533 10.3477C23.466 10.3477 23.4479 10.3671 23.4493 10.432C23.4506 11.4434 23.4506 12.4547 23.4506 13.4667C23.4506 13.4915 23.4526 13.5176 23.456 13.5464C23.4841 13.5484 23.5055 13.5497 23.5256 13.5497C23.8154 13.5497 24.1005 13.5477 24.3897 13.5511C24.4533 13.5517 24.4693 13.537 24.4693 13.4714C24.4667 12.8724 24.468 12.2726 24.468 11.6736C24.468 11.6515 24.472 11.6301 24.4734 11.6087C24.5068 11.6616 24.5282 11.7144 24.5463 11.768C24.7438 12.3369 24.9426 12.9058 25.1373 13.4754C25.1581 13.5343 25.1869 13.5497 25.2471 13.5497C25.7023 13.5471 26.1567 13.5484 26.6132 13.5484C26.6299 13.5484 26.65 13.5457 26.6681 13.5444C26.6681 12.4781 26.6681 11.4152 26.6681 10.3537C26.3281 10.3537 25.9961 10.3537 25.6574 10.3537Z" fill="#6B6C73"/>
<path d="M18.5046 12.7225C18.1364 12.7245 17.767 12.7231 17.3982 12.7231C17.3721 12.7231 17.3473 12.7204 17.3212 12.7191C17.3212 12.5953 17.3212 12.4802 17.3212 12.3543C17.6974 12.3543 18.0648 12.3543 18.4363 12.3543C18.4363 12.0766 18.4363 11.8055 18.4363 11.527C18.0635 11.527 17.696 11.527 17.3225 11.527C17.3225 11.4086 17.3225 11.2975 17.3225 11.1756C17.7315 11.1756 18.1338 11.1756 18.5354 11.1756C18.5354 10.8952 18.5354 10.6254 18.5354 10.353C17.7275 10.353 16.9263 10.353 16.1211 10.353C16.1211 11.4193 16.1211 12.4815 16.1211 13.5444C16.1372 13.5464 16.1459 13.5484 16.1552 13.5484C16.9444 13.5484 17.7342 13.5484 18.5186 13.5497C18.5668 13.5497 18.5816 13.535 18.5802 13.4875C18.5789 13.2579 18.5762 13.0277 18.5816 12.7974C18.5829 12.7358 18.5621 12.7225 18.5046 12.7225Z" fill="#6B6C73"/>
<path d="M22.4477 12.8142C22.4242 12.6656 22.4102 12.515 22.3828 12.3677C22.3406 12.1455 22.2014 12.0103 21.9825 11.9561C21.9417 11.9461 21.9042 11.936 21.8453 11.9213C21.8841 11.9086 21.9015 11.9032 21.9182 11.8972C22.0882 11.8437 22.2409 11.7647 22.3486 11.6134C22.4678 11.4421 22.4832 11.246 22.4651 11.0485C22.441 10.7593 22.2991 10.5512 22.018 10.4468C21.8031 10.3671 21.5796 10.3524 21.3547 10.3511C20.7616 10.3477 20.1693 10.3497 19.5783 10.3497C19.5542 10.3497 19.5307 10.3497 19.502 10.3497C19.502 11.422 19.502 12.4829 19.502 13.5444C19.9102 13.5444 20.3152 13.5444 20.7282 13.5444C20.7282 13.1649 20.7282 12.7894 20.7282 12.3992C20.8333 12.4079 20.9323 12.4099 21.0267 12.426C21.1063 12.4387 21.1599 12.4929 21.178 12.5726C21.1967 12.6562 21.2094 12.7412 21.2228 12.8262C21.2616 13.0451 21.2984 13.264 21.3352 13.4829C21.344 13.5297 21.3627 13.5505 21.4162 13.5505C21.7824 13.5478 22.1505 13.5491 22.5166 13.5491C22.5367 13.5491 22.5581 13.5464 22.5675 13.5458C22.526 13.2988 22.4865 13.0565 22.4477 12.8142ZM21.1037 11.6388C20.9872 11.6964 20.8634 11.6924 20.7295 11.6837C20.7308 11.4782 20.7308 11.2801 20.7308 11.0733C20.8654 11.0686 20.9979 11.0592 21.1257 11.1134C21.2355 11.1609 21.267 11.254 21.2656 11.3651C21.2643 11.4882 21.2174 11.5833 21.1037 11.6388Z" fill="#6B6C73"/>
<path d="M30.4219 10.3813C30.4219 12.7006 30.4219 15.0138 30.4219 17.3303C30.5511 17.3303 30.6769 17.3303 30.8061 17.3303C30.8061 15.0138 30.8061 12.6979 30.8061 10.3813C30.6756 10.3813 30.5477 10.3813 30.4219 10.3813Z" fill="#6B6C73"/>
<path d="M12.4395 10.354C12.4395 10.6398 12.4395 10.9209 12.4395 11.2081C12.7032 11.2081 12.9615 11.2081 13.2286 11.2081C13.2286 11.9919 13.2286 12.7689 13.2286 13.5454C13.6509 13.5454 14.0626 13.5454 14.4876 13.5454C14.4876 12.7623 14.4876 11.9865 14.4876 11.2047C14.7527 11.2047 15.0103 11.2047 15.2701 11.2047C15.2701 10.9169 15.2701 10.6365 15.2701 10.354C14.3236 10.354 13.3825 10.354 12.4395 10.354Z" fill="#6B6C73"/>
<path d="M11.1049 11.6644C10.892 11.5861 10.6705 11.5325 10.4529 11.4676C10.3137 11.4261 10.1725 11.3886 10.0353 11.3411C9.96298 11.3157 9.92817 11.2521 9.93219 11.1751C9.93621 11.0941 9.98105 11.0339 10.0567 11.0171C10.1417 10.9977 10.2321 10.987 10.3177 10.995C10.4241 11.0051 10.4918 11.0754 10.5025 11.1758C10.5098 11.242 10.5406 11.2494 10.5962 11.2494C10.9174 11.248 11.2387 11.2487 11.5593 11.2487C11.5828 11.2487 11.6062 11.246 11.6263 11.2447C11.6316 11.234 11.6343 11.23 11.635 11.226C11.6363 11.2186 11.6363 11.2119 11.6363 11.2045C11.6283 10.8779 11.4917 10.6242 11.2019 10.4616C11.0024 10.3498 10.7836 10.3009 10.5573 10.2835C10.1993 10.2548 9.84384 10.2588 9.49846 10.3739C9.10758 10.5051 8.83516 10.7461 8.78764 11.1778C8.73944 11.6088 8.88201 11.9442 9.30302 12.1055C9.53862 12.1958 9.78561 12.2561 10.0279 12.3304C10.1564 12.3692 10.2856 12.4047 10.4108 12.4508C10.5192 12.4903 10.5727 12.58 10.5587 12.671C10.5393 12.8022 10.4349 12.8966 10.299 12.908C10.1089 12.9234 9.99779 12.8658 9.95294 12.7239C9.93688 12.6751 9.92884 12.6235 9.91613 12.5686C9.52189 12.5686 9.12766 12.5686 8.72539 12.5686C8.72271 12.5867 8.7207 12.5981 8.7207 12.6101C8.7207 12.6269 8.7207 12.6436 8.72204 12.6603C8.75752 13.0854 8.98509 13.3618 9.382 13.5077C9.62965 13.5994 9.88801 13.6275 10.1504 13.6309C10.4442 13.6349 10.7347 13.6101 11.0138 13.5124C11.3826 13.3825 11.643 13.1516 11.718 12.7514C11.8157 12.2246 11.6069 11.8478 11.1049 11.6644Z" fill="#6B6C73"/>
<path d="M18.2056 14.189C17.9994 14.193 17.7919 14.191 17.5871 14.1917C17.4024 14.1917 17.2183 14.1917 17.0249 14.1917C17.0235 14.2211 17.0209 14.2419 17.0209 14.2626C17.0209 15.2813 17.0209 16.2994 17.0195 17.3174C17.0195 17.3723 17.0322 17.3917 17.0925 17.3917C17.4533 17.3884 17.8154 17.3904 18.1775 17.3904C18.2752 17.3904 18.2752 17.3904 18.2752 17.2927C18.2752 16.3697 18.2752 15.4467 18.2752 14.5243C18.2752 14.436 18.2725 14.3469 18.2752 14.2586C18.2759 14.205 18.2591 14.1883 18.2056 14.189Z" fill="#6B6C73"/>
<path d="M12.587 21.334C12.3306 21.3367 12.0743 21.3354 11.8172 21.3354C11.7898 21.3354 11.7617 21.3327 11.7262 21.3314C11.7262 21.1787 11.7282 21.0335 11.7255 20.8869C11.7242 20.8307 11.7423 20.8133 11.7985 20.8133C12.0194 20.816 12.2396 20.8146 12.4605 20.8146C12.4926 20.8146 12.5261 20.8106 12.5622 20.8093C12.5622 20.6975 12.5622 20.5931 12.5622 20.482C12.5281 20.4793 12.4973 20.476 12.4672 20.476C12.2443 20.4753 12.0207 20.4766 11.7978 20.4746C11.7737 20.4739 11.7296 20.4519 11.7296 20.4385C11.7242 20.2999 11.7262 20.1614 11.7262 20.0121C12.0307 20.0121 12.3226 20.0121 12.6231 20.0121C12.6231 19.9284 12.6178 19.8501 12.6244 19.7718C12.6305 19.6982 12.6064 19.6774 12.5334 19.6788C12.1479 19.6815 11.7617 19.6815 11.3755 19.6788C11.3072 19.6774 11.2865 19.6955 11.2871 19.7651C11.2891 20.3722 11.2878 20.9793 11.2878 21.585C11.2878 21.6125 11.2878 21.6413 11.2878 21.6734C11.747 21.6734 12.1967 21.6734 12.6532 21.6734C12.6532 21.581 12.6499 21.492 12.6546 21.4036C12.6572 21.3508 12.6405 21.334 12.587 21.334Z" fill="#6B6C73"/>
<path d="M10.4475 14.198C10.4475 14.2589 10.4475 14.3158 10.4475 14.3727C10.4475 14.9958 10.4482 15.6196 10.4455 16.2428C10.4455 16.3158 10.4355 16.3967 10.4127 16.467C10.3826 16.5601 10.3103 16.6163 10.2086 16.6216C10.1035 16.6263 10.0185 16.5835 9.97966 16.4831C9.95355 16.4175 9.93682 16.3445 9.93682 16.2749C9.93347 15.6109 9.93414 14.947 9.93414 14.283C9.93414 14.2549 9.93414 14.2268 9.93414 14.1953C9.51314 14.1953 9.09882 14.1953 8.68049 14.1953C8.67848 14.2134 8.67647 14.2221 8.67647 14.2315C8.67647 14.9583 8.67313 15.6846 8.68116 16.4101C8.6825 16.5366 8.7173 16.6685 8.76349 16.7863C8.88798 17.1069 9.14701 17.2829 9.46361 17.3733C9.92143 17.5065 10.3846 17.5025 10.8478 17.3954C11.398 17.2675 11.7065 16.8833 11.7065 16.3238C11.7079 15.6431 11.7072 14.9624 11.7072 14.2817C11.7072 14.2535 11.7072 14.2261 11.7072 14.198C11.2828 14.198 10.8692 14.198 10.4475 14.198Z" fill="#6B6C73"/>
<path d="M25.2643 20.7131C25.1733 20.6429 25.0595 20.6007 24.9457 20.5625C24.8045 20.513 24.6552 20.4842 24.5113 20.4421C24.3272 20.3885 24.2616 20.2145 24.3674 20.0759C24.4725 19.936 24.7456 19.9126 24.862 20.0431C24.9129 20.0994 24.9377 20.1804 24.9792 20.2573C25.0983 20.2573 25.2315 20.2573 25.3687 20.2573C25.3962 20.0083 25.2328 19.7774 24.9792 19.6964C24.7817 19.6355 24.5789 19.6375 24.3774 19.681C24.2576 19.7085 24.1492 19.76 24.0535 19.8417C23.8366 20.0298 23.7529 20.5177 24.1505 20.7165C24.2342 20.7566 24.3212 20.7935 24.4096 20.8202C24.5468 20.8651 24.688 20.8939 24.8232 20.94C25.0006 21.0003 25.0354 21.2071 24.8868 21.3242C24.8433 21.3584 24.783 21.3831 24.7268 21.3945C24.4972 21.44 24.2536 21.3798 24.2549 21.0739C24.2549 21.0592 24.2201 21.0344 24.2027 21.0337C24.1217 21.0291 24.0408 21.0317 23.9584 21.0317C23.8105 21.0317 23.8078 21.0317 23.8219 21.1783C23.8433 21.4059 23.9544 21.5712 24.1699 21.6549C24.4015 21.7459 24.6418 21.7459 24.8821 21.691C25.0595 21.6509 25.2121 21.5685 25.3232 21.4179C25.4905 21.1917 25.4718 20.8678 25.2643 20.7131Z" fill="#6B6C73"/>
<path d="M27.4141 10.3813C27.4141 12.7006 27.4141 15.0138 27.4141 17.3303C27.5446 17.3303 27.6704 17.3303 27.8009 17.3303C27.8009 15.0138 27.8009 12.6979 27.8009 10.3813C27.6691 10.3813 27.5406 10.3813 27.4141 10.3813Z" fill="#6B6C73"/>
<path d="M27.1237 19.6903C27.0989 19.6876 27.0795 19.6849 27.0608 19.6849C26.6759 19.6849 26.2931 19.6849 25.9095 19.6836C25.8466 19.6836 25.8386 19.7137 25.8386 19.7673C25.8399 20.373 25.8399 20.9808 25.8399 21.5858C25.8399 21.6039 25.8346 21.6226 25.8413 21.6367C25.8493 21.6528 25.866 21.6762 25.8794 21.6762C26.0093 21.6795 26.1384 21.6782 26.2783 21.6782C26.2783 21.3897 26.2783 21.116 26.2783 20.8348C26.5434 20.8348 26.8024 20.8348 27.0742 20.8348C27.0742 20.7478 27.0742 20.6675 27.0742 20.5865C27.0742 20.4915 27.0742 20.4915 26.9784 20.4915C26.7683 20.4915 26.5574 20.4928 26.3473 20.4901C26.3212 20.4901 26.279 20.468 26.2777 20.454C26.273 20.3094 26.2743 20.1648 26.2743 20.0116C26.5655 20.0116 26.8439 20.0116 27.1237 20.0116C27.1237 19.8991 27.1237 19.796 27.1237 19.6903Z" fill="#6B6C73"/>
<path d="M28.7645 21.3354C28.5082 21.3354 28.2512 21.3334 27.9968 21.336C27.9386 21.3367 27.9232 21.3166 27.9245 21.2624C27.9285 21.1506 27.9259 21.0375 27.9259 20.9251C27.9259 20.814 27.9259 20.8146 28.0323 20.8146C28.2425 20.8146 28.4493 20.8146 28.6581 20.8146C28.6922 20.814 28.725 20.8113 28.7665 20.8093C28.7665 20.7256 28.7665 20.6473 28.7665 20.5703C28.7665 20.476 28.7665 20.476 28.6702 20.476C28.4479 20.4753 28.2244 20.4766 28.0022 20.4739C27.9774 20.4739 27.9312 20.4532 27.9312 20.4411C27.9272 20.2999 27.9285 20.16 27.9285 20.0121C28.2317 20.0121 28.5262 20.0121 28.8241 20.0121C28.8241 19.9238 28.8187 19.8448 28.8254 19.7665C28.8308 19.6955 28.806 19.6774 28.7364 19.6788C28.3502 19.6815 27.9647 19.6801 27.5791 19.6801C27.5517 19.6801 27.5243 19.6828 27.4941 19.6841C27.4941 20.3508 27.4941 21.0094 27.4941 21.6734C27.9453 21.6734 28.3951 21.6734 28.8482 21.6734C28.8482 21.5596 28.8482 21.4512 28.8482 21.3354C28.8167 21.3354 28.7906 21.3354 28.7645 21.3354Z" fill="#6B6C73"/>
<path d="M31.5817 10.3306C31.3528 10.3333 31.1634 10.5227 31.166 10.7489C31.1674 10.9765 31.3622 11.1646 31.5951 11.1626C31.8213 11.1606 32.0014 10.9752 32 10.7463C32 10.5066 31.8186 10.3279 31.5817 10.3306ZM31.585 11.1211C31.3849 11.1224 31.2216 10.9531 31.2216 10.7436C31.2216 10.5361 31.3863 10.3708 31.5904 10.3728C31.7959 10.3748 31.9445 10.5354 31.9431 10.7523C31.9438 10.9618 31.7905 11.1197 31.585 11.1211Z" fill="#6B6C73"/>
<path d="M30.7303 21.245C30.7142 21.1587 30.7042 21.0723 30.6894 20.9873C30.662 20.8267 30.577 20.7142 30.3916 20.6895C30.4284 20.6747 30.4492 20.6647 30.4686 20.6553C30.7068 20.5522 30.7744 20.3796 30.7718 20.1948C30.7691 19.9686 30.6305 19.7838 30.4177 19.7256C30.3133 19.6975 30.2008 19.6848 30.0911 19.6834C29.8347 19.6781 29.5784 19.6821 29.3227 19.6821C29.2952 19.6821 29.2678 19.6848 29.2363 19.6875C29.2363 20.3528 29.2363 21.0114 29.2363 21.6754C29.3816 21.6754 29.5228 21.6754 29.6727 21.6754C29.6727 21.4103 29.6727 21.1493 29.6727 20.8802C29.8019 20.8802 29.9237 20.8802 30.0469 20.8802C30.1982 20.8802 30.247 20.9237 30.2691 21.0736C30.2965 21.257 30.324 21.4424 30.3528 21.6258C30.3554 21.6453 30.3749 21.6767 30.3869 21.6774C30.5328 21.6807 30.6781 21.6794 30.8099 21.6794C30.7825 21.5288 30.755 21.3862 30.7303 21.245ZM30.0951 20.5415C29.9692 20.5509 29.8414 20.5469 29.7156 20.5496C29.6741 20.5509 29.662 20.5281 29.662 20.4907C29.6634 20.4197 29.662 20.3481 29.662 20.2751C29.662 20.2042 29.6634 20.1312 29.662 20.0603C29.662 20.0201 29.6761 20.0054 29.7169 20.0067C29.8401 20.0121 29.9612 20.0094 30.0844 20.0161C30.2296 20.0215 30.3106 20.1091 30.316 20.2604C30.3206 20.4077 30.2283 20.5308 30.0951 20.5415Z" fill="#6B6C73"/>
<path d="M14.9499 14.1943C14.9499 14.8376 14.9499 15.4768 14.9499 16.116C14.9432 16.1167 14.9365 16.118 14.9291 16.1193C14.9224 16.1026 14.9137 16.0872 14.9084 16.0705C14.6962 15.4661 14.4833 14.8617 14.2738 14.2566C14.2558 14.2037 14.231 14.189 14.1775 14.1897C13.7243 14.1917 13.2712 14.1917 12.818 14.189C12.7524 14.1883 12.7344 14.205 12.7344 14.2727C12.7357 15.2853 12.735 16.2954 12.735 17.3074C12.7357 17.3328 12.7377 17.3576 12.7391 17.385C13.0784 17.385 13.4104 17.385 13.7551 17.385C13.7551 16.7371 13.7551 16.0932 13.7544 15.4487C13.7611 15.448 13.7678 15.4467 13.7738 15.446C13.7859 15.4761 13.7986 15.5049 13.8093 15.535C14.0168 16.13 14.2243 16.7251 14.4305 17.3228C14.4485 17.3763 14.4726 17.3917 14.5268 17.3917C14.9827 17.3904 15.4385 17.3904 15.8936 17.3904C15.9144 17.3904 15.9358 17.387 15.9599 17.3857C15.9599 16.3188 15.9599 15.2566 15.9599 14.1943C15.6212 14.1943 15.2885 14.1943 14.9499 14.1943Z" fill="#6B6C73"/>
<path d="M31.7906 10.6076C31.7772 10.5728 31.7344 10.5293 31.7009 10.524C31.6173 10.5119 31.5296 10.5206 31.4473 10.5206C31.4473 10.6766 31.4473 10.8258 31.4473 10.9751C31.4553 10.9751 31.464 10.9758 31.4734 10.9758C31.4734 10.9055 31.4734 10.8359 31.4734 10.7703C31.557 10.7442 31.6092 10.7576 31.6407 10.8285C31.6601 10.8693 31.6849 10.9082 31.7117 10.9436C31.7244 10.9597 31.7478 10.9684 31.7652 10.9804C31.7699 10.9758 31.7739 10.9704 31.7779 10.9657C31.7364 10.9001 31.6956 10.8345 31.6521 10.7663C31.6835 10.7576 31.7083 10.7535 31.7291 10.7435C31.788 10.7161 31.8114 10.6618 31.7906 10.6076ZM31.6086 10.7228C31.4841 10.7228 31.4493 10.6719 31.4827 10.5728C31.4854 10.5641 31.4928 10.5501 31.4968 10.5507C31.5711 10.5561 31.6467 10.5601 31.719 10.5742C31.7331 10.5768 31.7465 10.6304 31.7398 10.6552C31.7324 10.6792 31.7036 10.7054 31.6789 10.7161C31.6514 10.7274 31.6173 10.7221 31.6086 10.7228Z" fill="#6B6C73"/>
<path d="M16.9701 19.6818C16.5765 19.6818 16.1829 19.6825 15.79 19.6812C15.7285 19.6812 15.7024 19.6965 15.7077 19.7621C15.7131 19.8277 15.7117 19.8913 15.7084 19.9569C15.705 20.0098 15.7244 20.0279 15.778 20.0265C15.9239 20.0232 16.0705 20.0279 16.2164 20.0245C16.2787 20.0218 16.2981 20.0399 16.2981 20.1042C16.2954 20.5894 16.2967 21.074 16.2967 21.558C16.2967 21.5841 16.2934 21.6115 16.2994 21.6363C16.3034 21.6537 16.3228 21.6778 16.3362 21.6778C16.4674 21.6804 16.5986 21.6798 16.7365 21.6798C16.7365 21.6403 16.7365 21.6115 16.7365 21.5841C16.7365 21.1135 16.7351 20.6443 16.7365 20.1738C16.7385 20.0085 16.7077 20.0272 16.8864 20.0259C17.0283 20.0245 17.1715 20.0245 17.3195 20.0245C17.3195 19.9094 17.3195 19.8023 17.3195 19.6818C17.199 19.6818 17.0839 19.6818 16.9701 19.6818Z" fill="#6B6C73"/>
<path d="M14.2922 19.693C14.2467 19.691 14.2253 19.7078 14.2072 19.7493C14.1349 19.9106 14.0586 20.0719 13.9843 20.2312C13.9308 20.3476 13.8772 20.4614 13.8197 20.5852C13.809 20.5612 13.8029 20.5491 13.7969 20.535C13.6778 20.2707 13.5593 20.0076 13.4381 19.7439C13.4281 19.7238 13.4007 19.697 13.3806 19.6964C13.23 19.693 13.0794 19.6944 12.9141 19.6944C12.9288 19.7245 12.9362 19.7446 12.9462 19.764C13.145 20.1355 13.3458 20.5043 13.5419 20.8777C13.5647 20.9199 13.5767 20.9721 13.578 21.0203C13.5814 21.2164 13.5807 21.4139 13.578 21.61C13.5774 21.6622 13.5921 21.6809 13.647 21.6796C13.7427 21.6756 13.8391 21.6756 13.9348 21.6796C13.9937 21.6823 14.0138 21.6635 14.0131 21.6033C14.0098 21.4038 14.0104 21.2044 14.0131 21.0056C14.0131 20.9735 14.0205 20.934 14.0365 20.9052C14.1932 20.606 14.3525 20.3075 14.5111 20.0103C14.5653 19.9092 14.6182 19.8075 14.6784 19.6937C14.5392 19.6937 14.416 19.6957 14.2922 19.693Z" fill="#6B6C73"/>
<path d="M25.6527 14.1976C25.6527 14.8415 25.6527 15.4794 25.6527 16.1173C25.6293 16.1012 25.6199 16.0824 25.6132 16.063C25.401 15.4606 25.1909 14.8582 24.982 14.2552C24.9666 14.211 24.9479 14.1909 24.897 14.1909C24.4372 14.1929 23.9774 14.1929 23.5169 14.1916C23.4613 14.1909 23.4473 14.2103 23.4473 14.2625C23.4486 15.2813 23.4499 16.3 23.4473 17.318C23.4473 17.3796 23.4694 17.3923 23.5269 17.3923C23.8114 17.3876 24.0958 17.3876 24.383 17.3923C24.4479 17.3923 24.468 17.3749 24.4673 17.308C24.4646 16.7223 24.466 16.138 24.466 15.5523C24.466 15.5182 24.466 15.4841 24.466 15.4493C24.4921 15.47 24.5035 15.4928 24.5128 15.5155C24.7223 16.1193 24.9325 16.723 25.1407 17.3254C25.1587 17.3763 25.1795 17.3923 25.2317 17.3923C25.6882 17.3896 26.142 17.391 26.5991 17.391C26.6192 17.391 26.64 17.391 26.6688 17.391C26.6688 16.3187 26.6688 15.2585 26.6688 14.1976C26.3287 14.1976 25.9941 14.1976 25.6527 14.1976Z" fill="#6B6C73"/>
<path d="M19.1627 21.5225C19.1406 21.3753 19.1172 21.2267 19.0957 21.0774C19.0683 20.8907 19.0201 20.7207 18.7765 20.6892C18.8173 20.6731 18.8407 20.6631 18.8642 20.6537C19.0562 20.5701 19.1687 20.4041 19.16 20.2026C19.152 19.9898 19.0589 19.8197 18.8528 19.7421C18.7417 19.7006 18.6158 19.6872 18.4953 19.6832C18.2303 19.6732 17.9626 19.6819 17.6982 19.6792C17.6339 19.6792 17.6172 19.6979 17.6172 19.7615C17.6199 20.3713 17.6185 20.983 17.6185 21.5948C17.6199 21.6196 17.6212 21.645 17.6239 21.6718C17.7745 21.6718 17.9157 21.6718 18.0643 21.6718C18.0643 21.4061 18.0643 21.1444 18.0643 20.878C18.2176 20.878 18.3635 20.8733 18.5101 20.8806C18.5743 20.8833 18.6252 20.9268 18.6406 20.9958C18.6547 21.0493 18.6627 21.1029 18.6707 21.1577C18.6955 21.3277 18.7189 21.4978 18.743 21.6718C18.901 21.6718 19.0549 21.6718 19.2095 21.6718C19.1935 21.6169 19.1707 21.5714 19.1627 21.5225ZM18.4974 20.5399C18.3628 20.554 18.2256 20.5486 18.0884 20.5473C18.0743 20.5473 18.0502 20.5185 18.0502 20.5038C18.0469 20.3432 18.0482 20.1832 18.0482 20.0205C18.2162 20.0205 18.3749 20.0078 18.5315 20.0246C18.648 20.0366 18.7082 20.145 18.7055 20.2849C18.7008 20.4155 18.6198 20.5272 18.4974 20.5399Z" fill="#6B6C73"/>
<path d="M22.4041 15.1021C22.2816 14.7246 22.042 14.4435 21.6799 14.2722C21.4356 14.1564 21.1752 14.1135 20.9075 14.1088C20.5467 14.1028 20.1987 14.157 19.8901 14.3552C19.4577 14.6289 19.2757 15.0479 19.2234 15.5365C19.1933 15.813 19.2094 16.0874 19.2797 16.3558C19.372 16.7112 19.5568 17.005 19.8694 17.2092C20.1712 17.406 20.5086 17.4675 20.862 17.4776C21.0019 17.4635 21.1451 17.4568 21.2816 17.4314C21.803 17.333 22.1879 17.0505 22.3793 16.5452C22.5587 16.0713 22.5601 15.5847 22.4041 15.1021ZM21.1404 16.4053C21.1023 16.5867 20.9891 16.6603 20.8278 16.6449C20.7341 16.6382 20.6531 16.6001 20.623 16.5104C20.5809 16.3859 20.534 16.2587 20.5273 16.1316C20.5199 15.8678 20.532 15.6021 20.5434 15.3371C20.5474 15.2581 20.5762 15.1778 20.6036 15.1021C20.6451 14.993 20.7281 14.9348 20.8452 14.9314C20.9671 14.9268 21.0574 14.975 21.1103 15.0881C21.1812 15.2413 21.1913 15.4067 21.204 15.5713C21.2094 15.6429 21.204 15.7152 21.204 15.7875C21.212 15.7882 21.2187 15.7889 21.2268 15.7895C21.1993 15.995 21.1846 16.2025 21.1404 16.4053Z" fill="#6B6C73"/>
<path d="M23.3726 19.6809C23.2856 19.6823 23.1966 19.6849 23.1075 19.6796C23.0446 19.6762 23.0252 19.6936 23.0252 19.7586C23.0279 20.2211 23.0265 20.6849 23.0265 21.1468C23.0265 21.1648 23.0252 21.1796 23.0225 21.2097C23.0091 21.1856 23.0018 21.1735 22.9951 21.1595C22.7715 20.6889 22.548 20.2184 22.3258 19.7465C22.3037 19.6977 22.2776 19.6783 22.224 19.6796C22.0687 19.6836 21.9114 19.6836 21.7575 19.6796C21.6892 19.6783 21.6738 19.6997 21.6738 19.7659C21.6752 20.3777 21.6752 20.9881 21.6752 21.5986C21.6752 21.6227 21.6752 21.6454 21.6752 21.6796C21.7863 21.6796 21.8894 21.6796 21.9904 21.6796C22.0868 21.6789 22.0868 21.6789 22.0868 21.5858C22.0868 21.0852 22.0868 20.5845 22.0868 20.0839C22.0908 20.0825 22.0955 20.0825 22.0995 20.0819C22.1571 20.2057 22.2146 20.3282 22.2722 20.452C22.4529 20.8422 22.6343 21.2331 22.8184 21.6227C22.8298 21.6481 22.8686 21.6762 22.896 21.6769C23.0573 21.6822 23.2173 21.6795 23.3779 21.6802C23.4201 21.6802 23.4382 21.6655 23.4382 21.6213C23.4368 20.9962 23.4368 20.3703 23.4382 19.7438C23.4382 19.6983 23.4221 19.6803 23.3726 19.6809Z" fill="#6B6C73"/>
<path d="M21.3019 21.6127C21.2323 21.4119 21.1627 21.2091 21.0911 21.005C20.9451 20.5847 20.7999 20.165 20.656 19.7433C20.6406 19.6951 20.6145 19.6777 20.563 19.679C20.4445 19.6831 20.3267 19.6844 20.2102 19.6777C20.1386 19.673 20.1112 19.7038 20.0884 19.7667C19.9211 20.2373 19.7524 20.7071 19.5817 21.177C19.5242 21.3383 19.4666 21.499 19.4023 21.6763C19.5295 21.6763 19.642 21.6737 19.7544 21.6777C19.8046 21.679 19.826 21.6596 19.8408 21.6134C19.8722 21.513 19.9104 21.414 19.9398 21.3142C19.9552 21.2674 19.9793 21.2466 20.0329 21.248C20.2029 21.252 20.3742 21.2493 20.5442 21.2493C20.745 21.2493 20.7437 21.2493 20.8079 21.4427C20.8327 21.5197 20.8454 21.6214 20.899 21.6623C20.9512 21.7011 21.0522 21.6757 21.1306 21.6763C21.1908 21.6777 21.251 21.677 21.3186 21.677C21.3099 21.6442 21.3059 21.6288 21.3019 21.6127ZM20.0837 20.9113C20.1774 20.6429 20.2678 20.3778 20.3668 20.0954C20.4572 20.3752 20.5436 20.6395 20.6312 20.9113C20.4458 20.9113 20.2698 20.9113 20.0837 20.9113Z" fill="#6B6C73"/>
</g>
<defs>
<clipPath id="clip0">
<rect width="32" height="32" fill="white"/>
</clipPath>
</defs>
</svg>
