<svg width="32" height="32" viewBox="0 0 32 32" fill="none" xmlns="http://www.w3.org/2000/svg">
<path d="M12.8138 11.2383L11.1875 20.782H13.7885L15.4161 11.2383H12.8138Z" fill="#6B6C73"/>
<path d="M9.0062 11.2491L6.45872 17.7576L6.18711 16.7749C5.68471 15.5908 4.25844 13.8902 2.58398 12.8185L4.91337 20.7774L7.66556 20.7727L11.7617 11.2471L9.0062 11.2491Z" fill="#6B6C73"/>
<path d="M5.19931 11.9321C5.04812 11.3507 4.60994 11.1775 4.06606 11.1567H0.033449L0 11.3467C3.13819 12.108 5.2147 13.9424 6.07635 16.148L5.19931 11.9321Z" fill="#6B6C73"/>
<path d="M20.6876 13.0678C21.5385 13.0544 22.1553 13.2404 22.6343 13.433L22.8691 13.5434L23.221 11.4749C22.7059 11.2816 21.8984 11.0742 20.8909 11.0742C18.3207 11.0742 16.5091 12.3687 16.4951 14.2238C16.4784 15.5945 17.7855 16.3598 18.773 16.8167C19.7865 17.285 20.1263 17.5827 20.1216 18.0008C20.1136 18.6397 19.3135 18.9327 18.5662 18.9327C17.5246 18.9327 16.9714 18.7889 16.1171 18.433L15.7819 18.2805L15.416 20.4165C16.0248 20.6834 17.148 20.9129 18.314 20.925C21.0482 20.925 22.825 19.6459 22.8437 17.6637C22.8551 16.5793 22.1613 15.7517 20.6581 15.0727C19.7483 14.6298 19.1917 14.3355 19.1971 13.8886C19.1971 13.4919 19.6694 13.0678 20.6876 13.0678Z" fill="#6B6C73"/>
<path d="M29.8945 11.249H27.8849C27.2607 11.249 26.7965 11.4189 26.5222 12.0411L22.6602 20.7873H25.3916C25.3916 20.7873 25.8371 19.6113 25.9382 19.3537C26.2372 19.3537 28.891 19.3577 29.269 19.3577C29.3466 19.6909 29.5861 20.7873 29.5861 20.7873H31.9991L29.8945 11.249ZM26.6867 17.4003C26.9008 16.8524 27.723 14.7331 27.723 14.7331C27.709 14.7592 27.9351 14.1812 28.0695 13.8219L28.2448 14.6448C28.2448 14.6448 28.7432 16.9233 28.8476 17.4003H26.6867Z" fill="#6B6C73"/>
</svg>
