<svg width="32" height="32" viewBox="0 0 32 32" fill="none" xmlns="http://www.w3.org/2000/svg">
<path d="M5.73529 13.0794C5.63055 12.8693 5.46486 12.696 5.25918 12.5658C5.04462 12.4344 4.79133 12.3424 4.50186 12.2878C4.20731 12.2345 3.86705 12.2104 3.47284 12.2065L1.65284 12.2078C1.46367 12.2104 1.27831 12.3576 1.23387 12.5405L0.00932634 17.8741C-0.0351102 18.0544 0.0835988 18.2055 0.272771 18.2055H1.14436C1.33353 18.2055 1.5208 18.0588 1.5627 17.8741L1.86169 16.5791C1.90169 16.3988 2.08832 16.2484 2.2794 16.2484H2.52888C3.59472 16.2471 4.41997 16.0294 5.01288 15.5932C5.60896 15.1565 5.90288 14.5795 5.90288 13.8647C5.90224 13.5517 5.85082 13.2889 5.73529 13.0794ZM3.85562 14.8219C3.59218 15.0149 3.22589 15.1114 2.7536 15.1114H2.5403C2.3505 15.1114 2.23433 14.9616 2.27559 14.7788L2.53776 13.6463C2.57458 13.4647 2.76566 13.3143 2.95293 13.3156L3.23859 13.3136C3.57186 13.3136 3.82642 13.3714 3.99655 13.4831C4.16477 13.5936 4.2492 13.7694 4.24793 14.0024C4.25301 14.3566 4.1178 14.629 3.85562 14.8219Z" fill="#6B6C73"/>
<path d="M30.5816 12.6245L30.527 12.641L30.454 12.6511L30.3645 12.6372L30.3188 12.5927L30.2978 12.5229L30.2965 12.4182V12.0303H30.5879V11.9103H30.2965V11.6685H30.1524V11.9103H30.0547V12.0303H30.1524V12.4816L30.2197 12.7051L30.4178 12.7762L30.501 12.7692L30.5892 12.7521V12.6245H30.5816Z" fill="#6B6C73"/>
<path d="M31.9329 11.9719L31.7247 11.8862L31.5711 11.9173L31.4149 12.0227L31.3241 11.9218L31.1768 11.8869L31.0353 11.918L30.9013 12.0043V11.9104H30.7598V12.7578H30.9007V12.1249L31.0194 12.0513L31.1375 12.0221L31.234 12.0392L31.2816 12.0881L31.3025 12.1694L31.3095 12.2741V12.7585H31.4511V12.2163L31.4485 12.1713L31.446 12.13L31.5666 12.0532L31.686 12.0233L31.7793 12.0405L31.8301 12.0894L31.8478 12.1713L31.8573 12.2747V12.7591H31.9995V12.2087L31.9329 11.9719Z" fill="#6B6C73"/>
<path d="M9.93911 13.842C9.61028 13.6566 9.09101 13.564 8.3813 13.564C8.03025 13.564 7.68047 13.5913 7.32688 13.6459C7.06598 13.6858 7.04058 13.6935 6.87998 13.7284C6.54861 13.8007 6.49655 14.1315 6.49655 14.1315L6.38991 14.5701C6.3296 14.8501 6.49084 14.8393 6.55813 14.8158C6.70287 14.7726 6.78349 14.7282 7.07931 14.6622C7.3618 14.5981 7.65952 14.5498 7.89567 14.553C8.24418 14.553 8.5108 14.5898 8.68854 14.6647C8.86375 14.7409 8.95135 14.8717 8.95135 15.0608L8.93612 15.184L8.81043 15.2614C8.31591 15.2925 7.95852 15.3383 7.52494 15.4011C7.10089 15.4601 6.72889 15.5636 6.41974 15.7052C6.08774 15.8512 5.84143 16.0473 5.6694 16.2968C5.50308 16.5476 5.41992 16.8516 5.41992 17.2084C5.41992 17.5442 5.54054 17.8216 5.77478 18.0362C6.01029 18.2469 6.32135 18.3498 6.69335 18.3498C6.92886 18.3485 7.11105 18.3301 7.24055 18.299L7.6627 18.1536L8.02009 17.9556L8.34892 17.7385L8.35337 17.7448L8.32036 17.8845L8.31845 17.8902V17.8914C8.2829 18.0616 8.38574 18.2012 8.55143 18.2177L8.5546 18.2215H8.56983H9.23829H9.36398L9.37541 18.2165C9.54934 18.1962 9.71249 18.0565 9.75058 17.8902L10.386 15.1396L10.419 14.9155L10.4343 14.7053C10.4368 14.3156 10.2686 14.0267 9.93911 13.842ZM8.53365 16.9348L8.3978 17.1138L8.05501 17.2909C7.89377 17.3563 7.74078 17.3893 7.59922 17.3893C7.38465 17.3893 7.21643 17.3582 7.1028 17.2947L6.93457 16.9678C6.93457 16.7907 6.9752 16.6504 7.06217 16.5425L7.43163 16.2911C7.58969 16.2378 7.78267 16.1927 8.00613 16.1616C8.20546 16.1368 8.59904 16.0918 8.65046 16.0905L8.71076 16.1965C8.6987 16.2568 8.58698 16.724 8.53365 16.9348Z" fill="#6B6C73"/>
<path d="M25.7692 13.8456C25.4385 13.6602 24.9198 13.5669 24.212 13.5669C23.861 13.5669 23.5105 13.5942 23.1582 13.6507C22.8967 13.6888 22.8707 13.697 22.7094 13.7313C22.3787 13.803 22.3273 14.135 22.3273 14.135L22.2206 14.5731C22.161 14.853 22.3184 14.8403 22.392 14.8187C22.5374 14.7756 22.6155 14.733 22.9088 14.6645C23.19 14.601 23.4902 14.554 23.727 14.5553C24.0743 14.5553 24.3409 14.5927 24.518 14.6677C24.6945 14.7438 24.7808 14.8759 24.7808 15.0631L24.7675 15.1857L24.643 15.265C24.1435 15.2948 23.7854 15.3405 23.3563 15.4034C22.9335 15.4624 22.5602 15.5653 22.2505 15.7075C21.9197 15.8541 21.6702 16.0503 21.5001 16.3004C21.3319 16.5511 21.25 16.8546 21.25 17.2081C21.25 17.5465 21.3693 17.8239 21.6068 18.0372C21.8435 18.2473 22.1514 18.3527 22.5234 18.3527C22.7577 18.3502 22.9399 18.3349 23.07 18.3013L23.4909 18.1578L23.8514 17.9598L24.1777 17.7401L24.1834 17.7471L24.1536 17.888L24.1504 17.8906L24.1517 17.8931C24.1123 18.0632 24.2158 18.2042 24.3834 18.2194L24.3847 18.2226H24.3999C24.5097 18.2226 24.8894 18.2226 25.0703 18.2226H25.1934L25.2068 18.2181C25.3788 18.1972 25.5413 18.0575 25.5775 17.8893L26.2148 15.1425L26.2485 14.9171L26.2669 14.7064C26.2675 14.3179 26.1012 14.0303 25.7692 13.8456ZM24.3669 16.9384L24.2253 17.1193L23.8857 17.2951C23.7245 17.3599 23.5709 17.3935 23.4318 17.3935C23.2103 17.3935 23.0465 17.3618 22.936 17.2983L22.7659 16.9726C22.7659 16.7949 22.8072 16.6559 22.8903 16.546C22.9748 16.4426 23.1036 16.3575 23.2636 16.2953C23.4198 16.242 23.6128 16.1988 23.8375 16.1664C24.0355 16.1417 24.4278 16.0953 24.4786 16.0947L24.5402 16.2007C24.5313 16.261 24.419 16.7263 24.3669 16.9384Z" fill="#6B6C73"/>
<path d="M21.5639 13.0991C21.4547 12.8877 21.2909 12.7169 21.084 12.5836C20.8719 12.4516 20.6206 12.3589 20.3266 12.3056C20.0378 12.2542 19.6931 12.2262 19.3014 12.2256L17.4789 12.2269C17.2891 12.23 17.1069 12.3773 17.0631 12.5582L15.8373 17.8944C15.7929 18.0753 15.9147 18.2251 16.1001 18.2251L16.973 18.2239C17.1583 18.2251 17.3481 18.0766 17.3919 17.8938L17.6871 16.5981C17.7303 16.4179 17.9176 16.2661 18.1061 16.2674H18.3556C19.4227 16.2674 20.2498 16.0478 20.8453 15.6129C21.4338 15.173 21.7315 14.5972 21.7315 13.8818C21.7283 13.5701 21.6743 13.3067 21.5639 13.0991ZM19.6842 14.8442C19.4214 15.0333 19.0545 15.1298 18.5847 15.1298H18.3676C18.1804 15.1317 18.0591 14.9794 18.101 14.7978L18.3651 13.6672C18.4038 13.4863 18.593 13.3346 18.7815 13.3365L19.064 13.3346C19.3992 13.3365 19.6506 13.3917 19.822 13.5035C19.9927 13.6152 20.0734 13.7904 20.0753 14.0227C20.0772 14.3769 19.9458 14.6499 19.6842 14.8442Z" fill="#6B6C73"/>
<path d="M29.0366 12.601C29.0766 12.4188 28.9624 12.2709 28.7751 12.2735H27.9943C27.8343 12.2735 27.6902 12.3922 27.6197 12.5382L27.5766 12.6055L27.5372 12.7781L26.446 17.7385L26.4104 17.8909L26.4117 17.8947C26.3755 18.0578 26.4758 18.181 26.6307 18.2045L26.644 18.2229H27.4547C27.6134 18.2229 27.7626 18.1023 27.8305 17.9537L27.8724 17.8902L29.0392 12.6017L29.0366 12.601Z" fill="#6B6C73"/>
<path d="M15.8619 13.6304C15.6556 13.633 14.817 13.6304 14.817 13.6304C14.6291 13.6304 14.3879 13.7822 14.2685 13.9631C14.2685 13.9631 13.0205 16.1049 12.8992 16.3201L12.7545 16.3182L12.366 13.9777C12.3228 13.7936 12.1305 13.6362 11.8912 13.6362L11.1103 13.6374C10.9224 13.6374 10.8069 13.7872 10.8494 13.9701C10.8494 13.9701 11.4424 17.3441 11.5611 18.1382C11.6163 18.5762 11.5541 18.6543 11.5541 18.6543L10.7822 19.9988C10.6679 20.1817 10.7295 20.3308 10.9167 20.3308L11.8194 20.3296C12.0073 20.3296 12.2543 20.1817 12.366 19.9982L15.8384 14.125C15.8384 14.1256 16.1723 13.6235 15.8619 13.6304Z" fill="#6B6C73"/>
</svg>
