<svg width="32" height="32" viewBox="0 0 32 32" fill="none" xmlns="http://www.w3.org/2000/svg">
<path d="M22.4221 6.41992C19.9501 6.42058 17.6969 7.35756 15.9987 8.89651C14.2992 7.35954 12.0472 6.4219 9.57793 6.4219C9.55745 6.4219 9.5363 6.4219 9.51648 6.4219C4.25803 6.45626 0 10.7341 0 15.9998C0 21.2867 4.29107 25.5771 9.57727 25.5771C12.0466 25.5771 14.2985 24.6408 15.9974 23.1025C15.6425 22.782 15.3214 22.4272 15.0181 22.0558H16.9958C16.6978 22.4212 16.3727 22.7635 16.0231 23.082H16.0218C16.0139 23.0906 16.0053 23.0959 15.9974 23.1032C17.6975 24.6428 19.9521 25.5811 22.4254 25.5804C27.7149 25.5784 32.0013 21.2887 32 15.9998C32 15.9979 32 15.9965 32 15.9952C32.0007 10.7064 27.7116 6.4186 22.4221 6.41992ZM15.1278 9.88569H16.9482C17.2165 10.2108 17.4656 10.5531 17.6916 10.9112H14.4439C14.6533 10.5689 14.8833 10.2167 15.1278 9.88569ZM13.8783 11.9169H18.244C18.3993 12.2486 18.5367 12.5916 18.657 12.9431H13.3609C13.4137 12.844 13.5987 12.4449 13.8783 11.9169ZM3.9098 18.4394L4.49063 14.7774L3.18031 18.4394H2.47791L2.38672 14.7774L1.76625 18.4394H0.782357L1.59775 13.5827H3.08582L3.13802 16.5628L4.14306 13.5827H5.75733L4.95317 18.4394H3.9098ZM7.38878 18.4315L7.42248 18.0436C7.40662 18.0456 7.09606 18.5121 6.37648 18.5121C5.99983 18.5121 5.39192 18.3066 5.39192 17.4132C5.39192 16.2774 6.31833 15.9007 7.20046 15.9007C7.33923 15.9007 7.63856 15.9258 7.63856 15.9258C7.63856 15.9258 7.67226 15.8564 7.67226 15.6688C7.67226 15.3602 7.39473 15.3179 7.01478 15.3179C6.34542 15.3179 5.90336 15.497 5.90336 15.497L6.05138 14.6182C6.05138 14.6182 6.58792 14.3935 7.28636 14.3935C7.64781 14.3935 8.68721 14.4318 8.68721 15.6232L8.28678 18.4315H7.38878ZM11.1836 17.1945C11.1836 18.5498 9.87065 18.4916 9.64136 18.4916C8.78566 18.4916 8.52135 18.3733 8.4969 18.3667L8.63302 17.4747C8.63434 17.4668 9.06253 17.63 9.53894 17.63C9.81383 17.63 10.1706 17.6029 10.1706 17.2745C10.1706 16.7829 8.89403 16.9005 8.89403 15.7329C8.89403 14.7027 9.65921 14.4014 10.4138 14.4014C10.9966 14.4014 11.3548 14.4814 11.3548 14.4814L11.2259 15.3813C11.2259 15.3813 10.6728 15.3358 10.5294 15.3358C10.1667 15.3358 9.96911 15.415 9.96911 15.6688C9.96845 16.1789 11.1836 15.9291 11.1836 17.1945ZM12.7602 17.55C12.8507 17.55 12.9532 17.519 13.0232 17.519L12.8957 18.3852C12.7933 18.4136 12.5032 18.5167 12.1312 18.5194C11.6561 18.5233 11.3184 18.2577 11.3184 17.6551C11.3184 17.2507 11.8979 13.9184 11.9204 13.8966H12.94L12.8362 14.4926H13.345L13.2148 15.4527H12.675L12.3882 17.2216C12.3664 17.3624 12.4054 17.55 12.7602 17.55ZM15.0029 14.3803C16.1222 14.3803 16.4573 15.1996 16.4573 15.8716C16.4573 16.1406 16.3225 16.8014 16.3225 16.8014H14.2503C14.2503 16.8014 14.0586 17.6174 15.1535 17.6174C15.667 17.6174 16.2366 17.3663 16.2366 17.3663L16.0568 18.3489C16.0568 18.3489 15.7278 18.5167 14.9798 18.5167C14.169 18.5167 13.2181 18.1738 13.2181 16.7333C13.2188 15.4851 13.9774 14.3803 15.0029 14.3803ZM17.7035 21.0693H14.3058C14.099 20.7389 13.906 20.3999 13.7402 20.0438H18.2618C18.0953 20.398 17.909 20.7402 17.7035 21.0693ZM17.4755 18.4467H16.4288L17.0652 14.4939H18.0147L17.9235 15.0668C17.9235 15.0668 18.2618 14.4437 18.7184 14.4437C18.8512 14.4437 18.9153 14.4569 18.9153 14.4569C18.7799 14.7331 18.6603 14.9862 18.5361 15.6397C17.8277 15.3886 17.7735 16.7584 17.4755 18.4467ZM21.4633 18.3852C21.4633 18.3852 20.9148 18.5253 20.5712 18.5253C19.3541 18.5253 18.7363 17.6855 18.7363 16.4135C18.7363 14.4953 19.8814 13.4737 21.0582 13.4737C21.5902 13.4737 22.2067 13.7235 22.2067 13.7235L22.0401 14.8038C22.0401 14.8038 21.6232 14.5124 21.1045 14.5124C20.4107 14.5124 19.7882 15.1745 19.7882 16.3778C19.7882 16.9705 20.0783 17.5229 20.8025 17.5229C21.1468 17.5229 21.6457 17.2725 21.6457 17.2725L21.4633 18.3852ZM23.9181 18.4335L23.9524 18.0429C23.9359 18.0449 23.6253 18.5114 22.9064 18.5114C22.5298 18.5114 21.9219 18.3059 21.9219 17.4126C21.9219 16.2767 22.8483 15.9001 23.7297 15.9001C23.8685 15.9001 24.1685 15.9252 24.1685 15.9252C24.1685 15.9252 24.2029 15.8564 24.2029 15.6688C24.2029 15.3602 23.9253 15.3179 23.5447 15.3179C22.8754 15.3179 22.434 15.497 22.434 15.497L22.582 14.6182C22.582 14.6182 23.1185 14.3935 23.8176 14.3935C24.1784 14.3935 25.2185 14.4318 25.2178 15.6232L24.8174 18.4315C24.8167 18.4335 23.9181 18.4335 23.9181 18.4335ZM26.0372 18.4467H24.9905L25.6268 14.4939H26.577L26.4858 15.0668C26.4858 15.0668 26.8248 14.4437 27.2814 14.4437C27.4142 14.4437 27.4777 14.4569 27.4777 14.4569C27.3429 14.7331 27.2219 14.9862 27.0984 15.6397C26.3894 15.3886 26.3352 16.7584 26.0372 18.4467ZM29.162 18.4361L29.2062 18.072C29.2062 18.072 28.8679 18.4989 28.2561 18.4989C27.4083 18.4989 26.9926 17.6802 26.9926 16.8436C26.9926 15.5498 27.771 14.4219 28.7054 14.4219C29.3067 14.4232 29.6906 14.9538 29.6906 14.9538L29.9113 13.5893L30.9335 13.5873L30.1538 18.4361H29.162ZM31.1787 18.2993C31.1516 18.3482 31.1132 18.3859 31.0643 18.415C31.0161 18.4421 30.9646 18.4559 30.9104 18.4559C30.8575 18.4559 30.8066 18.4421 30.7577 18.415C30.7088 18.3859 30.6705 18.3482 30.6434 18.2993C30.6157 18.2498 30.6025 18.1996 30.6025 18.146C30.6025 18.0918 30.6163 18.0403 30.6434 17.9914C30.6705 17.9425 30.7108 17.9029 30.7591 17.8764C30.8093 17.8493 30.8588 17.8355 30.9104 17.8355C30.9632 17.8355 31.0135 17.8493 31.0624 17.8764C31.1126 17.9035 31.1509 17.9412 31.1787 17.9914C31.2071 18.041 31.2196 18.0925 31.2196 18.146C31.2196 18.1996 31.2064 18.2504 31.1787 18.2993Z" fill="#6B6C73"/>
<path d="M31.0971 21.222C31.0905 21.2174 31.0845 21.2101 31.074 21.2061C31.0634 21.2022 31.0469 21.2002 31.0211 21.2002H30.959V21.2993H31.0251C31.0561 21.2993 31.0766 21.2967 31.0885 21.2854C31.0997 21.2762 31.105 21.265 31.105 21.2491C31.105 21.2385 31.1024 21.2313 31.0971 21.222Z" fill="#6B6C73"/>
<path d="M31.3099 21.1628C31.2815 21.1112 31.2425 21.0749 31.193 21.0478C31.1434 21.0207 31.0932 21.0068 31.0417 21.0068C30.9888 21.0068 30.9386 21.0207 30.8897 21.0478C30.8408 21.0749 30.8005 21.1126 30.7734 21.1628C30.745 21.2117 30.7324 21.2632 30.7324 21.3161C30.7324 21.3689 30.7463 21.4211 30.7734 21.4694C30.8018 21.5183 30.8401 21.5579 30.8884 21.585C30.9373 21.6121 30.9888 21.626 31.043 21.626C31.0959 21.626 31.1474 21.6121 31.1956 21.585C31.2439 21.5579 31.2828 21.5183 31.3099 21.4694C31.3377 21.4211 31.3509 21.3696 31.3509 21.3161C31.3509 21.2626 31.337 21.211 31.3099 21.1628ZM31.1196 21.4879L31.0906 21.4357C31.0674 21.3947 31.0483 21.3676 31.0337 21.357C31.0245 21.3504 31.0099 21.3452 30.9914 21.3452H30.9604V21.4872H30.9062V21.1535H31.0212C31.0608 21.1535 31.0892 21.1568 31.1051 21.1634C31.1229 21.17 31.1381 21.1793 31.1474 21.1958C31.158 21.211 31.1626 21.2275 31.1626 21.2447C31.1626 21.2692 31.1533 21.2896 31.1368 21.3088C31.1196 21.326 31.0958 21.3372 31.0674 21.3392C31.0793 21.3432 31.0886 21.3498 31.0959 21.357C31.1097 21.3703 31.1256 21.3921 31.1454 21.4225L31.1864 21.4879H31.1196Z" fill="#6B6C73"/>
<path d="M7.28342 16.6587C6.53608 16.6587 6.38477 16.9944 6.38477 17.2739C6.38477 17.4179 6.46736 17.6584 6.78387 17.6584C7.39773 17.6584 7.52526 16.8536 7.50544 16.6825C7.47637 16.6765 7.45786 16.6594 7.28342 16.6587Z" fill="#6B6C73"/>
<path d="M15.0065 15.293C14.4508 15.293 14.3438 15.9253 14.3438 15.9921H15.4757C15.4757 15.9412 15.582 15.293 15.0065 15.293Z" fill="#6B6C73"/>
<path d="M28.881 15.4033C28.4323 15.4033 28.0775 15.924 28.0781 16.715C28.0781 17.1973 28.2499 17.5066 28.6173 17.5066C29.1697 17.5066 29.436 16.7857 29.436 16.2485C29.436 15.6557 29.2477 15.4033 28.881 15.4033Z" fill="#6B6C73"/>
<path d="M31.1327 18.0179C31.1096 17.9769 31.0772 17.9452 31.0363 17.9221C30.9953 17.8989 30.9537 17.8877 30.91 17.8877C30.8678 17.8877 30.8248 17.8996 30.7838 17.9221C30.7429 17.9432 30.7105 17.9762 30.6874 18.0179C30.6642 18.0595 30.6523 18.1038 30.6523 18.1467C30.6523 18.191 30.6642 18.2346 30.686 18.2749C30.7105 18.3159 30.7415 18.3469 30.7825 18.3714C30.8235 18.3938 30.8658 18.4071 30.91 18.4071C30.9543 18.4071 30.9979 18.3938 31.0376 18.3714C31.0785 18.3483 31.1103 18.3165 31.134 18.2749C31.1572 18.2339 31.1677 18.191 31.1677 18.1467C31.1677 18.1031 31.1559 18.0595 31.1327 18.0179ZM30.9893 18.3165L30.9596 18.265C30.9365 18.2234 30.918 18.1969 30.9041 18.187C30.8929 18.1784 30.8796 18.1745 30.8605 18.1745H30.8301V18.3159H30.7746V17.9828H30.8902C30.9292 17.9828 30.9583 17.9862 30.9748 17.9934C30.9913 17.9994 31.0059 18.0106 31.0171 18.0251C31.0283 18.0397 31.0323 18.0562 31.0323 18.074C31.0323 18.0985 31.023 18.119 31.0059 18.1375C30.9887 18.1566 30.9649 18.1646 30.9371 18.1679C30.9504 18.1732 30.9589 18.1791 30.9655 18.185C30.9794 18.1989 30.9953 18.2187 31.0144 18.2505L31.0554 18.3165H30.9893Z" fill="#6B6C73"/>
<path d="M23.8127 16.6587C23.0654 16.6587 22.9141 16.9944 22.9141 17.2739C22.9141 17.4179 22.996 17.6584 23.3132 17.6584C23.927 17.6584 24.0539 16.8536 24.0347 16.6825C24.005 16.6765 23.9865 16.6594 23.8127 16.6587Z" fill="#6B6C73"/>
<path d="M30.9669 18.051C30.9616 18.0444 30.9543 18.0391 30.9444 18.0344C30.9332 18.0311 30.9166 18.0278 30.8902 18.0278V18.0285H30.8301V18.1289H30.8955C30.9265 18.1289 30.947 18.125 30.9596 18.1151C30.9695 18.1051 30.9754 18.0926 30.9754 18.078C30.9754 18.0668 30.9728 18.0602 30.9669 18.051Z" fill="#6B6C73"/>
</svg>
