<svg width="48" height="48" viewBox="0 0 48 48" fill="none" xmlns="http://www.w3.org/2000/svg">
<path d="M8.60293 19.6194C8.44582 19.3042 8.19729 19.0443 7.88877 18.8491C7.56693 18.652 7.18699 18.5139 6.75279 18.432C6.31096 18.352 5.80058 18.3158 5.20925 18.3101L2.47926 18.312C2.1955 18.3158 1.91746 18.5367 1.8508 18.811L0.0139895 26.8115C-0.0526653 27.0819 0.125398 27.3085 0.409157 27.3085H1.71654C2.0003 27.3085 2.2812 27.0885 2.34405 26.8115L2.79254 24.8689C2.85253 24.5985 3.13248 24.3728 3.4191 24.3728H3.79331C5.39208 24.3709 6.62995 24.0443 7.51932 23.3902C8.41344 22.735 8.85432 21.8695 8.85432 20.7973C8.85336 20.3279 8.77623 19.9336 8.60293 19.6194ZM5.78344 22.2332C5.38827 22.5227 4.83884 22.6674 4.1304 22.6674H3.81045C3.52574 22.6674 3.35149 22.4427 3.41338 22.1685L3.80665 20.4697C3.86187 20.1974 4.14849 19.9717 4.42939 19.9736L4.85789 19.9708C5.3578 19.9708 5.73963 20.0574 5.99483 20.225C6.24716 20.3907 6.37381 20.6545 6.3719 21.0039C6.37952 21.5353 6.1767 21.9438 5.78344 22.2332Z" fill="#002D8A"/>
<path d="M45.8724 18.9366L45.7905 18.9614L45.681 18.9766L45.5467 18.9556L45.4782 18.889L45.4467 18.7842L45.4448 18.6271V18.0453H45.8819V17.8654H45.4448V17.5026H45.2287V17.8654H45.082V18.0453H45.2287V18.7223L45.3296 19.0575L45.6267 19.1642L45.7514 19.1537L45.8838 19.128V18.9366H45.8724Z" fill="#0199E4"/>
<path d="M47.8993 17.9578L47.587 17.8293L47.3566 17.8759L47.1223 18.034L46.9862 17.8826L46.7653 17.8302L46.5529 17.8769L46.352 18.0064V17.8655H46.1396V19.1367H46.351V18.1873L46.5291 18.0769L46.7062 18.0331L46.851 18.0588L46.9224 18.1321L46.9538 18.254L46.9643 18.4111V19.1376H47.1766V18.3244L47.1728 18.2568L47.169 18.1949L47.3499 18.0797L47.5289 18.035L47.6689 18.0607L47.7451 18.134L47.7717 18.2568L47.786 18.412V19.1386H47.9993V18.313L47.8993 17.9578Z" fill="#0199E4"/>
<path d="M14.9077 20.7629C14.4145 20.4848 13.6355 20.3458 12.571 20.3458C12.0444 20.3458 11.5197 20.3868 10.9893 20.4687C10.598 20.5286 10.5599 20.5401 10.319 20.5924C9.82194 20.701 9.74386 21.1971 9.74386 21.1971L9.58388 21.8551C9.49342 22.275 9.73529 22.2588 9.83622 22.2236C10.0533 22.1588 10.1743 22.0922 10.618 21.9931C11.0417 21.897 11.4883 21.8246 11.8425 21.8294C12.3653 21.8294 12.7652 21.8846 13.0318 21.997C13.2947 22.1112 13.4261 22.3074 13.4261 22.5911L13.4032 22.7759L13.2147 22.892C12.4729 22.9387 11.9368 23.0073 11.2864 23.1015C10.6504 23.1901 10.0924 23.3453 9.62864 23.5576C9.13063 23.7766 8.76117 24.0709 8.50313 24.4451C8.25365 24.8212 8.12891 25.2773 8.12891 25.8125C8.12891 26.3162 8.30983 26.7323 8.66119 27.0541C9.01446 27.3703 9.48105 27.5245 10.039 27.5245C10.3923 27.5226 10.6656 27.495 10.8598 27.4484L11.4931 27.2303L12.0292 26.9332L12.5224 26.6076L12.5291 26.6171L12.4796 26.8266L12.4767 26.8351V26.837C12.4234 27.0922 12.5776 27.3017 12.8262 27.3265L12.8309 27.3322H12.8538H13.8565H14.045L14.0621 27.3246C14.323 27.2941 14.5678 27.0846 14.6249 26.8351L15.5781 22.7092L15.6276 22.3731L15.6504 22.0579C15.6542 21.4732 15.4019 21.04 14.9077 20.7629ZM12.7995 25.4021L12.5957 25.6706L12.0815 25.9363C11.8397 26.0343 11.6102 26.0838 11.3978 26.0838C11.076 26.0838 10.8237 26.0372 10.6532 25.942L10.4009 25.4516C10.4009 25.1859 10.4618 24.9755 10.5923 24.8136L11.1465 24.4365C11.3836 24.3565 11.673 24.2889 12.0082 24.2423C12.3072 24.2051 12.8976 24.1375 12.9747 24.1356L13.0652 24.2946C13.0471 24.3851 12.8795 25.0859 12.7995 25.4021Z" fill="#002D8A"/>
<path d="M38.6538 20.7687C38.1577 20.4906 37.3797 20.3506 36.318 20.3506C35.7914 20.3506 35.2658 20.3916 34.7373 20.4763C34.345 20.5335 34.306 20.5459 34.0641 20.5973C33.568 20.7049 33.4909 21.2029 33.4909 21.2029L33.3309 21.8599C33.2414 22.2798 33.4776 22.2608 33.588 22.2284C33.8061 22.1637 33.9232 22.0999 34.3631 21.997C34.785 21.9018 35.2354 21.8313 35.5905 21.8332C36.1114 21.8332 36.5113 21.8894 36.777 22.0018C37.0417 22.116 37.1712 22.3141 37.1712 22.595L37.1512 22.7788L36.9646 22.8978C36.2152 22.9426 35.6781 23.0111 35.0344 23.1054C34.4003 23.1939 33.8404 23.3482 33.3757 23.5615C32.8796 23.7815 32.5054 24.0757 32.2502 24.4509C31.9978 24.827 31.875 25.2821 31.875 25.8125C31.875 26.3201 32.054 26.7362 32.4101 27.0561C32.7653 27.3713 33.2271 27.5294 33.7851 27.5294C34.1365 27.5256 34.4098 27.5027 34.605 27.4522L35.2363 27.237L35.7772 26.9399L36.2666 26.6105L36.2752 26.621L36.2304 26.8323L36.2257 26.8362L36.2276 26.84C36.1685 27.0952 36.3237 27.3065 36.5751 27.3294L36.577 27.3342H36.5999C36.7646 27.3342 37.334 27.3342 37.6054 27.3342H37.7901L37.8101 27.3275C38.0682 27.2961 38.3119 27.0866 38.3662 26.8343L39.3222 22.714L39.3727 22.376L39.4003 22.0599C39.4013 21.4771 39.1518 21.0458 38.6538 20.7687ZM36.5504 25.4078L36.338 25.6792L35.8286 25.943C35.5867 26.0401 35.3563 26.0906 35.1477 26.0906C34.8154 26.0906 34.5698 26.043 34.4041 25.9477L34.1489 25.4593C34.1489 25.1926 34.2108 24.9841 34.3355 24.8194C34.4622 24.6642 34.6555 24.5366 34.8954 24.4433C35.1297 24.3633 35.4191 24.2985 35.7562 24.25C36.0533 24.2128 36.6418 24.1433 36.7179 24.1424L36.8103 24.3014C36.797 24.3918 36.6284 25.0898 36.5504 25.4078Z" fill="#0199E4"/>
<path d="M32.3458 19.649C32.1821 19.3319 31.9364 19.0758 31.626 18.8758C31.3079 18.6777 30.9308 18.5387 30.49 18.4587C30.0567 18.3816 29.5397 18.3397 28.9522 18.3387L26.2184 18.3406C25.9336 18.3454 25.6604 18.5663 25.5947 18.8377L23.7559 26.842C23.6893 27.1134 23.8721 27.3381 24.1502 27.3381L25.4594 27.3362C25.7375 27.3381 26.0222 27.1153 26.0879 26.841L26.5307 24.8976C26.5954 24.6271 26.8763 24.3996 27.1591 24.4015H27.5334C29.134 24.4015 30.3748 24.072 31.2679 23.4197C32.1506 22.7599 32.5972 21.8962 32.5972 20.8231C32.5925 20.3555 32.5115 19.9604 32.3458 19.649ZM29.5263 22.2666C29.1321 22.5504 28.5817 22.6951 27.8771 22.6951H27.5515C27.2705 22.698 27.0887 22.4694 27.1515 22.1971L27.5476 20.5012C27.6057 20.2298 27.8895 20.0023 28.1723 20.0051L28.596 20.0023C29.0988 20.0051 29.4759 20.088 29.733 20.2555C29.9891 20.4231 30.11 20.6859 30.1129 21.0345C30.1158 21.5658 29.9186 21.9752 29.5263 22.2666Z" fill="#0199E4"/>
<path d="M43.5559 18.9015C43.6159 18.6283 43.4445 18.4064 43.1636 18.4102H41.9924C41.7524 18.4102 41.5363 18.5883 41.4306 18.8073L41.3658 18.9082L41.3068 19.1672L39.6699 26.6078L39.6166 26.8363L39.6185 26.842C39.5642 27.0867 39.7147 27.2715 39.947 27.3067L39.967 27.3343H41.183C41.4211 27.3343 41.6448 27.1534 41.7467 26.9306L41.8096 26.8354L43.5597 18.9025L43.5559 18.9015Z" fill="#0199E4"/>
<path d="M23.7918 20.4458C23.4824 20.4496 22.2245 20.4458 22.2245 20.4458C21.9426 20.4458 21.5808 20.6734 21.4018 20.9447C21.4018 20.9447 19.5297 24.1575 19.3479 24.4803L19.1308 24.4774L18.548 20.9666C18.4833 20.6905 18.1947 20.4544 17.8358 20.4544L16.6645 20.4563C16.3827 20.4563 16.2094 20.681 16.2732 20.9552C16.2732 20.9552 17.1625 26.0162 17.3406 27.2074C17.4235 27.8645 17.3301 27.9816 17.3301 27.9816L16.1722 29.9984C16.0009 30.2726 16.0932 30.4964 16.3741 30.4964L17.7282 30.4945C18.01 30.4945 18.3804 30.2726 18.548 29.9974L23.7566 21.1876C23.7566 21.1885 24.2575 20.4353 23.7918 20.4458Z" fill="#002D8A"/>
</svg>
