<svg width="32" height="32" viewBox="0 0 32 32" fill="none" xmlns="http://www.w3.org/2000/svg">
<path d="M16 32C24.8366 32 32 24.8366 32 16C32 7.16344 24.8366 0 16 0C7.16344 0 0 7.16344 0 16C0 24.8366 7.16344 32 16 32Z" fill="#F0F1F2"/>
<path d="M23.1707 16.9653V21.9127H20.3024V17.2969C20.3024 16.1379 19.8883 15.3465 18.8497 15.3465C18.0572 15.3465 17.5864 15.8793 17.3785 16.3953C17.3029 16.5797 17.2835 16.8357 17.2835 17.0943V21.9125H14.4149C14.4149 21.9125 14.4534 14.0949 14.4149 13.2856H17.2837V14.5081C17.2779 14.5178 17.2698 14.5272 17.2647 14.5364H17.2837V14.5081C17.6649 13.9216 18.3447 13.0831 19.8688 13.0831C21.7559 13.0831 23.1707 14.316 23.1707 16.9653ZM11.4142 9.1272C10.433 9.1272 9.79102 9.77128 9.79102 10.6175C9.79102 11.4458 10.4144 12.1085 11.3765 12.1085H11.3951C12.3956 12.1085 13.0177 11.4458 13.0177 10.6175C12.9986 9.77128 12.3956 9.1272 11.4142 9.1272ZM9.9615 21.9127H12.829V13.2856H9.9615V21.9127Z" fill="#494B5A"/>
</svg>
