<svg width="32" height="32" viewBox="0 0 32 32" fill="none" xmlns="http://www.w3.org/2000/svg">
<path d="M16 32C24.8366 32 32 24.8366 32 16C32 7.16344 24.8366 0 16 0C7.16344 0 0 7.16344 0 16C0 24.8366 7.16344 32 16 32Z" fill="#F0F1F2"/>
<path d="M23.3498 12.6239C22.8356 12.8519 22.2824 13.0061 21.7023 13.075C22.2946 12.7201 22.7492 12.1586 22.9637 11.4884C22.4095 11.8172 21.7954 12.0557 21.1423 12.1843C20.6191 11.6271 19.8736 11.2788 19.0481 11.2788C17.4643 11.2788 16.1798 12.5633 16.1798 14.1471C16.1798 14.3719 16.2053 14.5908 16.2545 14.8008C13.8707 14.6813 11.757 13.5394 10.3422 11.8035C10.0954 12.2271 9.95376 12.7201 9.95376 13.2457C9.95376 14.2406 10.4605 15.1189 11.2297 15.6331C10.7598 15.6184 10.3172 15.4894 9.93065 15.274C9.93044 15.2862 9.93044 15.2984 9.93044 15.3104C9.93044 16.7001 10.9196 17.8593 12.2315 18.1226C11.991 18.1885 11.7371 18.2234 11.4759 18.2234C11.2907 18.2234 11.1112 18.2056 10.9362 18.1723C11.3012 19.3115 12.3602 20.1409 13.6157 20.1642C12.6338 20.9336 11.3972 21.392 10.053 21.392C9.82199 21.392 9.5931 21.3785 9.36914 21.3518C10.6378 22.1659 12.1459 22.6406 13.7656 22.6406C19.0415 22.6406 21.9267 18.27 21.9267 14.4793C21.9267 14.355 21.9239 14.2312 21.9184 14.1084C22.4792 13.7041 22.9654 13.1991 23.3498 12.6239Z" fill="#494B5A"/>
</svg>
