<svg width="48" height="48" viewBox="0 0 48 48" fill="none" xmlns="http://www.w3.org/2000/svg">
<g clip-path="url(#clip0)">
<path d="M19.2194 16.8572L16.78 31.1727H20.6815L23.1229 16.8572H19.2194Z" fill="url(#paint0_linear)"/>
<path d="M13.509 16.8732L9.68775 26.6359L9.28034 25.1618C8.52673 23.3857 6.38733 20.8349 3.87565 19.2273L7.36973 31.1656L11.498 31.1586L17.6423 16.8702L13.509 16.8732Z" fill="url(#paint1_linear)"/>
<path d="M7.79897 17.8978C7.57219 17.0257 6.91491 16.7658 6.09909 16.7347H0.0501735L0 17.0197C4.70728 18.1617 7.82205 20.9132 9.11452 24.2216L7.79897 17.8978Z" fill="url(#paint2_linear)"/>
<path d="M31.0302 19.6017C32.3066 19.5816 33.2318 19.8606 33.9503 20.1496L34.3025 20.3151L34.8304 17.2124C34.0577 16.9224 32.8465 16.6113 31.3353 16.6113C27.4799 16.6113 24.7625 18.553 24.7415 21.3357C24.7164 23.3918 26.6772 24.5397 28.1583 25.2251C29.6785 25.9275 30.1883 26.3741 30.1813 27.0013C30.1692 27.9596 28.9691 28.3991 27.8482 28.3991C26.2858 28.3991 25.4559 28.1833 24.1745 27.6495L23.6718 27.4207L23.1229 30.6248C24.036 31.0252 25.7208 31.3694 27.4699 31.3874C31.5711 31.3874 34.2363 29.4688 34.2644 26.4955C34.2815 24.8689 33.2409 23.6276 30.9861 22.6091C29.6213 21.9448 28.7865 21.5032 28.7945 20.8329C28.7945 20.2379 29.5029 19.6017 31.0302 19.6017Z" fill="url(#paint3_linear)"/>
<path d="M44.8431 16.8731H41.8287C40.8925 16.8731 40.1961 17.128 39.7846 18.0612L33.9916 31.1806H38.0888C38.0888 31.1806 38.7571 29.4165 38.9086 29.0301C39.3572 29.0301 43.3379 29.0361 43.9049 29.0361C44.0213 29.5359 44.3805 31.1806 44.3805 31.1806H48L44.8431 16.8731ZM40.0315 26.1C40.3526 25.2781 41.5859 22.0992 41.5859 22.0992C41.5648 22.1383 41.904 21.2713 42.1057 20.7324L42.3686 21.9667C42.3686 21.9667 43.1162 25.3845 43.2727 26.1H40.0315Z" fill="url(#paint4_linear)"/>
</g>
<defs>
<linearGradient id="paint0_linear" x1="-3.70314e-07" y1="17" x2="48" y2="31" gradientUnits="userSpaceOnUse">
<stop stop-color="#241F5E"/>
<stop offset="1" stop-color="#034EA0"/>
</linearGradient>
<linearGradient id="paint1_linear" x1="-3.70314e-07" y1="17" x2="48" y2="31" gradientUnits="userSpaceOnUse">
<stop stop-color="#241F5E"/>
<stop offset="1" stop-color="#034EA0"/>
</linearGradient>
<linearGradient id="paint2_linear" x1="-3.70314e-07" y1="17" x2="48" y2="31" gradientUnits="userSpaceOnUse">
<stop stop-color="#241F5E"/>
<stop offset="1" stop-color="#034EA0"/>
</linearGradient>
<linearGradient id="paint3_linear" x1="-3.70314e-07" y1="17" x2="48" y2="31" gradientUnits="userSpaceOnUse">
<stop stop-color="#241F5E"/>
<stop offset="1" stop-color="#034EA0"/>
</linearGradient>
<linearGradient id="paint4_linear" x1="-3.70314e-07" y1="17" x2="48" y2="31" gradientUnits="userSpaceOnUse">
<stop stop-color="#241F5E"/>
<stop offset="1" stop-color="#034EA0"/>
</linearGradient>
<clipPath id="clip0">
<rect width="48" height="48" fill="white"/>
</clipPath>
</defs>
</svg>
