<svg width="48" height="48" viewBox="0 0 48 48" fill="none" xmlns="http://www.w3.org/2000/svg">
<g clip-path="url(#clip0)">
<path d="M16.2098 29.644C16.2108 29.5466 16.1817 29.5165 16.0863 29.5205C15.9648 29.5265 15.8424 29.5285 15.7199 29.5205C15.6205 29.5135 15.5924 29.5466 15.5924 29.648C15.5964 30.3187 15.5944 30.9873 15.5944 31.656C15.5944 31.7032 15.5944 31.7504 15.5944 31.7996C15.5713 31.7835 15.5622 31.7684 15.5552 31.7504C15.2169 31.0405 14.8785 30.3307 14.5442 29.6209C14.5101 29.5466 14.4699 29.5185 14.3896 29.5205C14.1998 29.5265 14.0091 29.5225 13.8183 29.5225C13.737 29.5225 13.6557 29.5225 13.5703 29.5225C13.5703 30.5285 13.5703 31.5154 13.5703 32.5194C13.7229 32.5194 13.8695 32.5194 14.0161 32.5194C14.1817 32.5194 14.1817 32.5184 14.1817 32.3588C14.1817 31.6168 14.1817 30.8699 14.1817 30.0958C14.2078 30.144 14.2199 30.1661 14.2309 30.1871C14.5803 30.9341 14.9297 31.6811 15.2751 32.4311C15.3062 32.4994 15.3414 32.5214 15.4126 32.5214C15.6426 32.5184 15.8735 32.5184 16.1034 32.5214C16.1797 32.5214 16.2098 32.4994 16.2088 32.417C16.2058 32.16 16.2078 31.905 16.2078 31.65C16.2078 30.9813 16.2058 30.3126 16.2098 29.644Z" fill="black"/>
<path d="M9.38294 29.5224C9.12692 29.5264 8.8719 29.5325 8.61689 29.5204C8.48938 29.5134 8.4442 29.5656 8.41007 29.675C8.21127 30.3316 8.00345 30.9852 7.79261 31.6579C7.77855 31.6268 7.77353 31.6168 7.77052 31.6067C7.57976 30.9441 7.38699 30.2835 7.19824 29.6218C7.17616 29.5445 7.14503 29.5164 7.06371 29.5184C6.91311 29.5244 6.76151 29.5204 6.61091 29.5204C6.45027 29.5204 6.28963 29.5204 6.12598 29.5204C6.12598 30.5244 6.12598 31.5134 6.12598 32.5163C6.28762 32.5163 6.44224 32.5113 6.59585 32.5184C6.69725 32.5234 6.73139 32.4912 6.73038 32.3858C6.72737 31.6499 6.72938 30.911 6.72938 30.173C6.72938 30.1459 6.72938 30.1128 6.72938 30.0837C6.85588 30.431 6.96532 30.7794 7.07274 31.1278C7.20728 31.5605 7.34181 31.9892 7.47334 32.423C7.49543 32.4932 7.53057 32.5234 7.60386 32.5194C7.72534 32.5133 7.84783 32.5214 7.97032 32.5133C8.00144 32.5123 8.04963 32.4782 8.05967 32.4501C8.25244 31.8507 8.44119 31.2543 8.62994 30.6559C8.6952 30.4501 8.76046 30.2473 8.82572 30.0435C8.83174 30.0445 8.83877 30.0465 8.8448 30.0475C8.8448 30.8658 8.8448 31.685 8.8448 32.5184C9.03154 32.5184 9.21025 32.5153 9.38896 32.5194C9.46627 32.5224 9.49036 32.4933 9.48936 32.419C9.48836 31.4872 9.48836 30.5565 9.48936 29.6248C9.49036 29.5465 9.46326 29.5204 9.38294 29.5224Z" fill="black"/>
<path d="M12.8084 30.2753C12.6819 29.949 12.467 29.702 12.1317 29.5745C11.8144 29.455 11.4902 29.4329 11.1588 29.4992C10.7894 29.5725 10.5042 29.7653 10.3155 30.0916C10.1609 30.3606 10.0926 30.6508 10.0635 30.959C10.0906 31.1719 10.1006 31.3877 10.1468 31.5966C10.2332 31.9861 10.455 32.2803 10.8255 32.449C11.1669 32.6036 11.5243 32.6347 11.8877 32.5524C12.2753 32.463 12.5815 32.2552 12.7502 31.8857C12.9901 31.3606 13.0192 30.8195 12.8084 30.2753ZM12.2572 30.9962C12.2582 31.2261 12.2432 31.457 12.1478 31.6709C12.0072 31.9861 11.8104 32.1136 11.4881 32.1066C11.1679 32.0986 10.959 31.9359 10.8596 31.6407C10.7211 31.2271 10.7201 30.8054 10.8647 30.3958C10.9731 30.0865 11.2171 29.9349 11.5363 29.939C11.8265 29.943 12.0664 30.1076 12.1648 30.4078C12.2261 30.5966 12.2472 30.7984 12.2853 30.9942C12.2753 30.9942 12.2662 30.9962 12.2572 30.9962Z" fill="black"/>
<path d="M5.39346 15.5328C5.25893 16.5367 5.12339 17.5367 4.98885 18.5367C4.9768 18.5357 4.96576 18.5347 4.95472 18.5347C4.91154 18.2265 4.86938 17.9182 4.82319 17.609C4.72581 16.9534 4.6234 16.2978 4.53003 15.6402C4.51697 15.5468 4.48786 15.5247 4.3985 15.5247C3.82221 15.5287 3.24792 15.5267 2.67163 15.5267C2.63348 15.5267 2.59533 15.5307 2.55617 15.5328C2.40658 16.5408 2.25899 17.5387 2.11241 18.5377C2.10136 18.5377 2.09132 18.5377 2.08028 18.5377C1.94574 17.5357 1.8102 16.5337 1.67466 15.5297C1.11042 15.5297 0.562237 15.5297 0 15.5297C0.00301199 15.5709 0.001004 15.599 0.00702797 15.6271C0.199795 16.5126 0.393566 17.3992 0.585329 18.2857C0.722877 18.9232 0.860424 19.5618 0.993955 20.2003C1.01303 20.2897 1.04315 20.3278 1.14656 20.3268C1.67165 20.3208 2.19674 20.3238 2.72083 20.3238C2.83528 20.3238 2.94974 20.3238 3.07323 20.3238C3.22182 19.2887 3.37041 18.2606 3.517 17.2325C3.52904 17.2325 3.54009 17.2325 3.55213 17.2325C3.69972 18.2616 3.84731 19.2907 3.9959 20.3238C4.05012 20.3238 4.08927 20.3238 4.12843 20.3238C4.69368 20.3238 5.25792 20.3238 5.82317 20.3238C6.04405 20.3238 6.04405 20.3238 6.09224 20.1049C6.25891 19.3379 6.42657 18.5708 6.59324 17.8038C6.72376 17.2004 6.85327 16.598 6.98279 15.9986C7.01491 15.846 7.04503 15.6914 7.07716 15.5328C6.5089 15.5328 5.9567 15.5328 5.39346 15.5328Z" fill="black"/>
<path d="M10.0273 19.081C10.0273 18.8962 10.0273 18.7185 10.0273 18.5298C10.5915 18.5298 11.1468 18.5298 11.704 18.5298C11.704 18.1131 11.704 17.7085 11.704 17.2908C11.1427 17.2908 10.5875 17.2908 10.0253 17.2908C10.0253 17.1121 10.0253 16.9455 10.0253 16.7637C10.6347 16.7637 11.2371 16.7637 11.8435 16.7637C11.8455 16.7186 11.8496 16.6874 11.8496 16.6553C11.8496 16.316 11.8465 15.9786 11.8516 15.6403C11.8526 15.5429 11.8174 15.5218 11.7251 15.5218C10.5996 15.5248 9.4741 15.5238 8.34762 15.5238C8.20605 15.5238 8.20605 15.5238 8.20605 15.6654C8.20605 17.1653 8.20606 18.6643 8.20706 20.1643C8.20706 20.2145 8.21107 20.2637 8.21509 20.3159C9.45502 20.3159 10.6759 20.3159 11.8987 20.3159C11.8987 19.9012 11.8987 19.4946 11.8987 19.081C11.2692 19.081 10.6518 19.081 10.0273 19.081Z" fill="black"/>
<path d="M38.4851 15.5308C38.4851 16.4967 38.4851 17.4565 38.4851 18.4143C38.4791 18.4153 38.4681 18.4173 38.458 18.4183C38.444 18.3852 38.4289 18.3551 38.4169 18.3229C38.1026 17.4224 37.7874 16.5228 37.4751 15.6212C37.449 15.5499 37.4179 15.5218 37.3376 15.5218C36.6579 15.5258 35.9792 15.5268 35.2985 15.5218C35.1981 15.5218 35.1709 15.5509 35.173 15.6483C35.175 17.1653 35.175 18.6824 35.175 20.2004C35.175 20.2376 35.178 20.2767 35.183 20.3199C35.2252 20.3229 35.2573 20.3249 35.2874 20.3249C35.7221 20.3249 36.1498 20.3219 36.5836 20.3269C36.6789 20.3279 36.703 20.3058 36.703 20.2074C36.699 19.3089 36.701 18.4093 36.701 17.5107C36.701 17.4776 36.7071 17.4454 36.7091 17.4133C36.7593 17.4926 36.7914 17.5719 36.8185 17.6523C37.1147 18.5057 37.4129 19.3591 37.705 20.2135C37.7362 20.3018 37.7793 20.3249 37.8697 20.3249C38.5524 20.3209 39.2341 20.3229 39.9188 20.3229C39.9439 20.3229 39.9741 20.3189 40.0012 20.3169C40.0012 18.7175 40.0012 17.1232 40.0012 15.5308C39.4911 15.5308 38.9932 15.5308 38.4851 15.5308Z" fill="black"/>
<path d="M27.7559 19.084C27.2037 19.0871 26.6495 19.0851 26.0963 19.0851C26.0571 19.0851 26.02 19.081 25.9808 19.079C25.9808 18.8933 25.9808 18.7206 25.9808 18.5319C26.5451 18.5319 27.0963 18.5319 27.6535 18.5319C27.6535 18.1152 27.6535 17.7086 27.6535 17.2909C27.0943 17.2909 26.5431 17.2909 25.9828 17.2909C25.9828 17.1132 25.9828 16.9465 25.9828 16.7638C26.5963 16.7638 27.1997 16.7638 27.8021 16.7638C27.8021 16.3431 27.8021 15.9385 27.8021 15.5299C26.5903 15.5299 25.3885 15.5299 24.1807 15.5299C24.1807 17.1293 24.1807 18.7226 24.1807 20.317C24.2048 20.32 24.2178 20.323 24.2319 20.323C25.4156 20.323 26.6003 20.323 27.777 20.325C27.8493 20.325 27.8713 20.3029 27.8693 20.2316C27.8673 19.8872 27.8633 19.5419 27.8714 19.1965C27.8734 19.1041 27.8422 19.084 27.7559 19.084Z" fill="black"/>
<path d="M33.6715 19.2215C33.6364 18.9986 33.6153 18.7727 33.5741 18.5519C33.5109 18.2185 33.302 18.0157 32.9737 17.9344C32.9125 17.9194 32.8563 17.9043 32.7679 17.8822C32.8261 17.8631 32.8523 17.8551 32.8774 17.8461C33.1324 17.7657 33.3613 17.6473 33.5229 17.4204C33.7016 17.1633 33.7247 16.8692 33.6976 16.573C33.6615 16.1393 33.4486 15.827 33.0269 15.6704C32.7047 15.5509 32.3693 15.5288 32.032 15.5268C31.1424 15.5218 30.2539 15.5248 29.3674 15.5248C29.3312 15.5248 29.2961 15.5248 29.2529 15.5248C29.2529 17.1332 29.2529 18.7246 29.2529 20.3169C29.8654 20.3169 30.4728 20.3169 31.0922 20.3169C31.0922 19.7476 31.0922 19.1844 31.0922 18.5991C31.2499 18.6121 31.3985 18.6151 31.54 18.6392C31.6595 18.6583 31.7398 18.7396 31.7669 18.8591C31.795 18.9846 31.8141 19.1121 31.8342 19.2396C31.8924 19.5679 31.9477 19.8962 32.0029 20.2245C32.0159 20.2948 32.044 20.3259 32.1244 20.3259C32.6735 20.3219 33.2257 20.3239 33.7749 20.3239C33.805 20.3239 33.8372 20.3199 33.8512 20.3189C33.789 19.9484 33.7297 19.585 33.6715 19.2215ZM31.6555 17.4585C31.4808 17.5449 31.2951 17.5388 31.0943 17.5258C31.0963 17.2176 31.0963 16.9204 31.0963 16.6101C31.2981 16.6031 31.4969 16.5891 31.6886 16.6704C31.8533 16.7417 31.9005 16.8812 31.8985 17.0479C31.8964 17.2326 31.8262 17.3752 31.6555 17.4585Z" fill="black"/>
<path d="M45.6328 15.572C45.6328 19.0509 45.6328 22.5207 45.6328 25.9955C45.8266 25.9955 46.0153 25.9955 46.2091 25.9955C46.2091 22.5207 46.2091 19.0468 46.2091 15.572C46.0133 15.572 45.8216 15.572 45.6328 15.572Z" fill="black"/>
<path d="M18.6582 15.5307C18.6582 15.9594 18.6582 16.3811 18.6582 16.8118C19.0538 16.8118 19.4413 16.8118 19.8419 16.8118C19.8419 17.9875 19.8419 19.1531 19.8419 20.3177C20.4754 20.3177 21.0929 20.3177 21.7304 20.3177C21.7304 19.1431 21.7304 17.9794 21.7304 16.8068C22.128 16.8068 22.5145 16.8068 22.9041 16.8068C22.9041 16.3751 22.9041 15.9544 22.9041 15.5307C21.4844 15.5307 20.0728 15.5307 18.6582 15.5307Z" fill="black"/>
<path d="M16.6563 17.4966C16.337 17.3792 16.0047 17.2988 15.6784 17.2014C15.4696 17.1392 15.2577 17.083 15.0519 17.0117C14.9435 16.9735 14.8913 16.8782 14.8973 16.7627C14.9033 16.6412 14.9706 16.5509 15.0841 16.5258C15.2116 16.4966 15.3471 16.4806 15.4756 16.4926C15.6352 16.5077 15.7366 16.6131 15.7527 16.7637C15.7638 16.8631 15.8099 16.8741 15.8933 16.8741C16.3752 16.8721 16.8571 16.8731 17.338 16.8731C17.3732 16.8731 17.4083 16.8691 17.4384 16.8671C17.4465 16.851 17.4505 16.845 17.4515 16.839C17.4535 16.828 17.4535 16.8179 17.4535 16.8069C17.4414 16.3169 17.2366 15.9364 16.8019 15.6924C16.5027 15.5248 16.1744 15.4515 15.835 15.4254C15.2979 15.3822 14.7648 15.3882 14.2467 15.5609C13.6604 15.7577 13.2518 16.1191 13.1805 16.7667C13.1082 17.4133 13.322 17.9163 13.9536 18.1583C14.307 18.2938 14.6774 18.3842 15.0409 18.4956C15.2336 18.5538 15.4274 18.607 15.6152 18.6763C15.7778 18.7355 15.8581 18.8701 15.837 19.0066C15.8079 19.2034 15.6513 19.345 15.4475 19.362C15.1624 19.3851 14.9957 19.2988 14.9284 19.0859C14.9043 19.0127 14.8923 18.9353 14.8732 18.853C14.2819 18.853 13.6905 18.853 13.0871 18.853C13.0831 18.8801 13.0801 18.8972 13.0801 18.9153C13.0801 18.9404 13.0801 18.9655 13.0821 18.9906C13.1353 19.6281 13.4767 20.0428 14.072 20.2616C14.4435 20.3992 14.831 20.4413 15.2246 20.4464C15.6654 20.4524 16.1011 20.4152 16.5198 20.2686C17.073 20.0739 17.4635 19.7275 17.576 19.1271C17.7226 18.337 17.4093 17.7717 16.6563 17.4966Z" fill="black"/>
<path d="M27.3094 21.2838C27.0001 21.2899 26.6889 21.2869 26.3817 21.2879C26.1046 21.2879 25.8285 21.2879 25.5383 21.2879C25.5363 21.332 25.5323 21.3632 25.5323 21.3943C25.5323 22.9224 25.5323 24.4494 25.5303 25.9765C25.5303 26.0588 25.5493 26.088 25.6397 26.088C26.1809 26.0829 26.724 26.086 27.2672 26.086C27.4138 26.086 27.4138 26.086 27.4138 25.9394C27.4138 24.5549 27.4138 23.1703 27.4138 21.7868C27.4138 21.6543 27.4098 21.5208 27.4138 21.3883C27.4148 21.3079 27.3897 21.2828 27.3094 21.2838Z" fill="black"/>
<path d="M18.8804 32.0013C18.4959 32.0053 18.1114 32.0033 17.7259 32.0033C17.6847 32.0033 17.6425 31.9993 17.5893 31.9973C17.5893 31.7684 17.5923 31.5505 17.5883 31.3306C17.5863 31.2463 17.6134 31.2202 17.6977 31.2202C18.0291 31.2242 18.3594 31.2222 18.6907 31.2222C18.7389 31.2222 18.7891 31.2162 18.8433 31.2142C18.8433 31.0465 18.8433 30.8899 18.8433 30.7232C18.7921 30.7192 18.7459 30.7142 18.7007 30.7142C18.3664 30.7132 18.0311 30.7152 17.6967 30.7122C17.6606 30.7112 17.5943 30.678 17.5943 30.6579C17.5863 30.4501 17.5893 30.2423 17.5893 30.0184C18.0461 30.0184 18.4839 30.0184 18.9347 30.0184C18.9347 29.8929 18.9266 29.7754 18.9367 29.658C18.9457 29.5475 18.9096 29.5164 18.8001 29.5184C18.2218 29.5224 17.6425 29.5224 17.0632 29.5184C16.9608 29.5164 16.9297 29.5435 16.9307 29.6479C16.9337 30.5586 16.9317 31.4692 16.9317 32.3778C16.9317 32.419 16.9317 32.4621 16.9317 32.5103C17.6204 32.5103 18.2951 32.5103 18.9798 32.5103C18.9798 32.3718 18.9748 32.2382 18.9818 32.1057C18.9859 32.0264 18.9608 32.0013 18.8804 32.0013Z" fill="black"/>
<path d="M15.6723 21.2967C15.6723 21.3881 15.6723 21.4734 15.6723 21.5588C15.6723 22.4935 15.6733 23.4292 15.6692 24.3639C15.6692 24.4734 15.6542 24.5949 15.62 24.7003C15.5749 24.8398 15.4664 24.9242 15.3138 24.9322C15.1562 24.9392 15.0287 24.875 14.9705 24.7244C14.9313 24.626 14.9062 24.5166 14.9062 24.4121C14.9012 23.4162 14.9022 22.4202 14.9022 21.4242C14.9022 21.3821 14.9022 21.3399 14.9022 21.2927C14.2707 21.2927 13.6492 21.2927 13.0217 21.2927C13.0187 21.3198 13.0157 21.3329 13.0157 21.3469C13.0157 22.4373 13.0107 23.5266 13.0227 24.6149C13.0247 24.8047 13.0769 25.0025 13.1462 25.1792C13.3329 25.6601 13.7215 25.9242 14.1964 26.0597C14.8831 26.2595 15.5779 26.2535 16.2726 26.0928C17.0979 25.9011 17.5608 25.3248 17.5608 24.4854C17.5628 23.4644 17.5618 22.4433 17.5618 21.4222C17.5618 21.3801 17.5618 21.3389 17.5618 21.2967C16.9252 21.2967 16.3048 21.2967 15.6723 21.2967Z" fill="black"/>
<path d="M37.8974 31.0696C37.7609 30.9642 37.5902 30.901 37.4195 30.8438C37.2077 30.7695 36.9838 30.7263 36.7679 30.663C36.4918 30.5827 36.3934 30.3217 36.5521 30.1138C36.7097 29.904 37.1193 29.8689 37.294 30.0647C37.3703 30.149 37.4075 30.2705 37.4697 30.3859C37.6484 30.3859 37.8482 30.3859 38.054 30.3859C38.0952 30.0124 37.8502 29.6661 37.4697 29.5446C37.1735 29.4532 36.8693 29.4562 36.5671 29.5215C36.3874 29.5627 36.2248 29.64 36.0812 29.7624C35.7559 30.0446 35.6304 30.7765 36.2268 31.0747C36.3523 31.1349 36.4828 31.1901 36.6153 31.2303C36.8211 31.2976 37.033 31.3407 37.2358 31.41C37.5018 31.5004 37.5541 31.8106 37.3312 31.9863C37.2659 32.0375 37.1755 32.0746 37.0912 32.0917C36.7468 32.16 36.3814 32.0696 36.3834 31.6108C36.3834 31.5887 36.3312 31.5516 36.3051 31.5506C36.1836 31.5435 36.0621 31.5476 35.9386 31.5476C35.7167 31.5476 35.7127 31.5476 35.7338 31.7674C35.7659 32.1088 35.9326 32.3568 36.2559 32.4823C36.6033 32.6188 36.9637 32.6188 37.3241 32.5365C37.5902 32.4762 37.8191 32.3528 37.9858 32.1269C38.2368 31.7875 38.2087 31.3016 37.8974 31.0696Z" fill="black"/>
<path d="M41.1211 15.572C41.1211 19.0509 41.1211 22.5207 41.1211 25.9955C41.3169 25.9955 41.5056 25.9955 41.7014 25.9955C41.7014 22.5207 41.7014 19.0468 41.7014 15.572C41.5036 15.572 41.3108 15.572 41.1211 15.572Z" fill="black"/>
<path d="M40.6855 29.5355C40.6484 29.5315 40.6193 29.5275 40.5912 29.5275C40.0139 29.5275 39.4396 29.5275 38.8643 29.5255C38.7699 29.5255 38.7579 29.5706 38.7579 29.651C38.7599 30.5596 38.7599 31.4712 38.7599 32.3788C38.7599 32.4059 38.7518 32.434 38.7619 32.4551C38.7739 32.4792 38.799 32.5143 38.8191 32.5143C39.0139 32.5194 39.2077 32.5174 39.4175 32.5174C39.4175 32.0846 39.4175 31.674 39.4175 31.2523C39.8151 31.2523 40.2036 31.2523 40.6112 31.2523C40.6112 31.1218 40.6112 31.0013 40.6112 30.8798C40.6112 30.7373 40.6112 30.7373 40.4677 30.7373C40.1524 30.7373 39.8362 30.7393 39.5209 30.7353C39.4817 30.7353 39.4185 30.7021 39.4165 30.681C39.4095 30.4642 39.4115 30.2473 39.4115 30.0174C39.8482 30.0174 40.2659 30.0174 40.6855 30.0174C40.6855 29.8487 40.6855 29.6941 40.6855 29.5355Z" fill="black"/>
<path d="M43.1468 32.0033C42.7623 32.0033 42.3767 32.0003 41.9952 32.0043C41.9079 32.0053 41.8848 31.9752 41.8868 31.8939C41.8928 31.7262 41.8888 31.5565 41.8888 31.3879C41.8888 31.2212 41.8888 31.2222 42.0484 31.2222C42.3637 31.2222 42.6739 31.2222 42.9872 31.2222C43.0384 31.2212 43.0876 31.2172 43.1498 31.2142C43.1498 31.0887 43.1498 30.9712 43.1498 30.8557C43.1498 30.7142 43.1498 30.7142 43.0052 30.7142C42.6719 30.7132 42.3366 30.7152 42.0032 30.7112C41.9661 30.7112 41.8968 30.68 41.8968 30.662C41.8908 30.4501 41.8928 30.2403 41.8928 30.0184C42.3476 30.0184 42.7894 30.0184 43.2362 30.0184C43.2362 29.8859 43.2281 29.7674 43.2382 29.6499C43.2462 29.5435 43.209 29.5164 43.1046 29.5184C42.5253 29.5224 41.947 29.5204 41.3687 29.5204C41.3276 29.5204 41.2864 29.5244 41.2412 29.5264C41.2412 30.5264 41.2412 31.5144 41.2412 32.5103C41.9179 32.5103 42.5926 32.5103 43.2723 32.5103C43.2723 32.3396 43.2723 32.177 43.2723 32.0033C43.2251 32.0033 43.1859 32.0033 43.1468 32.0033Z" fill="black"/>
<path d="M47.3725 15.4956C47.0292 15.4996 46.745 15.7837 46.7491 16.1231C46.7511 16.4644 47.0432 16.7466 47.3926 16.7436C47.732 16.7405 48.0021 16.4624 48 16.1191C48 15.7596 47.728 15.4916 47.3725 15.4956ZM47.3776 16.6813C47.0774 16.6833 46.8324 16.4293 46.8324 16.1151C46.8324 15.8038 47.0794 15.5558 47.3856 15.5588C47.6938 15.5619 47.9167 15.8028 47.9147 16.1281C47.9157 16.4424 47.6858 16.6793 47.3776 16.6813Z" fill="black"/>
<path d="M46.0964 31.8678C46.0723 31.7383 46.0572 31.6088 46.0351 31.4813C45.994 31.2403 45.8665 31.0716 45.5884 31.0345C45.6436 31.0124 45.6747 30.9973 45.7038 30.9833C46.0612 30.8287 46.1627 30.5696 46.1586 30.2925C46.1546 29.9532 45.9468 29.6761 45.6275 29.5887C45.4709 29.5466 45.3022 29.5275 45.1376 29.5255C44.753 29.5174 44.3685 29.5235 43.985 29.5235C43.9438 29.5235 43.9027 29.5275 43.8555 29.5315C43.8555 30.5295 43.8555 31.5174 43.8555 32.5134C44.0733 32.5134 44.2852 32.5134 44.5101 32.5134C44.5101 32.1158 44.5101 31.7242 44.5101 31.3206C44.7038 31.3206 44.8866 31.3206 45.0713 31.3206C45.2982 31.3206 45.3715 31.3859 45.4046 31.6108C45.4458 31.8859 45.487 32.164 45.5301 32.4391C45.5342 32.4682 45.5633 32.5154 45.5813 32.5164C45.8002 32.5214 46.0181 32.5194 46.2159 32.5194C46.1747 32.2935 46.1335 32.0796 46.0964 31.8678ZM45.1436 30.8126C44.9548 30.8267 44.7631 30.8206 44.5743 30.8246C44.5121 30.8267 44.494 30.7925 44.494 30.7363C44.496 30.6299 44.494 30.5224 44.494 30.413C44.494 30.3066 44.496 30.1972 44.494 30.0907C44.494 30.0305 44.5151 30.0084 44.5763 30.0104C44.7611 30.0184 44.9428 30.0144 45.1275 30.0245C45.3454 30.0325 45.4669 30.164 45.4749 30.3909C45.4819 30.6118 45.3434 30.7965 45.1436 30.8126Z" fill="black"/>
<path d="M22.4258 21.2919C22.4258 22.2567 22.4258 23.2155 22.4258 24.1743C22.4157 24.1753 22.4057 24.1774 22.3946 24.1794C22.3846 24.1543 22.3715 24.1312 22.3635 24.1061C22.0452 23.1995 21.726 22.2929 21.4117 21.3852C21.3846 21.3059 21.3475 21.2838 21.2672 21.2848C20.5874 21.2879 19.9077 21.2879 19.228 21.2838C19.1296 21.2828 19.1025 21.3079 19.1025 21.4093C19.1045 22.9284 19.1035 24.4434 19.1035 25.9615C19.1045 25.9996 19.1076 26.0368 19.1096 26.0779C19.6186 26.0779 20.1166 26.0779 20.6336 26.0779C20.6336 25.1061 20.6336 24.1402 20.6326 23.1734C20.6427 23.1724 20.6527 23.1703 20.6617 23.1693C20.6798 23.2145 20.6989 23.2577 20.715 23.3029C21.0262 24.1954 21.3374 25.088 21.6467 25.9845C21.6738 26.0649 21.7099 26.088 21.7912 26.088C22.475 26.0859 23.1587 26.086 23.8414 26.086C23.8725 26.086 23.9046 26.0809 23.9408 26.0789C23.9408 24.4786 23.9408 22.8852 23.9408 21.2919C23.4328 21.2919 22.9338 21.2919 22.4258 21.2919Z" fill="black"/>
<path d="M47.6869 15.9113C47.6668 15.8591 47.6026 15.7939 47.5524 15.7858C47.4269 15.7678 47.2954 15.7808 47.1719 15.7808C47.1719 16.0147 47.1719 16.2386 47.1719 16.4625C47.1839 16.4625 47.197 16.4635 47.211 16.4635C47.211 16.3581 47.211 16.2537 47.211 16.1553C47.3365 16.1161 47.4148 16.1362 47.462 16.2426C47.4911 16.3039 47.5283 16.3621 47.5685 16.4153C47.5875 16.4394 47.6227 16.4525 47.6488 16.4705C47.6558 16.4635 47.6618 16.4555 47.6679 16.4485C47.6056 16.3501 47.5444 16.2517 47.4791 16.1493C47.5263 16.1362 47.5634 16.1302 47.5946 16.1151C47.6829 16.074 47.7181 15.9926 47.6869 15.9113ZM47.4138 16.084C47.2271 16.084 47.1749 16.0077 47.2251 15.8591C47.2291 15.8461 47.2401 15.825 47.2462 15.826C47.3576 15.834 47.4711 15.84 47.5795 15.8611C47.6006 15.8651 47.6207 15.9455 47.6106 15.9826C47.5996 16.0187 47.5564 16.0579 47.5193 16.074C47.4781 16.091 47.4269 16.083 47.4138 16.084Z" fill="black"/>
<path d="M25.4551 29.5224C24.8648 29.5224 24.2744 29.5234 23.6851 29.5214C23.5927 29.5214 23.5535 29.5445 23.5616 29.6428C23.5696 29.7412 23.5676 29.8366 23.5626 29.935C23.5576 30.0143 23.5867 30.0414 23.667 30.0394C23.8859 30.0344 24.1057 30.0414 24.3246 30.0364C24.418 30.0324 24.4471 30.0595 24.4471 30.1559C24.4431 30.8838 24.4451 31.6107 24.4451 32.3366C24.4451 32.3757 24.4401 32.4169 24.4491 32.454C24.4551 32.4801 24.4842 32.5163 24.5043 32.5163C24.7011 32.5203 24.8979 32.5193 25.1047 32.5193C25.1047 32.4601 25.1047 32.4169 25.1047 32.3757C25.1047 31.6699 25.1027 30.9661 25.1047 30.2603C25.1077 30.0123 25.0615 30.0404 25.3296 30.0384C25.5424 30.0364 25.7573 30.0364 25.9792 30.0364C25.9792 29.8637 25.9792 29.7031 25.9792 29.5224C25.7985 29.5224 25.6258 29.5224 25.4551 29.5224Z" fill="black"/>
<path d="M21.4373 29.5396C21.3691 29.5366 21.3369 29.5617 21.3098 29.6239C21.2014 29.8659 21.0869 30.1079 20.9755 30.3468C20.8952 30.5215 20.8149 30.6922 20.7285 30.8779C20.7125 30.8418 20.7034 30.8237 20.6944 30.8026C20.5157 30.4061 20.338 30.0115 20.1562 29.6159C20.1412 29.5858 20.1 29.5456 20.0699 29.5446C19.844 29.5396 19.6181 29.5416 19.3701 29.5416C19.3922 29.5868 19.4032 29.6169 19.4183 29.646C19.7165 30.2032 20.0177 30.7564 20.3119 31.3167C20.346 31.3799 20.3641 31.4582 20.3661 31.5305C20.3711 31.8247 20.3701 32.1209 20.3661 32.415C20.3651 32.4934 20.3872 32.5215 20.4695 32.5195C20.6131 32.5134 20.7576 32.5134 20.9012 32.5195C20.9896 32.5235 21.0197 32.4954 21.0187 32.405C21.0137 32.1058 21.0147 31.8066 21.0187 31.5084C21.0187 31.4602 21.0297 31.401 21.0538 31.3578C21.2888 30.9091 21.5277 30.4613 21.7657 30.0155C21.847 29.8639 21.9263 29.7113 22.0166 29.5406C21.8078 29.5406 21.6231 29.5436 21.4373 29.5396Z" fill="black"/>
<path d="M38.48 21.2968C38.48 22.2626 38.48 23.2194 38.48 24.1762C38.4449 24.1521 38.4308 24.124 38.4208 24.0949C38.1025 23.1913 37.7873 22.2877 37.474 21.3831C37.4509 21.3169 37.4228 21.2867 37.3465 21.2867C36.6568 21.2898 35.967 21.2898 35.2763 21.2877C35.193 21.2867 35.1719 21.3159 35.1719 21.3942C35.1739 22.9223 35.1759 24.4503 35.1719 25.9774C35.1719 26.0698 35.205 26.0889 35.2913 26.0889C35.718 26.0818 36.1447 26.0818 36.5755 26.0889C36.6728 26.0889 36.703 26.0627 36.702 25.9623C36.6979 25.0839 36.7 24.2074 36.7 23.3289C36.7 23.2777 36.7 23.2265 36.7 23.1743C36.7391 23.2054 36.7562 23.2395 36.7702 23.2736C37.0845 24.1793 37.3997 25.0849 37.712 25.9885C37.7391 26.0648 37.7702 26.0889 37.8485 26.0889C38.5333 26.0848 39.214 26.0868 39.8997 26.0868C39.9298 26.0868 39.9609 26.0868 40.0041 26.0868C40.0041 24.4784 40.0041 22.8881 40.0041 21.2968C39.4941 21.2968 38.9921 21.2968 38.48 21.2968Z" fill="black"/>
<path d="M28.744 32.2835C28.7109 32.0626 28.6757 31.8397 28.6436 31.6158C28.6024 31.3357 28.5302 31.0807 28.1647 31.0335C28.2259 31.0094 28.2611 30.9944 28.2962 30.9803C28.5844 30.8548 28.753 30.6058 28.74 30.3036C28.7279 29.9843 28.5884 29.7293 28.2792 29.6129C28.1125 29.5506 27.9237 29.5305 27.743 29.5245C27.3454 29.5094 26.9438 29.5225 26.5473 29.5185C26.4509 29.5185 26.4258 29.5466 26.4258 29.642C26.4298 30.5566 26.4278 31.4743 26.4278 32.3919C26.4298 32.4291 26.4318 32.4672 26.4358 32.5074C26.6617 32.5074 26.8736 32.5074 27.0965 32.5074C27.0965 32.1088 27.0965 31.7162 27.0965 31.3166C27.3264 31.3166 27.5452 31.3096 27.7651 31.3206C27.8615 31.3247 27.9378 31.3899 27.9609 31.4933C27.982 31.5737 27.994 31.654 28.0061 31.7363C28.0432 31.9913 28.0784 32.2463 28.1145 32.5074C28.3514 32.5074 28.5824 32.5074 28.8143 32.5074C28.7902 32.425 28.7561 32.3568 28.744 32.2835ZM27.746 30.8096C27.5442 30.8307 27.3384 30.8227 27.1326 30.8207C27.1115 30.8207 27.0754 30.7775 27.0754 30.7554C27.0703 30.5144 27.0724 30.2745 27.0724 30.0305C27.3244 30.0305 27.5623 30.0114 27.7972 30.0365C27.9719 30.0546 28.0623 30.2173 28.0583 30.4271C28.0512 30.6229 27.9298 30.7905 27.746 30.8096Z" fill="black"/>
<path d="M33.6062 22.6531C33.4224 22.0869 33.063 21.6652 32.5198 21.4082C32.1534 21.2345 31.7628 21.1702 31.3612 21.1632C30.8201 21.1542 30.298 21.2355 29.8352 21.5327C29.1866 21.9433 28.9135 22.5718 28.8352 23.3047C28.79 23.7194 28.8141 24.131 28.9195 24.5336C29.0581 25.0667 29.3352 25.5075 29.804 25.8137C30.2568 26.1089 30.7628 26.2012 31.293 26.2163C31.5028 26.1952 31.7176 26.1852 31.9225 26.147C32.7046 25.9994 33.2819 25.5758 33.569 24.8177C33.8381 24.1069 33.8401 23.377 33.6062 22.6531ZM31.7106 24.6079C31.6534 24.88 31.4837 24.9904 31.2418 24.9673C31.1012 24.9573 30.9797 24.9001 30.9345 24.7655C30.8713 24.5788 30.801 24.388 30.791 24.1973C30.7799 23.8017 30.798 23.4031 30.8151 23.0055C30.8211 22.8871 30.8642 22.7666 30.9054 22.6531C30.9677 22.4895 31.0922 22.4021 31.2679 22.3971C31.4506 22.3901 31.5861 22.4624 31.6654 22.632C31.7719 22.862 31.7869 23.1099 31.806 23.3569C31.814 23.4644 31.806 23.5728 31.806 23.6812C31.818 23.6822 31.8281 23.6832 31.8401 23.6842C31.799 23.9925 31.7769 24.3037 31.7106 24.6079Z" fill="black"/>
<path d="M35.0589 29.5215C34.9284 29.5235 34.7948 29.5275 34.6613 29.5195C34.5669 29.5145 34.5378 29.5406 34.5378 29.638C34.5418 30.3317 34.5398 31.0275 34.5398 31.7203C34.5398 31.7474 34.5378 31.7695 34.5338 31.8146C34.5137 31.7785 34.5027 31.7604 34.4926 31.7393C34.1573 31.0335 33.822 30.3277 33.4886 29.6199C33.4555 29.5466 33.4163 29.5175 33.336 29.5195C33.1031 29.5255 32.8672 29.5255 32.6362 29.5195C32.5338 29.5175 32.5107 29.5496 32.5107 29.649C32.5128 30.5667 32.5127 31.4823 32.5127 32.398C32.5127 32.4341 32.5127 32.4682 32.5127 32.5194C32.6794 32.5194 32.834 32.5194 32.9856 32.5194C33.1302 32.5184 33.1302 32.5184 33.1302 32.3789C33.1302 31.6279 33.1302 30.8769 33.1302 30.1259C33.1362 30.1239 33.1433 30.1239 33.1493 30.1229C33.2356 30.3086 33.322 30.4924 33.4083 30.6781C33.6794 31.2634 33.9515 31.8498 34.2276 32.4341C34.2446 32.4723 34.3029 32.5144 34.344 32.5154C34.586 32.5235 34.826 32.5194 35.0669 32.5205C35.1302 32.5205 35.1573 32.4984 35.1573 32.4321C35.1553 31.4944 35.1553 30.5556 35.1573 29.6159C35.1573 29.5476 35.1332 29.5205 35.0589 29.5215Z" fill="black"/>
<path d="M31.9529 32.419C31.8484 32.1178 31.744 31.8136 31.6366 31.5074C31.4177 30.8769 31.1999 30.2474 30.984 29.6148C30.9609 29.5425 30.9218 29.5164 30.8444 29.5185C30.6667 29.5245 30.49 29.5265 30.3153 29.5164C30.2079 29.5094 30.1667 29.5556 30.1326 29.65C29.8816 30.3558 29.6286 31.0606 29.3726 31.7654C29.2862 32.0074 29.1999 32.2483 29.1035 32.5144C29.2943 32.5144 29.4629 32.5104 29.6316 32.5164C29.7069 32.5184 29.739 32.4893 29.7611 32.42C29.8083 32.2694 29.8655 32.1208 29.9097 31.9712C29.9328 31.9009 29.969 31.8698 30.0493 31.8718C30.3043 31.8778 30.5613 31.8738 30.8163 31.8738C31.1175 31.8738 31.1155 31.8738 31.2119 32.164C31.2491 32.2794 31.2681 32.432 31.3484 32.4933C31.4268 32.5515 31.5784 32.5134 31.6958 32.5144C31.7862 32.5164 31.8766 32.5154 31.978 32.5154C31.9649 32.4662 31.9589 32.4431 31.9529 32.419ZM30.1256 31.3668C30.2661 30.9642 30.4017 30.5666 30.5503 30.1429C30.6858 30.5626 30.8153 30.9592 30.9469 31.3668C30.6687 31.3668 30.4047 31.3668 30.1256 31.3668Z" fill="black"/>
</g>
<defs>
<clipPath id="clip0">
<rect width="48" height="48" fill="white"/>
</clipPath>
</defs>
</svg>
